<?xml version="1.0" encoding="utf-8"?>
<!-- Generator: Adobe Illustrator 26.0.1, SVG Export Plug-In . SVG Version: 6.00 Build 0)  -->
<svg version="1.1" id="Capa_1" xmlns="http://www.w3.org/2000/svg" xmlns:xlink="http://www.w3.org/1999/xlink" x="0px" y="0px"
	 viewBox="0 0 850 850" style="enable-background:new 0 0 850 850;" xml:space="preserve">
<style type="text/css">
	.st0{fill:#AFEEEE;}
	.st1{fill:#739BC6;}
</style>
<g>
	<path d="M266.5,154.4c-6.7,0-11.8-2-15.1-6s-4.9-10-4.9-18.1c0-3.7,0.3-7.8,0.8-12.3c0.5-4.5,1.4-9,2.6-13.6
		c1.6-6.4,3.7-12.2,6.3-17.2c2.5-5,5.8-9,9.8-11.9c4-2.9,8.8-4.4,14.6-4.4c4.2,0,7.6,0.7,10.4,2.2c2.8,1.5,4.8,3.6,6.2,6.5
		c1.3,2.8,2,6.2,2,10.2c0,1.6-0.1,3.4-0.2,5.1c-0.2,1.8-0.4,3.7-0.8,5.7h-5.5c0.3-1.8,0.5-3.5,0.7-5.1c0.2-1.6,0.2-3.1,0.2-4.5
		c0-3.3-0.5-6-1.4-8.2c-0.9-2.2-2.4-3.9-4.4-5c-2-1.1-4.5-1.7-7.6-1.7c-3.1,0-5.9,0.7-8.5,2.1c-2.6,1.4-5.1,3.5-7.3,6.5
		c-2.3,3-4.3,6.9-6,11.7c-1.7,4.8-3.2,10.7-4.5,17.6c-0.2,1.5-0.5,3-0.7,4.4c-0.2,1.5-0.4,2.8-0.5,4.1c-0.1,1.3-0.2,2.5-0.3,3.7
		c-0.1,1.2-0.1,2.4-0.1,3.5c0,4.5,0.6,8.3,1.7,11.2c1.1,2.9,2.8,5,4.9,6.4c2.1,1.3,4.7,2,7.8,2c3.8,0,7.2-0.9,10.2-2.6
		c2.9-1.8,5.4-4.4,7.3-8.1c2-3.6,3.4-8.2,4.5-13.9h5.4c-1.2,7-3,12.7-5.5,17.1c-2.5,4.4-5.6,7.6-9.3,9.6
		C275.4,153.4,271.2,154.4,266.5,154.4z"/>
	<path d="M309.3,154.4c-3,0-5.5-0.6-7.6-1.7c-2.1-1.1-3.7-3-4.8-5.5c-1.1-2.5-1.6-5.8-1.6-10c0-4.4,0.3-8.8,0.9-13.2
		c0.6-4.4,1.6-8.6,2.8-12.5c1.3-4.2,2.9-7.9,4.8-11.2s4.1-5.9,6.6-7.8c2.5-1.9,5.3-2.8,8.3-2.8c3,0,5.5,0.6,7.6,1.7
		c2.1,1.1,3.7,3,4.8,5.5c1.1,2.5,1.6,5.9,1.6,10.2c0,4.5-0.3,9-0.9,13.5c-0.6,4.5-1.6,8.7-2.9,12.6c-1.3,4.1-2.8,7.7-4.8,10.9
		c-1.9,3.2-4.1,5.7-6.6,7.5C315.1,153.5,312.3,154.4,309.3,154.4z M309.2,149.8c2.8,0,5.4-1.3,7.6-3.9c2.3-2.6,4.2-5.9,5.8-10.1
		c1.6-4.1,2.7-8.5,3.5-13.2c0.3-1.8,0.6-3.6,0.8-5.4c0.2-1.8,0.4-3.6,0.5-5.4c0.1-1.8,0.2-3.4,0.2-5c0-3-0.3-5.4-0.9-7.2
		c-0.6-1.8-1.6-3.2-2.8-4.1c-1.3-0.9-2.9-1.3-4.8-1.3c-2.6,0-5,1.1-7.1,3.4c-2.2,2.2-4,5.2-5.5,8.9c-1.5,3.7-2.8,7.7-3.7,12
		c-0.5,2-0.9,4.1-1.2,6.3c-0.3,2.2-0.5,4.3-0.7,6.4c-0.2,2.1-0.2,4.1-0.2,6c0,3,0.3,5.4,0.9,7.2c0.6,1.8,1.6,3.2,2.9,4.1
		C305.7,149.4,307.3,149.8,309.2,149.8z"/>
	<path d="M331.5,153l14.8-85h5.1l-14.9,85H331.5z"/>
	<path d="M357.2,154.4c-2.5,0-4.6-0.6-6.4-1.8c-1.7-1.2-3-3-3.8-5.5c-0.8-2.5-1.2-5.8-1.2-9.8c0-4.6,0.4-9.4,1.1-14.3
		c0.7-4.9,1.8-9.5,3.2-13.8c1.3-3.7,2.7-7,4.4-10c1.7-3,3.6-5.3,5.9-7c2.2-1.7,4.6-2.5,7.2-2.5c2.3,0,4.1,0.5,5.5,1.4
		c1.4,0.9,2.5,2.1,3.4,3.6c0.9,1.5,1.4,3.1,1.8,4.9h0.6l2.1-8.5h3.6l-2.4,13.6c-0.3,2-0.8,4.7-1.4,7.9c-0.6,3.3-1.2,6.7-1.9,10.5
		c-0.7,3.7-1.3,7.3-1.9,10.7c-0.6,3.4-1.1,6.3-1.5,8.7c-0.4,2.4-0.6,3.9-0.6,4.5c0,0.9,0.1,1.5,0.4,1.9c0.2,0.4,0.9,0.6,1.9,0.6h4
		l-0.6,3.2c-0.7,0.4-1.5,0.7-2.4,1c-0.9,0.3-1.8,0.4-2.6,0.4c-1.3,0-2.5-0.4-3.6-1.1c-1.1-0.7-1.7-2.1-1.9-4.1
		c0-0.6,0.1-1.3,0.2-2.1c0.1-0.7,0.3-1.5,0.4-2.4l-0.5-0.2c-1.2,2.6-2.9,4.9-5.2,7C362.8,153.4,360.1,154.4,357.2,154.4z
		 M357.7,149.8c1.7,0,3.4-0.6,4.9-1.8c1.6-1.2,3-2.9,4.4-4.9c1.3-2.1,2.5-4.5,3.6-7.2c1.1-2.7,1.9-5.6,2.6-8.7
		c0.5-2,0.9-4.1,1.2-6.2c0.4-2.1,0.6-4.2,0.8-6.3c0.2-2.1,0.2-4.1,0.2-6.1c0-3.1-0.3-5.6-0.8-7.8c-0.5-2.1-1.3-3.7-2.5-4.8
		c-1.1-1.1-2.6-1.6-4.4-1.6c-1.7,0-3.4,0.7-5,2.1c-1.6,1.4-3,3.4-4.3,5.9c-1.3,2.5-2.4,5.3-3.4,8.3c-0.9,2.7-1.6,5.7-2.3,8.8
		c-0.7,3.1-1.2,6.1-1.5,9.1c-0.3,3-0.5,5.9-0.5,8.7c0,4.3,0.6,7.5,1.7,9.5C353.8,148.8,355.5,149.8,357.7,149.8z"/>
	<path d="M398.3,154.4c-3.3,0-5.7-1-7.2-2.9c-1.5-2-2.6-4.3-3.2-6.9h-0.6l-2.1,8.5h-3.5l14.8-85h5.1l-5.3,30.1h0.6
		c1.1-1.7,2.3-3.2,3.6-4.5c1.3-1.3,2.7-2.2,4.2-2.9c1.5-0.7,3-1,4.5-1c2.4,0,4.4,0.6,6,1.8c1.6,1.2,2.9,3,3.7,5.5
		c0.8,2.5,1.2,5.8,1.2,9.8c0,2.5-0.1,5-0.3,7.5c-0.2,2.5-0.5,5-0.9,7.5c-0.9,5.9-2.2,11.3-4.1,16.2s-4.2,8.9-7,11.9
		C405,152.9,401.8,154.4,398.3,154.4z M398.1,149.8c2.1,0,4-0.8,5.8-2.5c1.7-1.7,3.3-3.9,4.6-6.8c1.3-2.8,2.5-6,3.4-9.6
		c0.7-2.5,1.3-5.1,1.7-7.8c0.4-2.7,0.8-5.4,1-8.2c0.2-2.7,0.4-5.4,0.4-8c0-2.9-0.2-5.3-0.6-7.1c-0.4-1.8-1.1-3.2-2.1-4.1
		c-1-0.9-2.4-1.4-4-1.4c-1.5,0-2.9,0.5-4.2,1.4c-1.3,0.9-2.6,2.2-3.9,3.9c-1.3,1.6-2.4,3.6-3.4,5.8c-1,2.2-1.9,4.6-2.6,7.2
		c-0.7,2.4-1.3,4.9-1.9,7.5c-0.5,2.6-1,5.2-1.2,7.8c-0.3,2.6-0.4,5.2-0.4,7.7c0,3,0.3,5.5,0.8,7.7c0.5,2.2,1.4,3.8,2.5,4.9
		C394.9,149.3,396.3,149.8,398.1,149.8z"/>
	<path d="M434.4,154.4c-3,0-5.5-0.6-7.6-1.7c-2.1-1.1-3.7-3-4.8-5.5c-1.1-2.5-1.6-5.8-1.6-10c0-4.4,0.3-8.8,0.9-13.2
		c0.6-4.4,1.6-8.6,2.8-12.5c1.3-4.2,2.9-7.9,4.8-11.2s4.1-5.9,6.6-7.8c2.5-1.9,5.3-2.8,8.3-2.8c3,0,5.5,0.6,7.6,1.7
		c2.1,1.1,3.7,3,4.8,5.5c1.1,2.5,1.6,5.9,1.6,10.2c0,4.5-0.3,9-0.9,13.5c-0.6,4.5-1.6,8.7-2.9,12.6c-1.3,4.1-2.8,7.7-4.8,10.9
		c-1.9,3.2-4.1,5.7-6.6,7.5C440.2,153.5,437.5,154.4,434.4,154.4z M434.3,149.8c2.8,0,5.4-1.3,7.6-3.9c2.3-2.6,4.2-5.9,5.8-10.1
		c1.6-4.1,2.7-8.5,3.5-13.2c0.3-1.8,0.6-3.6,0.8-5.4c0.2-1.8,0.4-3.6,0.5-5.4c0.1-1.8,0.2-3.4,0.2-5c0-3-0.3-5.4-0.9-7.2
		c-0.6-1.8-1.6-3.2-2.8-4.1c-1.3-0.9-2.9-1.3-4.8-1.3c-2.6,0-5,1.1-7.1,3.4c-2.2,2.2-4,5.2-5.5,8.9c-1.5,3.7-2.8,7.7-3.7,12
		c-0.5,2-0.9,4.1-1.2,6.3c-0.3,2.2-0.5,4.3-0.7,6.4c-0.2,2.1-0.2,4.1-0.2,6c0,3,0.3,5.4,0.9,7.2c0.6,1.8,1.6,3.2,2.9,4.1
		C430.8,149.4,432.4,149.8,434.3,149.8z"/>
	<path d="M456.5,153l10.9-61.9h3.6l-0.9,8.5h0.6c1.1-2.5,2.3-4.5,3.6-5.9c1.3-1.4,2.7-2.4,4.1-3.1c1.4-0.6,2.8-0.9,4.2-0.9
		c0.4,0,0.7,0,1.1,0c0.3,0,0.6,0.1,0.9,0.2l-1.1,5.9h-2.1c-1.2,0-2.4,0.3-3.8,1c-1.3,0.7-2.6,1.7-3.8,3.1c-1.2,1.4-2.2,3.1-3.2,5.2
		s-1.7,4.7-2.2,7.6l-7.1,40.2H456.5z"/>
	<path d="M487,154.4c-2.5,0-4.6-0.6-6.4-1.8c-1.7-1.2-3-3-3.8-5.5c-0.8-2.5-1.2-5.8-1.2-9.8c0-4.6,0.4-9.4,1.1-14.3
		c0.7-4.9,1.8-9.5,3.2-13.8c1.3-3.7,2.7-7,4.4-10c1.7-3,3.6-5.3,5.9-7c2.2-1.7,4.6-2.5,7.2-2.5c2.3,0,4.1,0.5,5.5,1.4
		c1.4,0.9,2.5,2.1,3.4,3.6c0.9,1.5,1.4,3.1,1.8,4.9h0.6l2.1-8.5h3.6l-2.4,13.6c-0.3,2-0.8,4.7-1.4,7.9c-0.6,3.3-1.2,6.7-1.9,10.5
		c-0.7,3.7-1.3,7.3-1.9,10.7s-1.1,6.3-1.5,8.7c-0.4,2.4-0.6,3.9-0.6,4.5c0,0.9,0.1,1.5,0.4,1.9c0.2,0.4,0.9,0.6,1.9,0.6h4l-0.6,3.2
		c-0.7,0.4-1.5,0.7-2.4,1c-0.9,0.3-1.8,0.4-2.6,0.4c-1.3,0-2.5-0.4-3.6-1.1c-1.1-0.7-1.7-2.1-1.9-4.1c0-0.6,0.1-1.3,0.2-2.1
		c0.1-0.7,0.3-1.5,0.4-2.4l-0.5-0.2c-1.2,2.6-2.9,4.9-5.2,7C492.6,153.4,489.9,154.4,487,154.4z M487.6,149.8c1.7,0,3.4-0.6,4.9-1.8
		c1.6-1.2,3-2.9,4.4-4.9c1.3-2.1,2.5-4.5,3.6-7.2c1.1-2.7,1.9-5.6,2.6-8.7c0.5-2,0.9-4.1,1.2-6.2c0.4-2.1,0.6-4.2,0.8-6.3
		c0.2-2.1,0.2-4.1,0.2-6.1c0-3.1-0.3-5.6-0.8-7.8c-0.5-2.1-1.3-3.7-2.5-4.8c-1.1-1.1-2.6-1.6-4.4-1.6c-1.7,0-3.4,0.7-5,2.1
		c-1.6,1.4-3,3.4-4.3,5.9c-1.3,2.5-2.4,5.3-3.4,8.3c-0.9,2.7-1.6,5.7-2.3,8.8c-0.7,3.1-1.2,6.1-1.5,9.1c-0.3,3-0.5,5.9-0.5,8.7
		c0,4.3,0.6,7.5,1.7,9.5C483.6,148.8,485.3,149.8,487.6,149.8z"/>
</g>
<g>
	<path d="M278.6,286.5c-7.4,0-13.5-1.9-18.2-5.7c-4.7-3.8-8-9.5-10.1-17.3c-2.1-7.7-3.1-17.5-3.1-29.4c0-17.9,2.8-31.1,8.3-39.5
		c5.5-8.4,13.9-12.6,25.1-12.6c6.4,0,11.7,1.4,15.9,4.1c4.2,2.7,7.4,7,9.5,12.7c2.1,5.7,3.2,13.1,3.2,22.1h-12.1
		c0-6-0.5-11-1.6-15.2c-1.1-4.2-2.9-7.3-5.4-9.5c-2.5-2.2-5.9-3.2-10.1-3.2c-4.2,0-7.8,1.3-10.8,3.9c-3,2.6-5.2,6.7-6.8,12.2
		c-1.5,5.5-2.3,12.8-2.3,21.7v7.6c0,8.7,0.7,15.8,2.1,21.3c1.4,5.5,3.6,9.5,6.4,12.1c2.8,2.5,6.4,3.8,10.6,3.8c4.1,0,7.5-1,10.1-3.1
		c2.6-2.1,4.6-5.1,6-9.2c1.3-4.1,2-9.2,2-15.5h11.8c0,9-1.2,16.4-3.5,22c-2.4,5.7-5.8,9.9-10.3,12.6
		C290.7,285.2,285.2,286.5,278.6,286.5z"/>
	<path d="M335.1,286.5c-5.1,0-9.4-1.3-12.9-4c-3.5-2.6-6.1-6.9-7.9-12.9c-1.8-5.9-2.6-13.8-2.6-23.6c0-9.8,0.9-17.7,2.6-23.6
		c1.8-5.9,4.4-10.2,7.9-12.9c3.5-2.7,7.8-4,12.9-4c5.2,0,9.6,1.3,13.1,4c3.5,2.7,6.2,7,7.9,12.9c1.8,5.9,2.6,13.8,2.6,23.6
		c0,9.8-0.9,17.7-2.6,23.6c-1.8,5.9-4.4,10.2-7.9,12.9C344.6,285.2,340.3,286.5,335.1,286.5z M335.1,277c2.9,0,5.3-0.9,7.1-2.7
		c1.8-1.8,3-4.8,3.8-9c0.8-4.2,1.2-9.6,1.2-16.4v-5.6c0-6.9-0.4-12.3-1.2-16.5c-0.8-4.1-2.1-7.1-3.8-9c-1.8-1.9-4.1-2.8-7.1-2.8
		c-2.7,0-5,0.9-6.8,2.8c-1.8,1.9-3.1,4.9-3.9,9c-0.8,4.1-1.2,9.6-1.2,16.5v5.6c0,6.8,0.4,12.2,1.2,16.4c0.8,4.2,2.1,7.2,3.9,9
		C330.1,276.1,332.3,277,335.1,277z"/>
	<path d="M363.9,284.8V178.3h11v106.4H363.9z"/>
	<path d="M396.5,286.5c-2.6,0-5-0.4-7.1-1.3c-2.1-0.9-3.9-2.2-5.4-3.9c-1.5-1.7-2.6-3.9-3.3-6.5c-0.7-2.6-1.1-5.6-1.1-9
		c0-3.6,0.5-7,1.5-10.1c1-3.1,2.8-5.9,5.2-8.3c2.4-2.4,5.9-4.3,10.2-5.6c4.4-1.3,9.8-2,16.4-2v-12.2c0-2.7-0.3-5-1-6.8
		c-0.6-1.8-1.7-3.2-3.2-4.2c-1.5-1-3.3-1.5-5.6-1.5c-3,0-5.3,0.7-6.8,2c-1.5,1.3-2.5,3.1-2.9,5.3c-0.5,2.2-0.7,4.6-0.7,7.3v1h-10.4
		c-0.1-0.4-0.1-0.8-0.1-1.3c0-0.5,0-1,0-1.6c0-5.6,1-10,2.9-13.2c2-3.2,4.6-5.5,7.8-6.9c3.2-1.4,6.9-2.1,10.9-2.1
		c4,0,7.5,0.7,10.5,2c3,1.3,5.3,3.6,7.1,6.8c1.7,3.2,2.6,7.8,2.6,13.7v43.8c0,1.7,0.3,2.9,1,3.7c0.6,0.8,1.5,1.2,2.6,1.2h4.4v7.3
		c-1.3,0.6-2.7,1.1-4.3,1.5c-1.6,0.4-3.2,0.7-4.9,0.7c-2.1,0-3.7-0.5-5.1-1.5s-2.3-2.3-2.9-4c-0.6-1.7-0.9-3.5-1-5.4H413
		c-1,2.1-2.2,3.9-3.7,5.6c-1.5,1.7-3.3,3-5.4,4C401.8,286,399.4,286.5,396.5,286.5z M400,277c1.5,0,3-0.4,4.5-1.2
		c1.5-0.8,2.9-2,4.2-3.7c1.3-1.7,2.3-3.7,3.1-6.2c0.8-2.5,1.2-5.5,1.2-8.9v-9.4c-6.1,0-10.7,0.8-13.8,2.3c-3.1,1.5-5.3,3.5-6.4,6
		c-1.1,2.5-1.7,5.3-1.7,8.3c0,2.8,0.3,5.2,1,7.1c0.7,1.9,1.7,3.3,3,4.3C396.4,276.5,398.1,277,400,277z"/>
	<path d="M458,286.5c-4.1,0-7.4-1.2-9.9-3.5c-2.5-2.4-4.2-5.1-5.2-8.2h-0.7l-0.9,10h-8.7V178.3h11v37.8h0.7c0.9-2.4,2-4.3,3.2-5.8
		c1.3-1.5,2.8-2.7,4.6-3.5c1.8-0.8,3.8-1.2,6-1.2c4.3,0,7.8,1.4,10.6,4.1c2.7,2.7,4.8,7,6.1,12.9c1.3,5.8,2,13.6,2,23.3
		c0,10-0.7,18-2.1,24c-1.4,6-3.5,10.3-6.2,12.9C465.7,285.2,462.2,286.5,458,286.5z M454.7,276.5c2.6,0,4.8-1,6.3-2.9
		c1.6-2,2.7-5,3.3-9.1c0.6-4.1,1-9.4,1-15.7v-5c0-6.6-0.4-11.9-1.1-15.9c-0.7-4.1-1.8-7.1-3.3-9s-3.4-2.9-5.9-2.9
		c-1.9,0-3.5,0.6-5,1.7c-1.5,1.1-2.7,2.8-3.6,5.1c-0.9,2.3-1.6,5.1-2.1,8.6c-0.5,3.5-0.7,7.6-0.7,12.4v5c0,6,0.4,11,1.1,15.1
		c0.7,4.1,1.9,7.3,3.6,9.4C449.9,275.5,452.1,276.5,454.7,276.5z"/>
	<path d="M503.1,286.5c-5.1,0-9.4-1.3-12.9-4c-3.5-2.6-6.1-6.9-7.9-12.9c-1.8-5.9-2.6-13.8-2.6-23.6c0-9.8,0.9-17.7,2.6-23.6
		c1.8-5.9,4.4-10.2,7.9-12.9c3.5-2.7,7.8-4,12.9-4c5.2,0,9.6,1.3,13.1,4c3.5,2.7,6.2,7,7.9,12.9c1.8,5.9,2.6,13.8,2.6,23.6
		c0,9.8-0.9,17.7-2.6,23.6c-1.8,5.9-4.4,10.2-7.9,12.9C512.6,285.2,508.3,286.5,503.1,286.5z M503.1,277c2.9,0,5.3-0.9,7.1-2.7
		c1.8-1.8,3-4.8,3.8-9c0.8-4.2,1.2-9.6,1.2-16.4v-5.6c0-6.9-0.4-12.3-1.2-16.5c-0.8-4.1-2.1-7.1-3.8-9c-1.8-1.9-4.1-2.8-7.1-2.8
		c-2.7,0-5,0.9-6.8,2.8c-1.8,1.9-3.1,4.9-3.9,9c-0.8,4.1-1.2,9.6-1.2,16.5v5.6c0,6.8,0.4,12.2,1.2,16.4c0.8,4.2,2.1,7.2,3.9,9
		C498.1,276.1,500.3,277,503.1,277z"/>
	<path d="M531.9,284.8v-77.5h8.8l0.9,10.6h0.7c1-2.9,2.1-5.3,3.4-7.1c1.3-1.8,2.7-3.1,4.2-4c1.5-0.9,3.2-1.3,4.9-1.3
		c0.6,0,1.2,0.1,1.7,0.1c0.5,0.1,1.1,0.2,1.5,0.4v12.2h-4.1c-1.4,0-2.7,0.4-4.1,1.1c-1.4,0.7-2.6,1.9-3.6,3.5
		c-1,1.6-1.8,3.7-2.4,6.3c-0.6,2.6-0.9,5.8-0.9,9.6v46H531.9z"/>
	<path d="M571.3,286.5c-2.6,0-5-0.4-7.1-1.3c-2.1-0.9-3.9-2.2-5.4-3.9c-1.5-1.7-2.6-3.9-3.3-6.5c-0.7-2.6-1.1-5.6-1.1-9
		c0-3.6,0.5-7,1.5-10.1c1-3.1,2.8-5.9,5.2-8.3c2.4-2.4,5.9-4.3,10.2-5.6c4.4-1.3,9.8-2,16.4-2v-12.2c0-2.7-0.3-5-1-6.8
		c-0.6-1.8-1.7-3.2-3.2-4.2c-1.5-1-3.3-1.5-5.6-1.5c-3,0-5.3,0.7-6.8,2c-1.5,1.3-2.5,3.1-2.9,5.3c-0.5,2.2-0.7,4.6-0.7,7.3v1h-10.4
		c-0.1-0.4-0.1-0.8-0.1-1.3c0-0.5,0-1,0-1.6c0-5.6,1-10,2.9-13.2c2-3.2,4.6-5.5,7.8-6.9c3.2-1.4,6.9-2.1,10.9-2.1
		c4,0,7.5,0.7,10.5,2c3,1.3,5.3,3.6,7.1,6.8c1.7,3.2,2.6,7.8,2.6,13.7v43.8c0,1.7,0.3,2.9,1,3.7c0.6,0.8,1.5,1.2,2.6,1.2h4.4v7.3
		c-1.3,0.6-2.7,1.1-4.3,1.5c-1.6,0.4-3.2,0.7-4.9,0.7c-2.1,0-3.7-0.5-5.1-1.5s-2.3-2.3-2.9-4c-0.6-1.7-0.9-3.5-1-5.4h-0.9
		c-1,2.1-2.2,3.9-3.7,5.6c-1.5,1.7-3.3,3-5.4,4S574.1,286.5,571.3,286.5z M574.8,277c1.5,0,3-0.4,4.5-1.2c1.5-0.8,2.9-2,4.2-3.7
		c1.3-1.7,2.3-3.7,3.1-6.2c0.8-2.5,1.2-5.5,1.2-8.9v-9.4c-6.1,0-10.7,0.8-13.8,2.3c-3.1,1.5-5.3,3.5-6.4,6c-1.1,2.5-1.7,5.3-1.7,8.3
		c0,2.8,0.3,5.2,1,7.1c0.7,1.9,1.7,3.3,3,4.3C571.2,276.5,572.8,277,574.8,277z"/>
</g>
<g>
	<path d="M280.7,437.3c-11.4,0-19.7-3-24.9-8.9c-5.2-5.9-7.8-15-7.8-27.1c0-4.3,0.3-9.1,0.9-14.4c0.6-5.2,1.5-10.7,2.6-16.5
		c2.4-12.7,5.6-23.4,9.8-32.1c4.2-8.7,9.5-15.3,16-19.8c6.5-4.5,14.3-6.7,23.5-6.7c6.3,0,11.7,1.1,16.1,3.3
		c4.4,2.2,7.8,5.5,10.1,9.9c2.4,4.4,3.5,10,3.5,16.8c0,2.6-0.1,5.3-0.4,8.2c-0.3,2.9-0.7,6-1.3,9.3h-16.9c0.5-2.8,0.8-5.4,1.1-7.8
		c0.2-2.4,0.4-4.6,0.4-6.7c0-3.9-0.5-7.1-1.5-9.7c-1-2.6-2.6-4.6-4.7-5.9c-2.1-1.4-4.9-2-8.5-2c-3.5,0-6.8,0.8-9.7,2.5
		c-2.9,1.6-5.6,4.2-8.1,7.6c-2.5,3.4-4.6,7.8-6.5,13.1c-1.9,5.4-3.5,11.8-4.8,19.5c-0.8,4.6-1.5,8.5-2,11.8
		c-0.5,3.3-0.9,6.1-1.2,8.4c-0.3,2.3-0.5,4.3-0.6,5.9c-0.1,1.6-0.2,3.2-0.2,4.6c0,4.9,0.6,9,1.8,12.2c1.2,3.2,2.9,5.5,5.3,7
		c2.4,1.5,5.2,2.2,8.6,2.2c4.6,0,8.5-1.1,11.8-3.4c3.3-2.3,6.1-5.8,8.4-10.5c2.3-4.7,4.1-10.6,5.4-17.8h16.6
		c-1.9,11.1-4.7,20.1-8.6,27c-3.8,6.9-8.6,12-14.3,15.3C294.8,435.7,288.2,437.3,280.7,437.3z"/>
	<path d="M347.9,437.3c-5.3,0-9.7-0.9-13.3-2.8c-3.6-1.9-6.3-4.9-8-9c-1.8-4.1-2.6-9.4-2.6-15.9c0-3.9,0.2-8,0.6-12.3
		c0.4-4.3,1.1-8.8,2.2-13.4c2-10.1,4.6-18.4,7.8-24.8c3.2-6.4,7.1-11.2,11.7-14.3c4.6-3.1,10-4.7,16-4.7c5.4,0,9.9,0.9,13.5,2.8
		c3.6,1.9,6.3,4.9,8.1,8.9c1.8,4.1,2.7,9.4,2.7,16.1c0,3.9-0.3,8-0.8,12.4s-1.3,8.9-2.2,13.5c-1.9,10-4.5,18.2-7.8,24.6
		c-3.3,6.4-7.2,11.1-11.8,14.2C359.3,435.8,354,437.3,347.9,437.3z M348.7,424.1c3.2,0,5.9-1.1,8.3-3.4c2.4-2.2,4.4-5.6,6.2-10.2
		c1.8-4.6,3.2-10.3,4.4-17.3c0.8-5.2,1.5-9.4,1.9-12.6c0.5-3.2,0.8-5.9,1-8c0.2-2.1,0.3-3.9,0.3-5.5c0-3.3-0.3-5.9-1-7.9
		c-0.6-2-1.7-3.5-3.1-4.4c-1.4-0.9-3.2-1.4-5.5-1.4c-2.9,0-5.6,1.1-7.9,3.3c-2.4,2.2-4.4,5.5-6,9.9c-1.6,4.4-3.1,10-4.4,16.8
		c-0.9,5.2-1.7,9.5-2.3,13c-0.6,3.5-1,6.3-1.1,8.6c-0.2,2.2-0.3,4.2-0.3,6c0,3.1,0.4,5.6,1.1,7.6c0.7,2,1.8,3.4,3.2,4.3
		C344.9,423.7,346.6,424.1,348.7,424.1z"/>
	<path d="M381.7,435.2L404,307.5h15.7l-22.4,127.7H381.7z"/>
	<path d="M426.2,437.3c-3.9,0-7.2-0.9-9.9-2.8c-2.7-1.9-4.7-4.7-6-8.5c-1.3-3.8-1.9-8.5-1.9-14.3c0-4.5,0.3-9.1,0.8-14
		c0.5-4.9,1.4-9.8,2.6-14.9c1.6-8.3,3.8-15.7,6.4-22c2.6-6.3,5.9-11.3,9.7-15c3.8-3.6,8.3-5.5,13.5-5.5c3.4,0,6.2,0.6,8.4,1.9
		c2.2,1.2,3.9,2.9,5.2,4.9c1.3,2.1,2.3,4.4,3,7.1h0.9l4.2-12h11.5l-4.2,23.3c-0.5,2.9-1.1,6.6-1.9,10.9c-0.8,4.4-1.6,8.9-2.5,13.8
		c-0.8,4.8-1.6,9.4-2.4,13.8c-0.8,4.4-1.4,8-1.9,11c-0.5,3-0.7,4.9-0.7,5.6c0,1.3,0.3,2.3,0.8,2.9c0.5,0.6,1.4,1,2.6,1h5.5
		l-1.9,10.2c-1.4,0.7-3,1.3-4.8,1.9c-1.8,0.5-3.5,0.8-5.1,0.8c-2.9,0-5.5-0.8-7.6-2.5c-2.1-1.6-3.2-4.5-3.2-8.6c0-0.5,0-1,0.1-1.5
		c0.1-0.5,0.1-1.1,0.3-1.7l-0.7-0.4c-1.9,3.8-4.6,7.1-8,10.1C435.3,435.8,431.1,437.3,426.2,437.3z M432.3,422.5
		c2,0,3.9-0.6,5.6-1.9c1.8-1.3,3.4-3.2,4.9-5.7c1.5-2.5,2.9-5.6,4.1-9.3c1.2-3.6,2.3-7.8,3.3-12.3c0.8-4.7,1.4-8.6,1.9-11.6
		c0.4-3,0.7-5.5,0.9-7.6c0.2-2.1,0.3-3.9,0.3-5.6c0-3.2-0.3-5.8-0.9-7.9c-0.6-2.1-1.5-3.7-2.8-4.8c-1.3-1.1-3-1.6-5.1-1.6
		c-2.5,0-4.7,1-6.7,2.9c-2,1.9-3.7,4.9-5.2,8.7c-1.5,3.9-2.9,8.8-4.1,14.6c-1.1,5.1-1.9,9.3-2.5,12.8c-0.6,3.5-1,6.4-1.2,8.9
		c-0.2,2.5-0.4,4.8-0.4,6.9c0,4.6,0.6,8,1.9,10.1C427.6,421.4,429.6,422.5,432.3,422.5z"/>
	<path d="M500.1,437.3c-5.3,0-9.3-1.4-11.9-4.1s-4.3-6-5-9.8h-0.9l-3.2,11.8h-12.3L489,307.5h15.5l-7.9,45.2h0.9
		c1.4-2.6,3.1-4.8,4.9-6.7c1.9-1.9,3.9-3.3,6.2-4.3c2.2-1,4.5-1.5,6.9-1.5c3.9,0,7.1,0.9,9.7,2.6c2.6,1.7,4.5,4.3,5.8,7.8
		c1.3,3.5,1.9,8,1.9,13.5c0,3.4-0.2,7.2-0.5,11.3c-0.4,4.1-0.9,8.5-1.8,13.1c-1.8,11.1-4.1,20.2-7.1,27.4
		c-2.9,7.2-6.3,12.6-10.2,16.2C509.4,435.5,505,437.3,500.1,437.3z M496.4,423.4c2.8,0,5.2-1,7.2-3.1c2-2.1,3.8-5.1,5.3-9.2
		c1.5-4.1,2.9-9.1,4.1-15.1c0.9-5.1,1.7-9.2,2.2-12.5c0.5-3.3,0.9-6.1,1.1-8.6c0.2-2.4,0.3-4.6,0.3-6.6c0-3.1-0.3-5.6-0.8-7.6
		c-0.5-2-1.4-3.5-2.6-4.4c-1.2-0.9-2.7-1.4-4.6-1.4c-1.9,0-3.6,0.6-5.3,1.9c-1.6,1.2-3.2,3-4.8,5.4c-1.5,2.4-2.9,5.2-4.1,8.6
		c-1.2,3.4-2.2,7.4-3.2,11.8c-0.9,4.8-1.7,8.8-2.2,12s-0.9,5.9-1.1,8.1c-0.2,2.2-0.3,4.3-0.3,6.2c0,3.1,0.3,5.7,0.9,7.8
		c0.6,2.2,1.5,3.8,2.8,4.9C492.7,422.8,494.4,423.4,496.4,423.4z"/>
	<path d="M554.8,437.3c-5.3,0-9.7-0.9-13.3-2.8c-3.6-1.9-6.3-4.9-8-9c-1.8-4.1-2.6-9.4-2.6-15.9c0-3.9,0.2-8,0.6-12.3
		c0.4-4.3,1.1-8.8,2.2-13.4c2-10.1,4.6-18.4,7.8-24.8c3.2-6.4,7.1-11.2,11.7-14.3c4.6-3.1,10-4.7,16-4.7c5.4,0,9.9,0.9,13.5,2.8
		c3.6,1.9,6.3,4.9,8.1,8.9c1.8,4.1,2.7,9.4,2.7,16.1c0,3.9-0.3,8-0.8,12.4s-1.3,8.9-2.2,13.5c-1.9,10-4.5,18.2-7.8,24.6
		c-3.3,6.4-7.2,11.1-11.8,14.2C566.2,435.8,560.9,437.3,554.8,437.3z M555.6,424.1c3.2,0,5.9-1.1,8.3-3.4c2.4-2.2,4.4-5.6,6.2-10.2
		c1.8-4.6,3.2-10.3,4.4-17.3c0.8-5.2,1.5-9.4,1.9-12.6c0.5-3.2,0.8-5.9,1-8c0.2-2.1,0.3-3.9,0.3-5.5c0-3.3-0.3-5.9-1-7.9
		c-0.6-2-1.7-3.5-3.1-4.4c-1.4-0.9-3.2-1.4-5.5-1.4c-2.9,0-5.6,1.1-7.9,3.3c-2.4,2.2-4.4,5.5-6,9.9c-1.6,4.4-3.1,10-4.4,16.8
		c-0.9,5.2-1.7,9.5-2.3,13c-0.6,3.5-1,6.3-1.1,8.6c-0.2,2.2-0.3,4.2-0.3,6c0,3.1,0.4,5.6,1.1,7.6c0.7,2,1.8,3.4,3.2,4.3
		C551.8,423.7,553.5,424.1,555.6,424.1z"/>
	<path d="M588.4,435.2l16.2-93h12l-0.4,12.7h0.7c1.6-3.4,3.4-6.2,5.3-8.3c1.9-2.1,3.9-3.7,5.9-4.9c2.1-1.1,4.1-1.7,6.3-1.7
		c0.8,0,1.6,0.1,2.3,0.2c0.7,0.1,1.4,0.4,2.1,0.7l-3.2,17.3h-5.5c-1.9,0-3.7,0.5-5.4,1.4c-1.7,0.9-3.3,2.4-4.8,4.3
		c-1.5,1.9-2.8,4.5-4,7.6c-1.2,3.1-2.2,6.8-3,11l-9.3,52.6H588.4z"/>
	<path d="M641.7,437.3c-3.9,0-7.2-0.9-9.9-2.8c-2.7-1.9-4.7-4.7-6-8.5c-1.3-3.8-1.9-8.5-1.9-14.3c0-4.5,0.3-9.1,0.8-14
		c0.5-4.9,1.4-9.8,2.6-14.9c1.6-8.3,3.8-15.7,6.4-22c2.6-6.3,5.9-11.3,9.7-15c3.8-3.6,8.3-5.5,13.5-5.5c3.4,0,6.2,0.6,8.4,1.9
		c2.2,1.2,3.9,2.9,5.2,4.9c1.3,2.1,2.3,4.4,3,7.1h0.9l4.2-12H690l-4.2,23.3c-0.5,2.9-1.1,6.6-1.9,10.9c-0.8,4.4-1.6,8.9-2.5,13.8
		c-0.8,4.8-1.6,9.4-2.4,13.8c-0.8,4.4-1.4,8-1.9,11c-0.5,3-0.7,4.9-0.7,5.6c0,1.3,0.3,2.3,0.8,2.9c0.5,0.6,1.4,1,2.6,1h5.5
		l-1.9,10.2c-1.4,0.7-3,1.3-4.8,1.9c-1.8,0.5-3.5,0.8-5.1,0.8c-2.9,0-5.5-0.8-7.6-2.5c-2.1-1.6-3.2-4.5-3.2-8.6c0-0.5,0-1,0.1-1.5
		c0.1-0.5,0.1-1.1,0.3-1.7l-0.7-0.4c-1.9,3.8-4.6,7.1-8,10.1C650.9,435.8,646.7,437.3,641.7,437.3z M647.9,422.5
		c2,0,3.9-0.6,5.6-1.9c1.8-1.3,3.4-3.2,4.9-5.7c1.5-2.5,2.9-5.6,4.1-9.3c1.2-3.6,2.3-7.8,3.3-12.3c0.8-4.7,1.4-8.6,1.9-11.6
		c0.4-3,0.7-5.5,0.9-7.6c0.2-2.1,0.3-3.9,0.3-5.6c0-3.2-0.3-5.8-0.9-7.9c-0.6-2.1-1.5-3.7-2.8-4.8c-1.3-1.1-3-1.6-5.1-1.6
		c-2.5,0-4.7,1-6.7,2.9c-2,1.9-3.7,4.9-5.2,8.7c-1.5,3.9-2.9,8.8-4.1,14.6c-1.1,5.1-1.9,9.3-2.5,12.8c-0.6,3.5-1,6.4-1.2,8.9
		c-0.2,2.5-0.4,4.8-0.4,6.9c0,4.6,0.6,8,1.9,10.1C643.2,421.4,645.2,422.5,647.9,422.5z"/>
</g>
<g>
	<path d="M294.7,612.6c-11.3,0-20.2-2.6-27-7.9c-6.7-5.3-11.6-13.3-14.5-24.2c-3-10.8-4.4-24.6-4.4-41.2c0-25.1,3.9-43.6,11.6-55.4
		c7.7-11.8,20.1-17.7,37.1-17.7c9.2,0,16.9,1.9,23,5.8c6.2,3.8,10.8,10,14,18.4c3.2,8.4,4.7,19.4,4.7,33h-25.9
		c0-7.3-0.5-13.5-1.5-18.6c-1-5.1-2.8-9-5.4-11.6c-2.5-2.6-6.1-3.9-10.6-3.9c-4.5,0-8.3,1.4-11.2,4.3c-3,2.9-5.1,7.3-6.5,13.2
		c-1.4,5.9-2.1,13.6-2.1,23v19.5c0,9.3,0.6,16.9,2,22.8c1.3,5.9,3.4,10.2,6.3,13c2.9,2.7,6.6,4.1,11.1,4.1c4.4,0,8-1.2,10.7-3.7
		c2.7-2.5,4.7-6.2,5.9-11.1c1.2-4.9,1.7-11.2,1.7-18.7h25.3c0,13.4-1.7,24.4-5.1,32.7c-3.4,8.4-8.4,14.5-15,18.3
		C312.4,610.6,304.3,612.6,294.7,612.6z"/>
	<path d="M377.2,612.6c-8.2,0-15-1.9-20.4-5.8c-5.4-3.8-9.4-9.9-12-18.3c-2.7-8.4-4-19.2-4-32.5c0-13.4,1.3-24.3,4-32.7
		c2.7-8.4,6.7-14.5,12-18.3c5.4-3.8,12.1-5.8,20.4-5.8c8.1,0,14.8,1.9,20.3,5.8c5.4,3.8,9.5,9.9,12.2,18.3
		c2.7,8.4,4.1,19.3,4.1,32.7c0,13.3-1.4,24.1-4.1,32.5c-2.7,8.4-6.8,14.5-12.2,18.3C392.1,610.6,385.3,612.6,377.2,612.6z
		 M377.2,592.8c3,0,5.4-0.9,7.1-2.8c1.7-1.9,2.9-4.9,3.7-9.2c0.8-4.2,1.1-10,1.1-17.3v-15.4c0-7.3-0.4-13-1.1-17.3
		c-0.8-4.3-2-7.3-3.7-9.2c-1.7-1.9-4.1-2.8-7.1-2.8c-2.9,0-5.2,0.9-7,2.8c-1.8,1.9-3,4.9-3.7,9.2c-0.7,4.3-1,10-1,17.3v15.4
		c0,7.3,0.3,13,1,17.3c0.7,4.3,1.9,7.3,3.7,9.2C372,591.9,374.4,592.8,377.2,592.8z"/>
	<path d="M418.2,610.1v-149h23.7v149H418.2z"/>
	<path d="M470,612.6c-3.8,0-7.3-0.6-10.3-1.9c-3-1.2-5.6-3.1-7.7-5.6c-2.1-2.5-3.7-5.6-4.7-9.4c-1-3.8-1.5-8.1-1.5-12.9
		c0-5.5,0.8-10.5,2.5-15c1.6-4.5,4.3-8.5,7.8-11.8c3.6-3.4,8.3-5.9,14.3-7.7c6-1.8,13.1-2.7,21.5-2.7v-13.6c0-2.7-0.3-5.1-1-7
		c-0.7-1.9-1.8-3.4-3.3-4.5c-1.5-1.1-3.3-1.6-5.3-1.6c-2.9,0-5.1,0.7-6.6,2c-1.5,1.3-2.5,3-3,5.1c-0.5,2.1-0.7,4.5-0.7,7.1v1.9
		h-22.4c-0.1-0.5-0.2-1.1-0.2-1.7s0-1.3,0-2c0-7.4,1.4-13.5,4.3-18.2c2.9-4.7,6.9-8.2,12-10.5c5.1-2.3,11.1-3.4,17.8-3.4
		c6.2,0,11.7,1,16.5,2.9c4.8,1.9,8.6,5.3,11.4,10.3c2.8,4.9,4.2,11.9,4.2,21v52.5c0,2.2,0.4,3.9,1.3,5c0.9,1.2,2.3,1.8,4.2,1.8h4.5
		v16.3c-2.2,1.1-4.7,2-7.4,2.6c-2.7,0.6-5.5,0.9-8.2,0.9c-3.3,0-6.1-0.6-8.3-1.7s-4-2.8-5.2-4.9c-1.2-2.1-2-4.5-2.3-7.1h-1
		c-1.4,2.6-3.1,4.9-5.1,7s-4.5,3.7-7.4,5C477.7,611.9,474.2,612.6,470,612.6z M479.5,592.8c1.6,0,3.2-0.5,4.7-1.5
		c1.5-1,2.8-2.5,4-4.3c1.2-1.9,2.1-4.1,2.7-6.7c0.6-2.6,0.9-5.6,0.9-9.1v-10.9c-6.2,0-10.8,0.8-13.9,2.5s-5.1,3.9-6.2,6.7
		c-1,2.8-1.5,5.9-1.5,9.4c0,3,0.3,5.6,1,7.6c0.7,2.1,1.7,3.6,3.1,4.7C475.7,592.3,477.4,592.8,479.5,592.8z"/>
	<path d="M567.8,612.6c-5.9,0-10.5-1.5-13.9-4.6c-3.4-3.1-5.9-6.8-7.5-11h-1l-1.6,13.2h-19.3v-149H548v52.7h1c1.1-3,2.5-5.6,4.3-7.8
		c1.8-2.2,3.9-3.9,6.5-5c2.5-1.2,5.5-1.8,9-1.8c6.2,0,11.1,1.9,14.9,5.8c3.8,3.8,6.5,9.8,8.3,18c1.8,8.2,2.7,18.8,2.7,32
		c0,13.4-0.9,24.4-2.8,32.8c-1.9,8.4-4.7,14.7-8.6,18.7S574.2,612.6,567.8,612.6z M559.3,591.2c2.7,0,4.9-1,6.4-2.9
		c1.5-1.9,2.6-4.9,3.3-9.1c0.7-4.1,1-9.5,1-16.1V550c0-6.7-0.3-12.1-1-16.3c-0.7-4.1-1.8-7.1-3.4-9.1c-1.6-1.9-3.7-2.9-6.3-2.9
		c-1.9,0-3.6,0.5-5.1,1.6c-1.5,1.1-2.7,2.8-3.6,5c-0.9,2.3-1.5,5.2-2,8.7c-0.4,3.6-0.6,7.8-0.6,12.8v13.2c0,6.2,0.3,11.4,1,15.5
		c0.7,4.2,1.9,7.3,3.5,9.4C554.2,590.1,556.5,591.2,559.3,591.2z"/>
	<path d="M632.4,612.6c-8.2,0-15-1.9-20.4-5.8c-5.4-3.8-9.4-9.9-12-18.3c-2.7-8.4-4-19.2-4-32.5c0-13.4,1.3-24.3,4-32.7
		c2.7-8.4,6.7-14.5,12-18.3c5.3-3.8,12.1-5.8,20.4-5.8c8.1,0,14.8,1.9,20.3,5.8c5.4,3.8,9.5,9.9,12.2,18.3
		c2.7,8.4,4.1,19.3,4.1,32.7c0,13.3-1.4,24.1-4.1,32.5c-2.7,8.4-6.8,14.5-12.2,18.3C647.2,610.6,640.5,612.6,632.4,612.6z
		 M632.4,592.8c3,0,5.4-0.9,7.1-2.8c1.7-1.9,2.9-4.9,3.7-9.2c0.8-4.2,1.1-10,1.1-17.3v-15.4c0-7.3-0.4-13-1.1-17.3
		c-0.8-4.3-2-7.3-3.7-9.2c-1.7-1.9-4.1-2.8-7.1-2.8c-2.9,0-5.2,0.9-7,2.8c-1.8,1.9-3,4.9-3.7,9.2c-0.7,4.3-1,10-1,17.3v15.4
		c0,7.3,0.3,13,1,17.3c0.7,4.3,1.9,7.3,3.7,9.2C627.2,591.9,629.5,592.8,632.4,592.8z"/>
	<path d="M673.3,610.1V501.6h20l1.4,14.6h0.8c1.2-3.7,2.7-6.8,4.3-9.4c1.6-2.5,3.5-4.5,5.7-5.8c2.1-1.3,4.5-2,7.1-2c1,0,2,0.1,3,0.2
		c1,0.1,2,0.4,3,0.8v25.5h-8c-2.3,0-4.4,0.5-6.1,1.6c-1.7,1.1-3.1,2.7-4.2,4.9c-1.1,2.2-1.9,5-2.5,8.5c-0.5,3.5-0.8,7.6-0.8,12.5
		v56.8H673.3z"/>
	<path d="M736.3,612.6c-3.8,0-7.3-0.6-10.3-1.9c-3-1.2-5.6-3.1-7.7-5.6c-2.1-2.5-3.7-5.6-4.7-9.4c-1-3.8-1.5-8.1-1.5-12.9
		c0-5.5,0.8-10.5,2.5-15c1.6-4.5,4.3-8.5,7.8-11.8c3.6-3.4,8.3-5.9,14.3-7.7c6-1.8,13.1-2.7,21.5-2.7v-13.6c0-2.7-0.3-5.1-1-7
		c-0.7-1.9-1.8-3.4-3.3-4.5c-1.5-1.1-3.3-1.6-5.3-1.6c-2.9,0-5.1,0.7-6.6,2c-1.5,1.3-2.5,3-3,5.1c-0.5,2.1-0.7,4.5-0.7,7.1v1.9
		h-22.4c-0.1-0.5-0.2-1.1-0.2-1.7s0-1.3,0-2c0-7.4,1.4-13.5,4.3-18.2c2.9-4.7,6.9-8.2,12-10.5c5.1-2.3,11.1-3.4,17.8-3.4
		c6.2,0,11.7,1,16.5,2.9c4.8,1.9,8.6,5.3,11.4,10.3c2.8,4.9,4.2,11.9,4.2,21v52.5c0,2.2,0.4,3.9,1.3,5c0.9,1.2,2.3,1.8,4.2,1.8h4.5
		v16.3c-2.2,1.1-4.7,2-7.4,2.6c-2.7,0.6-5.5,0.9-8.2,0.9c-3.3,0-6.1-0.6-8.3-1.7s-4-2.8-5.2-4.9c-1.2-2.1-2-4.5-2.3-7.1h-1
		c-1.4,2.6-3.1,4.9-5.1,7s-4.5,3.7-7.4,5C743.9,611.9,740.4,612.6,736.3,612.6z M745.8,592.8c1.6,0,3.2-0.5,4.7-1.5
		c1.5-1,2.8-2.5,4-4.3c1.2-1.9,2.1-4.1,2.7-6.7c0.6-2.6,0.9-5.6,0.9-9.1v-10.9c-6.2,0-10.8,0.8-13.9,2.5s-5.1,3.9-6.2,6.7
		c-1,2.8-1.5,5.9-1.5,9.4c0,3,0.3,5.6,1,7.6c0.7,2.1,1.7,3.6,3.1,4.7C742,592.3,743.7,592.8,745.8,592.8z"/>
</g>
<rect x="172.5" width="33.9" height="682.5"/>
<rect x="425.9" y="231.8" transform="matrix(-7.000708e-07 -1 1 -7.000708e-07 -256.5756 1142.1931)" width="33.9" height="935.2"/>
<rect x="425.9" y="276.4" transform="matrix(-7.000709e-07 -1 1 -7.000709e-07 -301.1362 1186.7539)" class="st0" width="33.9" height="935.2"/>
<rect x="425.9" y="320.9" transform="matrix(-7.000712e-07 -1 1 -7.000712e-07 -345.6969 1231.3147)" class="st1" width="33.9" height="935.2"/>
<rect x="425.9" y="365.5" transform="matrix(-1.459337e-06 -1 1 -1.459337e-06 -390.2562 1275.8771)" width="33.9" height="935.2"/>
<rect x="83.4" class="st1" width="33.9" height="783.3"/>
<rect x="128" class="st0" width="33.9" height="736.9"/>
<rect x="37.4" width="35.3" height="685.3"/>
</svg>
