<?xml version="1.0" encoding="utf-8"?>
<!-- Generator: Adobe Illustrator 26.0.1, SVG Export Plug-In . SVG Version: 6.00 Build 0)  -->
<svg version="1.1" id="Capa_1" xmlns="http://www.w3.org/2000/svg" xmlns:xlink="http://www.w3.org/1999/xlink" x="0px" y="0px"
	 viewBox="0 0 1920 900" style="enable-background:new 0 0 1920 900;" xml:space="preserve">
<style type="text/css">
	.st0{fill:#AFEEEE;}
	.st1{fill:#739BC6;}
</style>
<g>
	<path d="M331.3,163.7c-7.1,0-12.4-2.1-15.9-6.3c-3.5-4.2-5.2-10.6-5.2-19.2c0-3.9,0.3-8.2,0.9-13c0.6-4.8,1.5-9.6,2.7-14.4
		c1.7-6.8,4-12.9,6.7-18.2c2.7-5.3,6.1-9.5,10.3-12.6c4.2-3.1,9.3-4.7,15.5-4.7c4.4,0,8.1,0.8,11,2.4c2.9,1.6,5.1,3.9,6.5,6.8
		c1.4,3,2.1,6.6,2.1,10.8c0,1.7-0.1,3.5-0.2,5.4c-0.2,1.9-0.5,3.9-0.9,6h-5.8c0.3-1.9,0.6-3.7,0.7-5.3c0.2-1.7,0.2-3.2,0.2-4.7
		c0-3.5-0.5-6.4-1.5-8.7c-1-2.3-2.5-4.1-4.6-5.3c-2.1-1.2-4.8-1.8-8.1-1.8c-3.2,0-6.2,0.7-9,2.2c-2.8,1.5-5.4,3.8-7.8,6.9
		c-2.4,3.2-4.5,7.3-6.3,12.4c-1.8,5.1-3.4,11.3-4.7,18.6c-0.2,1.6-0.5,3.1-0.7,4.7c-0.2,1.5-0.4,3-0.6,4.3c-0.1,1.3-0.2,2.6-0.3,3.9
		c-0.1,1.3-0.1,2.5-0.1,3.7c0,4.8,0.6,8.7,1.8,11.8c1.2,3.1,2.9,5.3,5.2,6.7c2.2,1.4,5,2.1,8.2,2.1c4.1,0,7.6-0.9,10.8-2.8
		s5.7-4.7,7.8-8.5c2.1-3.8,3.6-8.7,4.7-14.7h5.7c-1.2,7.4-3.2,13.4-5.8,18c-2.7,4.6-5.9,8-9.8,10.2
		C340.7,162.7,336.3,163.7,331.3,163.7z"/>
	<path d="M376.6,163.7c-3.2,0-5.8-0.6-8.1-1.8s-3.9-3.1-5-5.8c-1.1-2.7-1.7-6.2-1.7-10.6c0-4.6,0.3-9.3,1-14c0.7-4.7,1.7-9.1,3-13.2
		c1.4-4.4,3.1-8.3,5.1-11.8c2-3.5,4.3-6.2,7-8.2c2.7-2,5.6-3,8.8-3c3.2,0,5.8,0.6,8.1,1.8c2.2,1.2,3.9,3.1,5,5.8
		c1.1,2.7,1.7,6.3,1.7,10.8c0,4.7-0.3,9.5-1,14.2c-0.7,4.8-1.7,9.2-3.1,13.4c-1.3,4.3-3,8.1-5,11.5c-2,3.4-4.4,6-7,8
		C382.7,162.8,379.8,163.7,376.6,163.7z M376.4,158.9c3,0,5.7-1.4,8.1-4.1c2.4-2.7,4.4-6.3,6.1-10.6c1.7-4.4,2.9-9,3.7-14
		c0.3-1.9,0.6-3.8,0.8-5.7c0.2-1.9,0.4-3.8,0.5-5.7c0.1-1.9,0.2-3.6,0.2-5.3c0-3.1-0.3-5.7-1-7.6c-0.7-1.9-1.7-3.4-3-4.3
		c-1.3-0.9-3-1.4-5.1-1.4c-2.7,0-5.2,1.2-7.5,3.5c-2.3,2.4-4.2,5.5-5.8,9.4c-1.6,3.9-2.9,8.1-3.9,12.7c-0.5,2.2-0.9,4.4-1.2,6.7
		c-0.3,2.3-0.6,4.5-0.7,6.8c-0.2,2.2-0.2,4.4-0.2,6.3c0,3.2,0.3,5.7,1,7.6c0.7,1.9,1.7,3.4,3.1,4.3
		C372.7,158.4,374.4,158.9,376.4,158.9z"/>
	<path d="M400.1,162.2l15.7-89.9h5.3l-15.8,89.9H400.1z"/>
	<path d="M427.2,163.7c-2.7,0-4.9-0.6-6.7-1.9c-1.8-1.2-3.2-3.2-4-5.8c-0.9-2.7-1.3-6.1-1.3-10.3c0-4.9,0.4-9.9,1.2-15.1
		c0.8-5.2,1.9-10.1,3.4-14.6c1.3-3.9,2.9-7.4,4.7-10.6c1.8-3.2,3.9-5.6,6.2-7.4c2.4-1.8,4.9-2.7,7.6-2.7c2.4,0,4.3,0.5,5.8,1.4
		c1.4,1,2.6,2.2,3.5,3.8c0.9,1.6,1.5,3.3,1.9,5.2h0.6l2.2-9h3.9l-2.5,14.4c-0.3,2.2-0.8,5-1.4,8.4c-0.6,3.4-1.3,7.1-2,11.1
		c-0.7,3.9-1.4,7.7-2,11.3s-1.1,6.7-1.6,9.2c-0.4,2.5-0.6,4.1-0.6,4.8c0,0.9,0.1,1.6,0.4,2c0.2,0.4,0.9,0.6,2,0.6h4.2l-0.6,3.4
		c-0.7,0.4-1.6,0.8-2.5,1.1c-1,0.3-1.9,0.4-2.8,0.4c-1.4,0-2.7-0.4-3.9-1.1c-1.2-0.7-1.8-2.2-2-4.4c0-0.7,0.1-1.4,0.2-2.2
		c0.1-0.8,0.3-1.6,0.4-2.5L441,153c-1.2,2.7-3.1,5.2-5.5,7.4C433.1,162.6,430.3,163.7,427.2,163.7z M427.8,158.9
		c1.8,0,3.6-0.6,5.2-1.9c1.7-1.3,3.2-3,4.6-5.2c1.4-2.2,2.7-4.7,3.8-7.6c1.1-2.9,2.1-6,2.8-9.2c0.5-2.2,0.9-4.4,1.3-6.6
		c0.4-2.2,0.6-4.5,0.8-6.7c0.2-2.2,0.2-4.3,0.2-6.4c0-3.2-0.3-6-0.8-8.2c-0.5-2.2-1.4-3.9-2.6-5.1c-1.2-1.2-2.8-1.7-4.7-1.7
		c-1.8,0-3.6,0.7-5.3,2.2c-1.7,1.5-3.2,3.6-4.5,6.2c-1.3,2.7-2.5,5.6-3.6,8.8c-0.9,2.9-1.7,6-2.4,9.3c-0.7,3.3-1.2,6.5-1.6,9.6
		c-0.3,3.2-0.5,6.2-0.5,9.2c0,4.6,0.6,7.9,1.8,10.1C423.6,157.8,425.4,158.9,427.8,158.9z"/>
	<path d="M470.7,163.7c-3.5,0-6-1-7.6-3.1c-1.6-2.1-2.8-4.5-3.4-7.3H459l-2.2,9h-3.7l15.7-89.9h5.3l-5.6,31.8h0.6
		c1.2-1.8,2.4-3.4,3.9-4.7c1.4-1.3,2.9-2.3,4.5-3c1.6-0.7,3.2-1.1,4.7-1.1c2.5,0,4.6,0.6,6.3,1.9c1.7,1.2,3,3.2,3.9,5.8
		c0.9,2.7,1.3,6.1,1.3,10.3c0,2.7-0.1,5.3-0.3,8c-0.2,2.7-0.5,5.3-0.9,8c-0.9,6.2-2.4,11.9-4.4,17.2s-4.5,9.4-7.4,12.6
		C477.8,162.2,474.4,163.7,470.7,163.7z M470.5,158.9c2.2,0,4.3-0.9,6.1-2.7c1.8-1.8,3.4-4.2,4.9-7.2c1.4-3,2.6-6.4,3.6-10.2
		c0.7-2.7,1.3-5.4,1.8-8.3c0.5-2.9,0.8-5.7,1.1-8.6c0.2-2.9,0.4-5.7,0.4-8.5c0-3.1-0.2-5.6-0.6-7.5c-0.4-1.9-1.2-3.4-2.2-4.4
		c-1.1-1-2.5-1.4-4.2-1.4c-1.6,0-3.1,0.5-4.5,1.5c-1.4,1-2.8,2.4-4.1,4.1c-1.3,1.7-2.5,3.8-3.5,6.1c-1,2.3-2,4.9-2.8,7.6
		c-0.7,2.6-1.4,5.2-2,8c-0.6,2.7-1,5.5-1.3,8.3c-0.3,2.8-0.4,5.5-0.4,8.1c0,3.2,0.3,5.9,0.9,8.1c0.6,2.3,1.5,4,2.6,5.2
		C467.2,158.3,468.6,158.9,470.5,158.9z"/>
	<path d="M508.9,163.7c-3.2,0-5.8-0.6-8.1-1.8c-2.2-1.2-3.9-3.1-5-5.8c-1.1-2.7-1.7-6.2-1.7-10.6c0-4.6,0.3-9.3,1-14
		c0.7-4.7,1.7-9.1,3-13.2c1.4-4.4,3.1-8.3,5.1-11.8c2-3.5,4.3-6.2,7-8.2c2.7-2,5.6-3,8.8-3c3.2,0,5.8,0.6,8.1,1.8
		c2.2,1.2,3.9,3.1,5,5.8c1.1,2.7,1.7,6.3,1.7,10.8c0,4.7-0.3,9.5-1,14.2c-0.7,4.8-1.7,9.2-3.1,13.4c-1.3,4.3-3,8.1-5,11.5
		c-2,3.4-4.4,6-7,8C515.1,162.8,512.1,163.7,508.9,163.7z M508.8,158.9c3,0,5.7-1.4,8.1-4.1c2.4-2.7,4.4-6.3,6.1-10.6
		c1.7-4.4,2.9-9,3.7-14c0.3-1.9,0.6-3.8,0.8-5.7c0.2-1.9,0.4-3.8,0.5-5.7c0.1-1.9,0.2-3.6,0.2-5.3c0-3.1-0.3-5.7-1-7.6
		c-0.7-1.9-1.7-3.4-3-4.3c-1.3-0.9-3-1.4-5.1-1.4c-2.7,0-5.2,1.2-7.5,3.5c-2.3,2.4-4.2,5.5-5.8,9.4c-1.6,3.9-2.9,8.1-3.9,12.7
		c-0.5,2.2-0.9,4.4-1.2,6.7c-0.3,2.3-0.6,4.5-0.7,6.8c-0.2,2.2-0.2,4.4-0.2,6.3c0,3.2,0.3,5.7,1,7.6c0.7,1.9,1.7,3.4,3.1,4.3
		C505.1,158.4,506.8,158.9,508.8,158.9z"/>
	<path d="M532.3,162.2l11.6-65.4h3.9l-1,9h0.6c1.2-2.7,2.4-4.7,3.9-6.2c1.4-1.5,2.9-2.6,4.4-3.2c1.5-0.7,3-1,4.5-1
		c0.4,0,0.8,0,1.1,0c0.3,0,0.7,0.1,1,0.2l-1.1,6.2h-2.2c-1.2,0-2.6,0.4-4,1.1c-1.4,0.7-2.7,1.8-4,3.2c-1.2,1.5-2.4,3.3-3.4,5.5
		c-1,2.2-1.8,4.9-2.4,8.1l-7.5,42.5H532.3z"/>
	<path d="M564.5,163.7c-2.7,0-4.9-0.6-6.7-1.9c-1.8-1.2-3.2-3.2-4-5.8c-0.9-2.7-1.3-6.1-1.3-10.3c0-4.9,0.4-9.9,1.2-15.1
		c0.8-5.2,1.9-10.1,3.4-14.6c1.3-3.9,2.9-7.4,4.7-10.6c1.8-3.2,3.9-5.6,6.2-7.4c2.4-1.8,4.9-2.7,7.6-2.7c2.4,0,4.3,0.5,5.8,1.4
		c1.4,1,2.6,2.2,3.5,3.8c0.9,1.6,1.5,3.3,1.9,5.2h0.6l2.2-9h3.9l-2.5,14.4c-0.3,2.2-0.8,5-1.4,8.4c-0.6,3.4-1.3,7.1-2,11.1
		c-0.7,3.9-1.4,7.7-2,11.3c-0.6,3.6-1.1,6.7-1.6,9.2c-0.4,2.5-0.6,4.1-0.6,4.8c0,0.9,0.1,1.6,0.4,2c0.2,0.4,0.9,0.6,2,0.6h4.2
		l-0.6,3.4c-0.7,0.4-1.6,0.8-2.5,1.1c-1,0.3-1.9,0.4-2.8,0.4c-1.4,0-2.7-0.4-3.9-1.1c-1.2-0.7-1.8-2.2-2-4.4c0-0.7,0.1-1.4,0.2-2.2
		c0.1-0.8,0.3-1.6,0.4-2.5l-0.5-0.2c-1.2,2.7-3.1,5.2-5.5,7.4C570.4,162.6,567.7,163.7,564.5,163.7z M565.1,158.9
		c1.8,0,3.6-0.6,5.2-1.9c1.7-1.3,3.2-3,4.6-5.2c1.4-2.2,2.7-4.7,3.8-7.6c1.1-2.9,2.1-6,2.8-9.2c0.5-2.2,0.9-4.4,1.3-6.6
		c0.4-2.2,0.6-4.5,0.8-6.7c0.2-2.2,0.2-4.3,0.2-6.4c0-3.2-0.3-6-0.8-8.2c-0.5-2.2-1.4-3.9-2.6-5.1c-1.2-1.2-2.8-1.7-4.7-1.7
		c-1.8,0-3.6,0.7-5.3,2.2c-1.7,1.5-3.2,3.6-4.5,6.2c-1.3,2.7-2.5,5.6-3.6,8.8c-0.9,2.9-1.7,6-2.4,9.3c-0.7,3.3-1.2,6.5-1.6,9.6
		c-0.3,3.2-0.5,6.2-0.5,9.2c0,4.6,0.6,7.9,1.8,10.1C560.9,157.8,562.7,158.9,565.1,158.9z"/>
</g>
<g>
	<path d="M344.1,303.5c-7.9,0-14.3-2-19.2-6c-4.9-4-8.5-10.1-10.7-18.3c-2.2-8.2-3.3-18.6-3.3-31.1c0-19,2.9-32.9,8.8-41.8
		c5.9-8.9,14.7-13.4,26.5-13.4c6.7,0,12.3,1.5,16.8,4.4c4.5,2.9,7.8,7.4,10,13.4c2.2,6.1,3.3,13.9,3.3,23.4h-12.7
		c0-6.3-0.6-11.7-1.7-16.1c-1.1-4.4-3.1-7.7-5.8-10c-2.7-2.3-6.3-3.4-10.7-3.4c-4.5,0-8.3,1.4-11.4,4.1c-3.2,2.7-5.5,7-7.2,12.9
		c-1.6,5.9-2.4,13.5-2.4,22.9v8.1c0,9.2,0.8,16.7,2.3,22.5c1.5,5.8,3.8,10.1,6.8,12.7c3,2.7,6.7,4,11.2,4c4.4,0,7.9-1.1,10.7-3.3
		c2.8-2.2,4.9-5.4,6.3-9.7c1.4-4.3,2.1-9.8,2.1-16.4h12.4c0,9.5-1.2,17.3-3.7,23.3c-2.5,6-6.1,10.4-10.9,13.3
		C356.9,302.1,351.1,303.5,344.1,303.5z"/>
	<path d="M403.8,303.5c-5.4,0-9.9-1.4-13.6-4.2c-3.7-2.8-6.5-7.3-8.3-13.6c-1.9-6.3-2.8-14.6-2.8-25c0-10.4,0.9-18.7,2.8-25
		c1.9-6.3,4.6-10.8,8.3-13.7c3.7-2.8,8.2-4.3,13.6-4.3c5.5,0,10.1,1.4,13.8,4.3c3.7,2.9,6.5,7.4,8.4,13.7c1.9,6.3,2.8,14.6,2.8,25
		c0,10.4-0.9,18.7-2.8,25c-1.9,6.3-4.7,10.8-8.4,13.6C413.9,302.1,409.3,303.5,403.8,303.5z M403.8,293.4c3.1,0,5.6-1,7.5-2.9
		c1.9-1.9,3.2-5.1,4-9.5c0.8-4.4,1.2-10.2,1.2-17.3v-5.9c0-7.3-0.4-13.1-1.2-17.4c-0.8-4.4-2.2-7.5-4-9.5c-1.9-2-4.4-3-7.5-3
		c-2.9,0-5.3,1-7.2,3c-1.9,2-3.3,5.1-4.1,9.5c-0.8,4.4-1.2,10.2-1.2,17.4v5.9c0,7.2,0.4,12.9,1.2,17.3c0.8,4.4,2.2,7.6,4.1,9.5
		C398.5,292.4,400.9,293.4,403.8,293.4z"/>
	<path d="M434.3,301.6V189H446v112.6H434.3z"/>
	<path d="M468.8,303.5c-2.8,0-5.3-0.5-7.5-1.4c-2.2-0.9-4.1-2.3-5.7-4.1c-1.6-1.8-2.7-4.1-3.5-6.9c-0.8-2.8-1.2-6-1.2-9.5
		c0-3.8,0.5-7.4,1.6-10.7c1.1-3.3,2.9-6.2,5.5-8.8c2.6-2.5,6.2-4.5,10.8-5.9c4.6-1.4,10.4-2.1,17.3-2.1v-12.9c0-2.9-0.3-5.3-1-7.2
		c-0.7-1.9-1.8-3.4-3.3-4.4c-1.6-1-3.5-1.6-5.9-1.6c-3.2,0-5.6,0.7-7.2,2.1c-1.6,1.4-2.6,3.3-3.1,5.6c-0.5,2.3-0.8,4.9-0.8,7.7v1.1
		h-11c-0.1-0.4-0.2-0.9-0.2-1.4c0-0.5,0-1.1,0-1.7c0-5.9,1-10.5,3.1-13.9c2.1-3.4,4.8-5.8,8.2-7.3c3.4-1.5,7.3-2.3,11.5-2.3
		c4.2,0,8,0.7,11.1,2.1c3.2,1.4,5.6,3.8,7.5,7.2c1.8,3.4,2.7,8.2,2.7,14.5v46.3c0,1.8,0.3,3.1,1,4c0.7,0.9,1.6,1.3,2.7,1.3h4.7v7.8
		c-1.3,0.6-2.9,1.2-4.5,1.6c-1.7,0.5-3.4,0.7-5.1,0.7c-2.2,0-4-0.5-5.4-1.6c-1.4-1-2.4-2.4-3-4.2c-0.6-1.8-1-3.7-1.1-5.8h-0.9
		c-1,2.2-2.4,4.1-4,5.9c-1.6,1.8-3.5,3.2-5.7,4.2C474.4,303,471.8,303.5,468.8,303.5z M472.6,293.4c1.6,0,3.1-0.4,4.7-1.2
		c1.6-0.8,3.1-2.1,4.4-3.9c1.3-1.8,2.4-4,3.3-6.6c0.8-2.6,1.2-5.8,1.2-9.4v-10c-6.4,0-11.3,0.8-14.6,2.4c-3.3,1.6-5.6,3.7-6.8,6.4
		c-1.2,2.6-1.8,5.6-1.8,8.8c0,3,0.4,5.5,1.1,7.5c0.7,2,1.8,3.5,3.2,4.5C468.7,292.9,470.5,293.4,472.6,293.4z"/>
	<path d="M533.8,303.5c-4.4,0-7.9-1.2-10.5-3.7c-2.6-2.5-4.5-5.4-5.5-8.7H517l-0.9,10.6h-9.2V189h11.7v40h0.8
		c0.9-2.5,2.1-4.5,3.4-6.1c1.3-1.6,3-2.8,4.9-3.7c1.9-0.9,4-1.3,6.3-1.3c4.6,0,8.3,1.5,11.2,4.4c2.9,2.9,5.1,7.4,6.5,13.6
		c1.4,6.2,2.1,14.4,2.1,24.6c0,10.6-0.7,19-2.2,25.3c-1.5,6.3-3.7,10.9-6.6,13.6S538.3,303.5,533.8,303.5z M530.4,292.9
		c2.8,0,5-1,6.7-3.1c1.7-2.1,2.8-5.3,3.5-9.6c0.7-4.4,1-9.9,1-16.6v-5.3c0-6.9-0.4-12.6-1.2-16.9c-0.8-4.3-1.9-7.5-3.5-9.5
		c-1.6-2-3.6-3-6.2-3c-2,0-3.7,0.6-5.3,1.8c-1.6,1.2-2.8,3-3.8,5.4c-1,2.4-1.7,5.4-2.3,9.1c-0.5,3.7-0.8,8.1-0.8,13.1v5.3
		c0,6.3,0.4,11.7,1.2,16c0.8,4.4,2,7.7,3.8,10C525.3,291.8,527.6,292.9,530.4,292.9z"/>
	<path d="M581.5,303.5c-5.4,0-9.9-1.4-13.6-4.2c-3.7-2.8-6.5-7.3-8.3-13.6c-1.9-6.3-2.8-14.6-2.8-25c0-10.4,0.9-18.7,2.8-25
		c1.9-6.3,4.6-10.8,8.3-13.7c3.7-2.8,8.2-4.3,13.6-4.3c5.5,0,10.1,1.4,13.8,4.3c3.7,2.9,6.5,7.4,8.4,13.7c1.9,6.3,2.8,14.6,2.8,25
		c0,10.4-0.9,18.7-2.8,25c-1.9,6.3-4.7,10.8-8.4,13.6C591.6,302.1,587,303.5,581.5,303.5z M581.5,293.4c3.1,0,5.6-1,7.5-2.9
		c1.9-1.9,3.2-5.1,4-9.5c0.8-4.4,1.2-10.2,1.2-17.3v-5.9c0-7.3-0.4-13.1-1.2-17.4c-0.8-4.4-2.2-7.5-4-9.5c-1.9-2-4.4-3-7.5-3
		c-2.9,0-5.3,1-7.2,3c-1.9,2-3.3,5.1-4.1,9.5c-0.8,4.4-1.2,10.2-1.2,17.4v5.9c0,7.2,0.4,12.9,1.2,17.3c0.8,4.4,2.2,7.6,4.1,9.5
		C576.2,292.4,578.6,293.4,581.5,293.4z"/>
	<path d="M612,301.6v-81.9h9.3l0.9,11.2h0.8c1-3.1,2.2-5.6,3.6-7.5c1.3-1.9,2.8-3.3,4.4-4.2c1.6-0.9,3.3-1.4,5.2-1.4
		c0.6,0,1.2,0.1,1.8,0.2c0.6,0.1,1.1,0.3,1.6,0.5v12.9h-4.4c-1.5,0-2.9,0.4-4.4,1.2c-1.5,0.8-2.7,2-3.8,3.7
		c-1.1,1.7-1.9,3.9-2.6,6.7c-0.6,2.8-0.9,6.2-0.9,10.1v48.7H612z"/>
	<path d="M653.7,303.5c-2.8,0-5.3-0.5-7.5-1.4c-2.2-0.9-4.1-2.3-5.7-4.1c-1.6-1.8-2.7-4.1-3.5-6.9c-0.8-2.8-1.2-6-1.2-9.5
		c0-3.8,0.5-7.4,1.6-10.7c1.1-3.3,2.9-6.2,5.5-8.8c2.6-2.5,6.2-4.5,10.8-5.9c4.6-1.4,10.4-2.1,17.3-2.1v-12.9c0-2.9-0.3-5.3-1-7.2
		c-0.7-1.9-1.8-3.4-3.3-4.4c-1.6-1-3.5-1.6-5.9-1.6c-3.2,0-5.6,0.7-7.2,2.1c-1.6,1.4-2.6,3.3-3.1,5.6c-0.5,2.3-0.8,4.9-0.8,7.7v1.1
		h-11c-0.1-0.4-0.2-0.9-0.2-1.4c0-0.5,0-1.1,0-1.7c0-5.9,1-10.5,3.1-13.9c2.1-3.4,4.8-5.8,8.2-7.3c3.4-1.5,7.3-2.3,11.5-2.3
		c4.2,0,8,0.7,11.1,2.1c3.2,1.4,5.6,3.8,7.5,7.2c1.8,3.4,2.7,8.2,2.7,14.5v46.3c0,1.8,0.3,3.1,1,4c0.7,0.9,1.6,1.3,2.7,1.3h4.7v7.8
		c-1.3,0.6-2.9,1.2-4.5,1.6c-1.7,0.5-3.4,0.7-5.1,0.7c-2.2,0-4-0.5-5.4-1.6c-1.4-1-2.4-2.4-3-4.2c-0.6-1.8-1-3.7-1.1-5.8h-0.9
		c-1,2.2-2.4,4.1-4,5.9c-1.6,1.8-3.5,3.2-5.7,4.2C659.3,303,656.7,303.5,653.7,303.5z M657.4,293.4c1.6,0,3.1-0.4,4.7-1.2
		c1.6-0.8,3.1-2.1,4.4-3.9c1.3-1.8,2.4-4,3.3-6.6c0.8-2.6,1.2-5.8,1.2-9.4v-10c-6.4,0-11.3,0.8-14.6,2.4c-3.3,1.6-5.6,3.7-6.8,6.4
		c-1.2,2.6-1.8,5.6-1.8,8.8c0,3,0.4,5.5,1.1,7.5c0.7,2,1.8,3.5,3.2,4.5C653.6,292.9,655.3,293.4,657.4,293.4z"/>
</g>
<g>
	<path d="M346.3,463c-12.1,0-20.8-3.1-26.3-9.4c-5.5-6.3-8.2-15.8-8.2-28.6c0-4.6,0.3-9.7,0.9-15.2c0.6-5.5,1.6-11.3,2.8-17.4
		c2.5-13.4,5.9-24.8,10.4-34c4.4-9.2,10-16.2,16.9-20.9c6.8-4.7,15.1-7.1,24.8-7.1c6.7,0,12.4,1.2,17.1,3.5
		c4.7,2.3,8.2,5.8,10.7,10.4c2.5,4.7,3.7,10.6,3.7,17.8c0,2.7-0.2,5.6-0.5,8.7c-0.3,3-0.8,6.3-1.4,9.8h-17.9c0.5-3,0.9-5.7,1.1-8.2
		c0.2-2.5,0.4-4.9,0.4-7.1c0-4.1-0.5-7.5-1.6-10.3c-1.1-2.7-2.7-4.8-4.9-6.2c-2.2-1.4-5.2-2.1-9-2.1s-7.2,0.9-10.3,2.6
		c-3.1,1.7-6,4.4-8.6,8c-2.6,3.6-4.9,8.2-6.9,13.9c-2,5.7-3.7,12.5-5,20.6c-0.9,4.9-1.6,9-2.1,12.5c-0.6,3.5-1,6.4-1.3,8.9
		c-0.3,2.4-0.5,4.5-0.7,6.3c-0.1,1.7-0.2,3.4-0.2,4.9c0,5.2,0.6,9.5,1.9,12.9c1.2,3.4,3.1,5.8,5.6,7.4c2.5,1.6,5.5,2.3,9.1,2.3
		c4.9,0,9-1.2,12.5-3.6c3.5-2.4,6.4-6.1,8.9-11.1c2.4-5,4.3-11.3,5.7-18.8h17.5c-2,11.7-5,21.2-9,28.5c-4,7.3-9.1,12.7-15.1,16.1
		C361.2,461.3,354.2,463,346.3,463z"/>
	<path d="M417.4,463c-5.6,0-10.3-1-14.1-3c-3.8-2-6.6-5.2-8.5-9.5c-1.9-4.4-2.8-9.9-2.8-16.8c0-4.1,0.2-8.5,0.7-13.1
		c0.4-4.6,1.2-9.3,2.3-14.2c2.1-10.7,4.9-19.4,8.2-26.2c3.4-6.8,7.5-11.8,12.4-15.1c4.9-3.3,10.5-4.9,16.9-4.9c5.7,0,10.5,1,14.3,3
		c3.8,2,6.7,5.1,8.6,9.4c1.9,4.3,2.9,10,2.9,17.1c0,4.1-0.3,8.5-0.8,13.2c-0.6,4.7-1.3,9.4-2.3,14.3c-2,10.6-4.7,19.2-8.2,26
		c-3.5,6.8-7.6,11.8-12.5,15C429.5,461.4,423.8,463,417.4,463z M418.3,449c3.4,0,6.3-1.2,8.8-3.5c2.5-2.4,4.7-6,6.5-10.8
		c1.9-4.9,3.4-10.9,4.7-18.3c0.9-5.5,1.6-9.9,2.1-13.3c0.5-3.4,0.8-6.2,1-8.5s0.3-4.2,0.3-5.8c0-3.5-0.3-6.3-1-8.4
		c-0.7-2.1-1.8-3.7-3.3-4.7c-1.5-1-3.4-1.5-5.8-1.5c-3.1,0-5.9,1.2-8.4,3.5c-2.5,2.3-4.6,5.8-6.3,10.4c-1.7,4.7-3.3,10.6-4.7,17.8
		c-1,5.5-1.8,10-2.4,13.7c-0.6,3.7-1,6.7-1.2,9c-0.2,2.4-0.3,4.5-0.3,6.3c0,3.2,0.4,5.9,1.1,8c0.7,2.1,1.9,3.6,3.4,4.6
		C414.2,448.5,416.1,449,418.3,449z"/>
	<path d="M453.2,460.7l23.5-135.1h16.6l-23.7,135.1H453.2z"/>
	<path d="M500.2,463c-4.1,0-7.6-1-10.4-3c-2.9-2-5-5-6.3-9c-1.4-4-2.1-9-2.1-15.1c0-4.7,0.3-9.7,0.8-14.8c0.6-5.2,1.5-10.4,2.7-15.8
		c1.7-8.8,4-16.6,6.8-23.3c2.8-6.7,6.2-12,10.3-15.9c4-3.9,8.8-5.8,14.3-5.8c3.6,0,6.6,0.7,8.9,2c2.3,1.3,4.1,3,5.5,5.2
		c1.4,2.2,2.4,4.7,3.2,7.6h0.9l4.5-12.7h12.1l-4.5,24.6c-0.5,3.1-1.2,7-2.1,11.6c-0.9,4.6-1.7,9.5-2.6,14.6
		c-0.9,5.1-1.7,10-2.5,14.6c-0.8,4.6-1.5,8.5-2,11.7c-0.5,3.2-0.7,5.1-0.7,5.9c0,1.4,0.3,2.4,0.8,3.1c0.6,0.7,1.5,1,2.7,1h5.8
		l-2.1,10.8c-1.5,0.7-3.2,1.4-5,2c-1.9,0.6-3.7,0.8-5.4,0.8c-3.1,0-5.8-0.9-8-2.6c-2.2-1.7-3.4-4.8-3.4-9.1c0-0.5,0-1,0.1-1.6
		c0.1-0.6,0.2-1.1,0.3-1.8l-0.7-0.4c-2,4-4.8,7.6-8.5,10.7C509.9,461.4,505.4,463,500.2,463z M506.7,447.3c2.1,0,4.1-0.7,6-2.1
		c1.9-1.4,3.6-3.4,5.2-6.1c1.6-2.7,3.1-5.9,4.4-9.8c1.3-3.9,2.5-8.2,3.5-13.1c0.9-5,1.5-9,2-12.2c0.4-3.2,0.7-5.8,0.9-8
		c0.2-2.2,0.3-4.1,0.3-5.9c0-3.4-0.3-6.2-0.9-8.4c-0.6-2.2-1.6-3.9-3-5c-1.4-1.1-3.2-1.7-5.4-1.7c-2.6,0-5,1-7.1,3.1
		c-2.1,2.1-4,5.1-5.5,9.2c-1.6,4.1-3,9.3-4.4,15.5c-1.1,5.3-2,9.9-2.6,13.5c-0.6,3.7-1.1,6.8-1.3,9.4c-0.3,2.6-0.4,5-0.4,7.3
		c0,4.9,0.7,8.4,2.1,10.7C501.8,446.2,503.9,447.3,506.7,447.3z"/>
	<path d="M578.4,463c-5.6,0-9.8-1.5-12.6-4.4s-4.6-6.4-5.3-10.4h-0.9l-3.4,12.5h-13.1l23.5-135.1H583l-8.4,47.8h0.9
		c1.5-2.7,3.2-5.1,5.2-7.1c2-2,4.2-3.5,6.5-4.6c2.4-1.1,4.8-1.6,7.3-1.6c4.1,0,7.5,0.9,10.3,2.7c2.7,1.8,4.8,4.5,6.2,8.2
		c1.4,3.7,2.1,8.4,2.1,14.3c0,3.6-0.2,7.6-0.6,11.9c-0.4,4.4-1,9-1.9,13.8c-1.9,11.7-4.4,21.4-7.5,29c-3.1,7.6-6.7,13.4-10.8,17.2
		C588.3,461.1,583.6,463,578.4,463z M574.5,448.2c3,0,5.5-1.1,7.6-3.3c2.1-2.2,4-5.4,5.6-9.7c1.6-4.3,3-9.6,4.3-16
		c1-5.3,1.8-9.8,2.3-13.2c0.6-3.5,0.9-6.5,1.1-9c0.2-2.5,0.3-4.9,0.3-7c0-3.2-0.3-5.9-0.8-8c-0.6-2.1-1.5-3.7-2.7-4.7
		c-1.2-1-2.9-1.5-4.9-1.5c-2,0-3.9,0.7-5.6,2c-1.7,1.3-3.4,3.2-5,5.7c-1.6,2.5-3,5.5-4.3,9.1c-1.2,3.6-2.4,7.8-3.4,12.5
		c-1,5.1-1.8,9.3-2.3,12.7c-0.6,3.4-0.9,6.2-1.1,8.6c-0.2,2.4-0.3,4.5-0.3,6.5c0,3.2,0.3,6,0.9,8.3c0.6,2.3,1.6,4,3,5.2
		C570.6,447.7,572.3,448.2,574.5,448.2z"/>
	<path d="M636.2,463c-5.6,0-10.3-1-14.1-3c-3.8-2-6.6-5.2-8.5-9.5c-1.9-4.4-2.8-9.9-2.8-16.8c0-4.1,0.2-8.5,0.7-13.1
		c0.4-4.6,1.2-9.3,2.3-14.2c2.1-10.7,4.9-19.4,8.2-26.2c3.4-6.8,7.5-11.8,12.4-15.1c4.9-3.3,10.5-4.9,16.9-4.9c5.7,0,10.5,1,14.3,3
		c3.8,2,6.7,5.1,8.6,9.4c1.9,4.3,2.9,10,2.9,17.1c0,4.1-0.3,8.5-0.8,13.2c-0.6,4.7-1.3,9.4-2.3,14.3c-2,10.6-4.7,19.2-8.2,26
		c-3.5,6.8-7.6,11.8-12.5,15C648.3,461.4,642.7,463,636.2,463z M637.1,449c3.4,0,6.3-1.2,8.8-3.5c2.5-2.4,4.7-6,6.5-10.8
		c1.9-4.9,3.4-10.9,4.7-18.3c0.9-5.5,1.6-9.9,2.1-13.3c0.5-3.4,0.8-6.2,1-8.5s0.3-4.2,0.3-5.8c0-3.5-0.3-6.3-1-8.4
		c-0.7-2.1-1.8-3.7-3.3-4.7c-1.5-1-3.4-1.5-5.8-1.5c-3.1,0-5.9,1.2-8.4,3.5c-2.5,2.3-4.6,5.8-6.3,10.4c-1.7,4.7-3.3,10.6-4.7,17.8
		c-1,5.5-1.8,10-2.4,13.7c-0.6,3.7-1,6.7-1.2,9c-0.2,2.4-0.3,4.5-0.3,6.3c0,3.2,0.4,5.9,1.1,8c0.7,2.1,1.9,3.6,3.4,4.6
		C633,448.5,634.9,449,637.1,449z"/>
	<path d="M671.8,460.7l17.2-98.3h12.7l-0.4,13.4h0.7c1.7-3.6,3.6-6.5,5.6-8.8c2-2.2,4.1-3.9,6.2-5.1c2.2-1.2,4.4-1.8,6.6-1.8
		c0.9,0,1.7,0.1,2.4,0.2c0.7,0.1,1.5,0.4,2.2,0.7l-3.4,18.3h-5.8c-2,0-3.9,0.5-5.7,1.5c-1.8,1-3.5,2.5-5,4.6c-1.6,2.1-3,4.7-4.2,8
		c-1.2,3.3-2.3,7.2-3.2,11.7l-9.9,55.6H671.8z"/>
	<path d="M728.2,463c-4.1,0-7.6-1-10.4-3c-2.9-2-5-5-6.3-9c-1.4-4-2.1-9-2.1-15.1c0-4.7,0.3-9.7,0.8-14.8c0.6-5.2,1.5-10.4,2.7-15.8
		c1.7-8.8,4-16.6,6.8-23.3c2.8-6.7,6.2-12,10.3-15.9c4-3.9,8.8-5.8,14.3-5.8c3.6,0,6.6,0.7,8.9,2c2.3,1.3,4.1,3,5.5,5.2
		c1.4,2.2,2.4,4.7,3.2,7.6h0.9l4.5-12.7h12.1l-4.5,24.6c-0.5,3.1-1.2,7-2.1,11.6c-0.9,4.6-1.7,9.5-2.6,14.6
		c-0.9,5.1-1.7,10-2.5,14.6c-0.8,4.6-1.5,8.5-2,11.7c-0.5,3.2-0.7,5.1-0.7,5.9c0,1.4,0.3,2.4,0.8,3.1c0.6,0.7,1.5,1,2.7,1h5.8
		l-2.1,10.8c-1.5,0.7-3.2,1.4-5,2c-1.9,0.6-3.7,0.8-5.4,0.8c-3.1,0-5.8-0.9-8-2.6c-2.2-1.7-3.4-4.8-3.4-9.1c0-0.5,0-1,0.1-1.6
		c0.1-0.6,0.2-1.1,0.3-1.8l-0.7-0.4c-2,4-4.8,7.6-8.5,10.7C737.9,461.4,733.4,463,728.2,463z M734.7,447.3c2.1,0,4.1-0.7,6-2.1
		c1.9-1.4,3.6-3.4,5.2-6.1c1.6-2.7,3.1-5.9,4.4-9.8c1.3-3.9,2.5-8.2,3.5-13.1c0.9-5,1.5-9,2-12.2c0.4-3.2,0.7-5.8,0.9-8
		c0.2-2.2,0.3-4.1,0.3-5.9c0-3.4-0.3-6.2-0.9-8.4c-0.6-2.2-1.6-3.9-3-5c-1.4-1.1-3.2-1.7-5.4-1.7c-2.6,0-5,1-7.1,3.1
		c-2.1,2.1-3.9,5.1-5.5,9.2c-1.6,4.1-3,9.3-4.4,15.5c-1.1,5.3-2,9.9-2.6,13.5c-0.6,3.7-1.1,6.8-1.3,9.4c-0.3,2.6-0.4,5-0.4,7.3
		c0,4.9,0.7,8.4,2.1,10.7C729.7,446.2,731.9,447.3,734.7,447.3z"/>
</g>
<g>
	<path d="M361.1,648.3c-11.9,0-21.4-2.8-28.5-8.4c-7.1-5.6-12.2-14.1-15.3-25.6c-3.1-11.5-4.7-26-4.7-43.5
		c0-26.6,4.1-46.1,12.3-58.6c8.2-12.5,21.3-18.7,39.3-18.7c9.7,0,17.8,2,24.4,6.1c6.5,4.1,11.5,10.6,14.8,19.5
		c3.3,8.9,5,20.6,5,34.9H381c0-7.7-0.5-14.3-1.6-19.7s-3-9.5-5.7-12.3c-2.7-2.8-6.4-4.1-11.2-4.1s-8.7,1.5-11.9,4.6
		c-3.1,3-5.4,7.7-6.9,13.9c-1.5,6.2-2.2,14.4-2.2,24.4v20.7c0,9.9,0.7,17.9,2.1,24.2c1.4,6.2,3.6,10.8,6.6,13.7
		c3,2.9,7,4.4,11.8,4.4c4.6,0,8.4-1.3,11.3-3.9c2.9-2.6,5-6.5,6.2-11.8c1.2-5.2,1.9-11.8,1.9-19.8h26.8c0,14.2-1.8,25.8-5.4,34.6
		c-3.6,8.9-8.9,15.3-15.9,19.4C379.9,646.3,371.3,648.3,361.1,648.3z"/>
	<path d="M448.4,648.3c-8.7,0-15.9-2-21.5-6.1c-5.7-4.1-9.9-10.5-12.7-19.4c-2.8-8.8-4.2-20.3-4.2-34.4c0-14.2,1.4-25.8,4.2-34.6
		c2.8-8.8,7.1-15.3,12.7-19.4c5.7-4.1,12.8-6.1,21.5-6.1c8.6,0,15.7,2,21.4,6.1c5.7,4.1,10,10.5,13,19.4c2.9,8.9,4.4,20.4,4.4,34.6
		c0,14.1-1.5,25.5-4.4,34.4c-2.9,8.9-7.2,15.3-13,19.4C464.1,646.3,457,648.3,448.4,648.3z M448.4,627.4c3.2,0,5.7-1,7.5-2.9
		c1.8-2,3.1-5.2,3.9-9.7c0.8-4.5,1.2-10.6,1.2-18.3v-16.3c0-7.7-0.4-13.8-1.2-18.3c-0.8-4.5-2.1-7.7-3.9-9.7c-1.8-2-4.3-2.9-7.5-2.9
		c-3,0-5.5,1-7.4,2.9c-1.9,2-3.2,5.2-3.9,9.7c-0.7,4.5-1.1,10.6-1.1,18.3v16.3c0,7.7,0.4,13.8,1.1,18.3c0.7,4.5,2,7.7,3.9,9.7
		C442.9,626.5,445.4,627.4,448.4,627.4z"/>
	<path d="M491.7,645.7V488.1h25v157.6H491.7z"/>
	<path d="M546.6,648.3c-4.1,0-7.7-0.7-10.9-2c-3.2-1.3-5.9-3.3-8.2-5.9c-2.3-2.6-3.9-5.9-5-9.9c-1.1-4-1.6-8.5-1.6-13.6
		c0-5.8,0.9-11.1,2.6-15.9c1.7-4.8,4.5-9,8.3-12.5c3.8-3.6,8.8-6.3,15.1-8.2c6.3-1.9,13.9-2.8,22.7-2.8v-14.4c0-2.9-0.4-5.4-1.1-7.4
		c-0.7-2-1.9-3.6-3.5-4.8c-1.6-1.2-3.5-1.7-5.7-1.7c-3,0-5.4,0.7-7,2.1c-1.6,1.4-2.6,3.2-3.2,5.4c-0.5,2.3-0.8,4.8-0.8,7.5v2h-23.7
		c-0.1-0.6-0.2-1.2-0.2-1.8c0-0.7,0-1.3,0-2.1c0-7.8,1.5-14.3,4.6-19.3c3-5,7.3-8.7,12.7-11.1s11.7-3.6,18.8-3.6
		c6.5,0,12.3,1,17.4,3c5.1,2,9.1,5.7,12.1,10.9c3,5.2,4.5,12.6,4.5,22.2V620c0,2.3,0.5,4.1,1.4,5.3c0.9,1.2,2.4,1.8,4.5,1.8h4.8
		v17.2c-2.3,1.2-4.9,2.1-7.8,2.7c-2.9,0.7-5.8,1-8.7,1c-3.5,0-6.4-0.6-8.8-1.9c-2.4-1.2-4.2-3-5.6-5.2c-1.3-2.2-2.1-4.8-2.4-7.5H571
		c-1.5,2.8-3.3,5.2-5.4,7.4c-2.2,2.2-4.8,4-7.8,5.3C554.6,647.7,550.9,648.3,546.6,648.3z M556.6,627.4c1.7,0,3.4-0.5,5-1.6
		c1.6-1.1,3-2.6,4.2-4.6c1.2-2,2.2-4.3,2.8-7.1c0.7-2.8,1-5.9,1-9.6v-11.5c-6.5,0-11.4,0.9-14.7,2.6c-3.3,1.7-5.4,4.1-6.5,7.1
		c-1.1,3-1.6,6.3-1.6,9.9c0,3.2,0.4,5.9,1.1,8.1c0.7,2.2,1.8,3.8,3.3,5C552.6,626.9,554.4,627.4,556.6,627.4z"/>
	<path d="M650,648.3c-6.2,0-11.1-1.6-14.7-4.9c-3.6-3.3-6.2-7.1-7.9-11.6h-1.1l-1.7,13.9h-20.5V488.1h25v55.7h1.1
		c1.2-3.2,2.7-5.9,4.6-8.3c1.9-2.3,4.2-4.1,6.9-5.3c2.7-1.2,5.8-1.9,9.5-1.9c6.5,0,11.8,2,15.8,6.1c4,4.1,6.9,10.4,8.8,19
		c1.9,8.6,2.8,19.9,2.8,33.8c0,14.2-1,25.8-2.9,34.7c-2,8.9-5,15.5-9.1,19.8C662.3,646.2,656.8,648.3,650,648.3z M641.1,625.7
		c2.9,0,5.1-1,6.7-3c1.6-2,2.8-5.2,3.5-9.6c0.7-4.4,1.1-10,1.1-17v-13.9c0-7.1-0.4-12.8-1.1-17.2c-0.7-4.4-1.9-7.5-3.6-9.6
		c-1.7-2-3.9-3-6.6-3c-2,0-3.8,0.6-5.4,1.7c-1.6,1.2-2.9,2.9-3.8,5.3c-0.9,2.4-1.6,5.5-2.1,9.3c-0.4,3.8-0.7,8.3-0.7,13.5v13.9
		c0,6.5,0.4,12,1.1,16.4c0.7,4.4,2,7.7,3.7,9.9S638,625.7,641.1,625.7z"/>
	<path d="M718.3,648.3c-8.7,0-15.9-2-21.5-6.1c-5.7-4.1-9.9-10.5-12.7-19.4c-2.8-8.8-4.2-20.3-4.2-34.4c0-14.2,1.4-25.8,4.2-34.6
		c2.8-8.8,7.1-15.3,12.7-19.4c5.7-4.1,12.8-6.1,21.5-6.1c8.6,0,15.7,2,21.4,6.1c5.7,4.1,10,10.5,13,19.4c2.9,8.9,4.4,20.4,4.4,34.6
		c0,14.1-1.5,25.5-4.4,34.4c-2.9,8.9-7.2,15.3-13,19.4C734,646.3,726.9,648.3,718.3,648.3z M718.3,627.4c3.2,0,5.7-1,7.5-2.9
		c1.8-2,3.1-5.2,3.9-9.7c0.8-4.5,1.2-10.6,1.2-18.3v-16.3c0-7.7-0.4-13.8-1.2-18.3c-0.8-4.5-2.1-7.7-3.9-9.7c-1.8-2-4.3-2.9-7.5-2.9
		c-3,0-5.5,1-7.4,2.9c-1.9,2-3.2,5.2-3.9,9.7c-0.7,4.5-1.1,10.6-1.1,18.3v16.3c0,7.7,0.4,13.8,1.1,18.3c0.7,4.5,2,7.7,3.9,9.7
		C712.8,626.5,715.3,627.4,718.3,627.4z"/>
	<path d="M761.6,645.7V531h21.1l1.5,15.5h0.9c1.3-3.9,2.8-7.2,4.6-9.9c1.7-2.7,3.7-4.7,6-6.1c2.2-1.4,4.8-2.1,7.5-2.1
		c1,0,2.1,0.1,3.2,0.2c1.1,0.1,2.1,0.4,3.2,0.9v27H801c-2.5,0-4.6,0.6-6.4,1.7c-1.8,1.2-3.3,2.9-4.5,5.2c-1.2,2.3-2,5.3-2.6,9
		c-0.6,3.7-0.9,8.1-0.9,13.2v60.1H761.6z"/>
	<path d="M828.2,648.3c-4.1,0-7.7-0.7-10.9-2c-3.2-1.3-5.9-3.3-8.2-5.9c-2.3-2.6-3.9-5.9-5-9.9c-1.1-4-1.6-8.5-1.6-13.6
		c0-5.8,0.9-11.1,2.6-15.9c1.7-4.8,4.5-9,8.3-12.5c3.8-3.6,8.8-6.3,15.1-8.2c6.3-1.9,13.9-2.8,22.7-2.8v-14.4c0-2.9-0.4-5.4-1.1-7.4
		c-0.7-2-1.9-3.6-3.5-4.8c-1.6-1.2-3.5-1.7-5.7-1.7c-3,0-5.4,0.7-7,2.1c-1.6,1.4-2.6,3.2-3.2,5.4c-0.5,2.3-0.8,4.8-0.8,7.5v2h-23.7
		c-0.1-0.6-0.2-1.2-0.2-1.8c0-0.7,0-1.3,0-2.1c0-7.8,1.5-14.3,4.6-19.3c3-5,7.3-8.7,12.7-11.1s11.7-3.6,18.8-3.6
		c6.5,0,12.3,1,17.4,3c5.1,2,9.1,5.7,12.1,10.9c3,5.2,4.5,12.6,4.5,22.2V620c0,2.3,0.5,4.1,1.4,5.3c0.9,1.2,2.4,1.8,4.5,1.8h4.8
		v17.2c-2.3,1.2-4.9,2.1-7.8,2.7c-2.9,0.7-5.8,1-8.7,1c-3.5,0-6.4-0.6-8.8-1.9c-2.4-1.2-4.2-3-5.6-5.2c-1.3-2.2-2.1-4.8-2.4-7.5
		h-1.1c-1.5,2.8-3.3,5.2-5.4,7.4c-2.2,2.2-4.8,4-7.8,5.3C836.3,647.7,832.6,648.3,828.2,648.3z M838.3,627.4c1.7,0,3.4-0.5,5-1.6
		c1.6-1.1,3-2.6,4.2-4.6c1.2-2,2.2-4.3,2.8-7.1c0.7-2.8,1-5.9,1-9.6v-11.5c-6.5,0-11.4,0.9-14.7,2.6s-5.4,4.1-6.5,7.1
		c-1.1,3-1.6,6.3-1.6,9.9c0,3.2,0.4,5.9,1.1,8.1c0.7,2.2,1.8,3.8,3.3,5C834.3,626.9,836.1,627.4,838.3,627.4z"/>
</g>
<g>
	<path d="M1608.7,163.7c-7.1,0-12.4-2.1-15.9-6.3c-3.5-4.2-5.2-10.6-5.2-19.2c0-3.9,0.3-8.2,0.9-13c0.6-4.8,1.5-9.6,2.7-14.4
		c1.7-6.8,4-12.9,6.7-18.2c2.7-5.3,6.1-9.5,10.3-12.6c4.2-3.1,9.3-4.7,15.5-4.7c4.4,0,8.1,0.8,11,2.4c2.9,1.6,5.1,3.9,6.5,6.8
		c1.4,3,2.1,6.6,2.1,10.8c0,1.7-0.1,3.5-0.2,5.4c-0.2,1.9-0.5,3.9-0.9,6h-5.8c0.3-1.9,0.6-3.7,0.7-5.3c0.2-1.7,0.2-3.2,0.2-4.7
		c0-3.5-0.5-6.4-1.5-8.7c-1-2.3-2.5-4.1-4.6-5.3c-2.1-1.2-4.8-1.8-8.1-1.8c-3.2,0-6.2,0.7-9,2.2c-2.8,1.5-5.4,3.8-7.8,6.9
		c-2.4,3.2-4.5,7.3-6.3,12.4c-1.8,5.1-3.4,11.3-4.7,18.6c-0.2,1.6-0.5,3.1-0.7,4.7c-0.2,1.5-0.4,3-0.6,4.3c-0.1,1.3-0.2,2.6-0.3,3.9
		c-0.1,1.3-0.1,2.5-0.1,3.7c0,4.8,0.6,8.7,1.8,11.8c1.2,3.1,2.9,5.3,5.2,6.7c2.2,1.4,5,2.1,8.2,2.1c4.1,0,7.6-0.9,10.8-2.8
		c3.1-1.9,5.7-4.7,7.8-8.5c2.1-3.8,3.6-8.7,4.7-14.7h5.7c-1.2,7.4-3.2,13.4-5.8,18c-2.7,4.6-5.9,8-9.8,10.2
		C1618.1,162.7,1613.7,163.7,1608.7,163.7z"/>
	<path d="M1654,163.7c-3.2,0-5.8-0.6-8.1-1.8c-2.2-1.2-3.9-3.1-5-5.8c-1.1-2.7-1.7-6.2-1.7-10.6c0-4.6,0.3-9.3,1-14
		c0.7-4.7,1.7-9.1,3-13.2c1.4-4.4,3.1-8.3,5.1-11.8c2-3.5,4.3-6.2,7-8.2c2.7-2,5.6-3,8.8-3c3.2,0,5.8,0.6,8.1,1.8
		c2.2,1.2,3.9,3.1,5,5.8c1.1,2.7,1.7,6.3,1.7,10.8c0,4.7-0.3,9.5-1,14.2c-0.7,4.8-1.7,9.2-3.1,13.4c-1.3,4.3-3,8.1-5,11.5
		c-2,3.4-4.4,6-7,8C1660.2,162.8,1657.2,163.7,1654,163.7z M1653.9,158.9c3,0,5.7-1.4,8.1-4.1c2.4-2.7,4.4-6.3,6.1-10.6
		c1.7-4.4,2.9-9,3.7-14c0.3-1.9,0.6-3.8,0.8-5.7c0.2-1.9,0.4-3.8,0.5-5.7c0.1-1.9,0.2-3.6,0.2-5.3c0-3.1-0.3-5.7-1-7.6
		c-0.7-1.9-1.7-3.4-3-4.3c-1.3-0.9-3-1.4-5.1-1.4c-2.7,0-5.2,1.2-7.5,3.5c-2.3,2.4-4.2,5.5-5.8,9.4c-1.6,3.9-2.9,8.1-3.9,12.7
		c-0.5,2.2-0.9,4.4-1.2,6.7c-0.3,2.3-0.6,4.5-0.7,6.8c-0.2,2.2-0.2,4.4-0.2,6.3c0,3.2,0.3,5.7,1,7.6c0.7,1.9,1.7,3.4,3.1,4.3
		C1650.2,158.4,1651.9,158.9,1653.9,158.9z"/>
	<path d="M1677.5,162.2l15.7-89.9h5.3l-15.8,89.9H1677.5z"/>
	<path d="M1704.6,163.7c-2.7,0-4.9-0.6-6.7-1.9c-1.8-1.2-3.2-3.2-4-5.8c-0.9-2.7-1.3-6.1-1.3-10.3c0-4.9,0.4-9.9,1.2-15.1
		c0.8-5.2,1.9-10.1,3.4-14.6c1.3-3.9,2.9-7.4,4.7-10.6c1.8-3.2,3.9-5.6,6.2-7.4c2.4-1.8,4.9-2.7,7.7-2.7c2.4,0,4.3,0.5,5.8,1.4
		c1.4,1,2.6,2.2,3.5,3.8c0.9,1.6,1.5,3.3,1.9,5.2h0.6l2.2-9h3.9l-2.5,14.4c-0.3,2.2-0.8,5-1.4,8.4c-0.6,3.4-1.3,7.1-2,11.1
		c-0.7,3.9-1.4,7.7-2,11.3c-0.6,3.6-1.1,6.7-1.6,9.2c-0.4,2.5-0.6,4.1-0.6,4.8c0,0.9,0.1,1.6,0.4,2c0.2,0.4,0.9,0.6,2,0.6h4.2
		l-0.6,3.4c-0.7,0.4-1.6,0.8-2.5,1.1c-1,0.3-1.9,0.4-2.8,0.4c-1.4,0-2.7-0.4-3.9-1.1c-1.2-0.7-1.8-2.2-2-4.4c0-0.7,0.1-1.4,0.2-2.2
		c0.1-0.8,0.3-1.6,0.4-2.5l-0.5-0.2c-1.2,2.7-3.1,5.2-5.5,7.4C1710.5,162.6,1707.8,163.7,1704.6,163.7z M1705.2,158.9
		c1.8,0,3.6-0.6,5.2-1.9c1.7-1.3,3.2-3,4.6-5.2c1.4-2.2,2.7-4.7,3.8-7.6c1.1-2.9,2.1-6,2.8-9.2c0.5-2.2,0.9-4.4,1.3-6.6
		c0.4-2.2,0.6-4.5,0.8-6.7c0.2-2.2,0.2-4.3,0.2-6.4c0-3.2-0.3-6-0.8-8.2c-0.5-2.2-1.4-3.9-2.6-5.1c-1.2-1.2-2.8-1.7-4.7-1.7
		c-1.8,0-3.6,0.7-5.3,2.2c-1.7,1.5-3.2,3.6-4.5,6.2c-1.3,2.7-2.5,5.6-3.6,8.8c-0.9,2.9-1.7,6-2.4,9.3c-0.7,3.3-1.2,6.5-1.6,9.6
		c-0.3,3.2-0.5,6.2-0.5,9.2c0,4.6,0.6,7.9,1.8,10.1C1701,157.8,1702.8,158.9,1705.2,158.9z"/>
	<path d="M1748.2,163.7c-3.5,0-6-1-7.6-3.1c-1.6-2.1-2.8-4.5-3.4-7.3h-0.6l-2.2,9h-3.7l15.7-89.9h5.3l-5.6,31.8h0.6
		c1.2-1.8,2.4-3.4,3.9-4.7c1.4-1.3,2.9-2.3,4.5-3c1.6-0.7,3.2-1.1,4.7-1.1c2.5,0,4.6,0.6,6.3,1.9c1.7,1.2,3,3.2,3.9,5.8
		c0.9,2.7,1.3,6.1,1.3,10.3c0,2.7-0.1,5.3-0.3,8c-0.2,2.7-0.5,5.3-0.9,8c-0.9,6.2-2.4,11.9-4.4,17.2c-2,5.2-4.5,9.4-7.4,12.6
		C1755.2,162.2,1751.9,163.7,1748.2,163.7z M1747.9,158.9c2.2,0,4.3-0.9,6.1-2.7c1.8-1.8,3.4-4.2,4.9-7.2c1.4-3,2.6-6.4,3.6-10.2
		c0.7-2.7,1.3-5.4,1.8-8.3c0.5-2.9,0.8-5.7,1.1-8.6c0.2-2.9,0.4-5.7,0.4-8.5c0-3.1-0.2-5.6-0.6-7.5c-0.4-1.9-1.2-3.4-2.2-4.4
		c-1.1-1-2.5-1.4-4.2-1.4c-1.6,0-3.1,0.5-4.5,1.5c-1.4,1-2.8,2.4-4.1,4.1c-1.3,1.7-2.5,3.8-3.5,6.1c-1,2.3-2,4.9-2.8,7.6
		c-0.7,2.6-1.4,5.2-2,8c-0.6,2.7-1,5.5-1.3,8.3c-0.3,2.8-0.4,5.5-0.4,8.1c0,3.2,0.3,5.9,0.9,8.1c0.6,2.3,1.4,4,2.6,5.2
		C1744.6,158.3,1746.1,158.9,1747.9,158.9z"/>
	<path d="M1786.3,163.7c-3.2,0-5.8-0.6-8.1-1.8c-2.2-1.2-3.9-3.1-5-5.8c-1.1-2.7-1.7-6.2-1.7-10.6c0-4.6,0.3-9.3,1-14
		c0.7-4.7,1.7-9.1,3-13.2c1.4-4.4,3.1-8.3,5.1-11.8c2-3.5,4.3-6.2,7-8.2c2.7-2,5.6-3,8.8-3c3.2,0,5.8,0.6,8.1,1.8
		c2.2,1.2,3.9,3.1,5,5.8c1.1,2.7,1.7,6.3,1.7,10.8c0,4.7-0.3,9.5-1,14.2c-0.7,4.8-1.7,9.2-3.1,13.4c-1.3,4.3-3,8.1-5,11.5
		c-2,3.4-4.4,6-7,8C1792.5,162.8,1789.6,163.7,1786.3,163.7z M1786.2,158.9c3,0,5.7-1.4,8.1-4.1c2.4-2.7,4.4-6.3,6.1-10.6
		c1.7-4.4,2.9-9,3.7-14c0.3-1.9,0.6-3.8,0.8-5.7c0.2-1.9,0.4-3.8,0.5-5.7c0.1-1.9,0.2-3.6,0.2-5.3c0-3.1-0.3-5.7-1-7.6
		c-0.7-1.9-1.7-3.4-3-4.3c-1.3-0.9-3-1.4-5.1-1.4c-2.7,0-5.2,1.2-7.5,3.5c-2.3,2.4-4.2,5.5-5.8,9.4c-1.6,3.9-2.9,8.1-3.9,12.7
		c-0.5,2.2-0.9,4.4-1.2,6.7c-0.3,2.3-0.6,4.5-0.7,6.8c-0.2,2.2-0.2,4.4-0.2,6.3c0,3.2,0.3,5.7,1,7.6c0.7,1.9,1.7,3.4,3.1,4.3
		C1782.5,158.4,1784.2,158.9,1786.2,158.9z"/>
	<path d="M1809.7,162.2l11.6-65.4h3.9l-1,9h0.6c1.2-2.7,2.4-4.7,3.9-6.2c1.4-1.5,2.9-2.6,4.4-3.2c1.5-0.7,3-1,4.5-1
		c0.4,0,0.8,0,1.1,0c0.3,0,0.7,0.1,1,0.2l-1.1,6.2h-2.2c-1.2,0-2.6,0.4-4,1.1c-1.4,0.7-2.7,1.8-4,3.2c-1.2,1.5-2.4,3.3-3.4,5.5
		c-1,2.2-1.8,4.9-2.4,8.1l-7.5,42.5H1809.7z"/>
	<path d="M1841.9,163.7c-2.7,0-4.9-0.6-6.7-1.9c-1.8-1.2-3.2-3.2-4-5.8c-0.9-2.7-1.3-6.1-1.3-10.3c0-4.9,0.4-9.9,1.2-15.1
		c0.8-5.2,1.9-10.1,3.4-14.6c1.3-3.9,2.9-7.4,4.7-10.6c1.8-3.2,3.9-5.6,6.2-7.4c2.4-1.8,4.9-2.7,7.6-2.7c2.4,0,4.3,0.5,5.8,1.4
		c1.4,1,2.6,2.2,3.5,3.8c0.9,1.6,1.5,3.3,1.9,5.2h0.6l2.2-9h3.9l-2.5,14.4c-0.3,2.2-0.8,5-1.4,8.4c-0.6,3.4-1.3,7.1-2,11.1
		c-0.7,3.9-1.4,7.7-2,11.3s-1.1,6.7-1.6,9.2c-0.4,2.5-0.6,4.1-0.6,4.8c0,0.9,0.1,1.6,0.4,2c0.2,0.4,0.9,0.6,2,0.6h4.2l-0.6,3.4
		c-0.7,0.4-1.6,0.8-2.5,1.1c-1,0.3-1.9,0.4-2.8,0.4c-1.4,0-2.7-0.4-3.9-1.1c-1.2-0.7-1.8-2.2-2-4.4c0-0.7,0.1-1.4,0.2-2.2
		c0.1-0.8,0.3-1.6,0.4-2.5l-0.5-0.2c-1.2,2.7-3.1,5.2-5.5,7.4C1847.9,162.6,1845.1,163.7,1841.9,163.7z M1842.6,158.9
		c1.8,0,3.6-0.6,5.2-1.9c1.7-1.3,3.2-3,4.6-5.2c1.4-2.2,2.7-4.7,3.8-7.6c1.1-2.9,2.1-6,2.8-9.2c0.5-2.2,0.9-4.4,1.3-6.6
		c0.4-2.2,0.6-4.5,0.8-6.7c0.2-2.2,0.2-4.3,0.2-6.4c0-3.2-0.3-6-0.8-8.2c-0.5-2.2-1.4-3.9-2.6-5.1c-1.2-1.2-2.8-1.7-4.7-1.7
		c-1.8,0-3.6,0.7-5.3,2.2c-1.7,1.5-3.2,3.6-4.5,6.2c-1.3,2.7-2.5,5.6-3.6,8.8c-0.9,2.9-1.7,6-2.4,9.3c-0.7,3.3-1.2,6.5-1.6,9.6
		c-0.3,3.2-0.5,6.2-0.5,9.2c0,4.6,0.6,7.9,1.8,10.1C1838.3,157.8,1840.1,158.9,1842.6,158.9z"/>
</g>
<g>
	<path d="M1525,303.5c-7.9,0-14.3-2-19.2-6c-4.9-4-8.5-10.1-10.7-18.3c-2.2-8.2-3.3-18.6-3.3-31.1c0-19,2.9-32.9,8.8-41.8
		c5.9-8.9,14.7-13.4,26.5-13.4c6.7,0,12.3,1.5,16.8,4.4c4.5,2.9,7.8,7.4,10,13.4c2.2,6.1,3.3,13.9,3.3,23.4h-12.7
		c0-6.3-0.6-11.7-1.7-16.1c-1.1-4.4-3.1-7.7-5.8-10c-2.7-2.3-6.3-3.4-10.7-3.4c-4.5,0-8.3,1.4-11.4,4.1c-3.2,2.7-5.5,7-7.2,12.9
		c-1.6,5.9-2.4,13.5-2.4,22.9v8.1c0,9.2,0.8,16.7,2.3,22.5c1.5,5.8,3.8,10.1,6.8,12.7c3,2.7,6.7,4,11.2,4c4.4,0,7.9-1.1,10.7-3.3
		c2.8-2.2,4.9-5.4,6.3-9.7c1.4-4.3,2.1-9.8,2.1-16.4h12.4c0,9.5-1.2,17.3-3.7,23.3c-2.5,6-6.1,10.4-10.9,13.3
		C1537.8,302.1,1532,303.5,1525,303.5z"/>
	<path d="M1584.8,303.5c-5.4,0-9.9-1.4-13.6-4.2c-3.7-2.8-6.5-7.3-8.3-13.6c-1.9-6.3-2.8-14.6-2.8-25c0-10.4,0.9-18.7,2.8-25
		c1.9-6.3,4.6-10.8,8.3-13.7c3.7-2.8,8.2-4.3,13.6-4.3c5.5,0,10.1,1.4,13.8,4.3c3.7,2.9,6.5,7.4,8.4,13.7c1.9,6.3,2.8,14.6,2.8,25
		c0,10.4-0.9,18.7-2.8,25c-1.9,6.3-4.7,10.8-8.4,13.6C1594.9,302.1,1590.2,303.5,1584.8,303.5z M1584.8,293.4c3.1,0,5.6-1,7.5-2.9
		c1.9-1.9,3.2-5.1,4-9.5c0.8-4.4,1.2-10.2,1.2-17.3v-5.9c0-7.3-0.4-13.1-1.2-17.4c-0.8-4.4-2.2-7.5-4-9.5c-1.9-2-4.4-3-7.5-3
		c-2.9,0-5.3,1-7.2,3c-1.9,2-3.3,5.1-4.1,9.5c-0.8,4.4-1.2,10.2-1.2,17.4v5.9c0,7.2,0.4,12.9,1.2,17.3c0.8,4.4,2.2,7.6,4.1,9.5
		C1579.4,292.4,1581.8,293.4,1584.8,293.4z"/>
	<path d="M1615.2,301.6V189h11.7v112.6H1615.2z"/>
	<path d="M1649.7,303.5c-2.8,0-5.3-0.5-7.5-1.4c-2.2-0.9-4.1-2.3-5.7-4.1c-1.6-1.8-2.7-4.1-3.5-6.9c-0.8-2.8-1.2-6-1.2-9.5
		c0-3.8,0.5-7.4,1.6-10.7c1.1-3.3,2.9-6.2,5.5-8.8c2.6-2.5,6.2-4.5,10.8-5.9c4.6-1.4,10.4-2.1,17.3-2.1v-12.9c0-2.9-0.3-5.3-1-7.2
		c-0.7-1.9-1.8-3.4-3.3-4.4c-1.6-1-3.5-1.6-5.9-1.6c-3.2,0-5.6,0.7-7.2,2.1c-1.6,1.4-2.6,3.3-3.1,5.6c-0.5,2.3-0.8,4.9-0.8,7.7v1.1
		h-11c-0.1-0.4-0.2-0.9-0.2-1.4c0-0.5,0-1.1,0-1.7c0-5.9,1-10.5,3.1-13.9c2.1-3.4,4.8-5.8,8.2-7.3c3.4-1.5,7.3-2.3,11.5-2.3
		c4.2,0,8,0.7,11.1,2.1c3.2,1.4,5.6,3.8,7.5,7.2c1.8,3.4,2.7,8.2,2.7,14.5v46.3c0,1.8,0.3,3.1,1,4c0.7,0.9,1.6,1.3,2.7,1.3h4.7v7.8
		c-1.3,0.6-2.9,1.2-4.5,1.6c-1.7,0.5-3.4,0.7-5.1,0.7c-2.2,0-4-0.5-5.4-1.6c-1.4-1-2.4-2.4-3-4.2c-0.6-1.8-1-3.7-1.1-5.8h-0.9
		c-1,2.2-2.4,4.1-4,5.9c-1.6,1.8-3.5,3.2-5.7,4.2C1655.3,303,1652.7,303.5,1649.7,303.5z M1653.5,293.4c1.6,0,3.1-0.4,4.7-1.2
		c1.6-0.8,3.1-2.1,4.4-3.9c1.3-1.8,2.4-4,3.3-6.6c0.8-2.6,1.2-5.8,1.2-9.4v-10c-6.4,0-11.3,0.8-14.6,2.4c-3.3,1.6-5.6,3.7-6.8,6.4
		c-1.2,2.6-1.8,5.6-1.8,8.8c0,3,0.4,5.5,1.1,7.5c0.7,2,1.8,3.5,3.2,4.5C1649.7,292.9,1651.4,293.4,1653.5,293.4z"/>
	<path d="M1714.7,303.5c-4.4,0-7.9-1.2-10.5-3.7c-2.6-2.5-4.5-5.4-5.5-8.7h-0.8l-0.9,10.6h-9.2V189h11.7v40h0.8
		c0.9-2.5,2.1-4.5,3.4-6.1c1.3-1.6,3-2.8,4.9-3.7c1.9-0.9,4-1.3,6.3-1.3c4.6,0,8.3,1.5,11.2,4.4c2.9,2.9,5.1,7.4,6.5,13.6
		c1.4,6.2,2.1,14.4,2.1,24.6c0,10.6-0.7,19-2.2,25.3c-1.5,6.3-3.7,10.9-6.6,13.6S1719.2,303.5,1714.7,303.5z M1711.3,292.9
		c2.8,0,5-1,6.7-3.1c1.7-2.1,2.8-5.3,3.5-9.6c0.7-4.4,1-9.9,1-16.6v-5.3c0-6.9-0.4-12.6-1.2-16.9c-0.8-4.3-1.9-7.5-3.5-9.5
		c-1.6-2-3.6-3-6.2-3c-2,0-3.7,0.6-5.3,1.8c-1.6,1.2-2.8,3-3.8,5.4c-1,2.4-1.7,5.4-2.3,9.1c-0.5,3.7-0.8,8.1-0.8,13.1v5.3
		c0,6.3,0.4,11.7,1.2,16c0.8,4.4,2,7.7,3.8,10C1706.2,291.8,1708.5,292.9,1711.3,292.9z"/>
	<path d="M1762.5,303.5c-5.4,0-9.9-1.4-13.6-4.2c-3.7-2.8-6.5-7.3-8.3-13.6c-1.9-6.3-2.8-14.6-2.8-25c0-10.4,0.9-18.7,2.8-25
		c1.9-6.3,4.6-10.8,8.3-13.7c3.7-2.8,8.2-4.3,13.6-4.3c5.5,0,10.1,1.4,13.8,4.3c3.7,2.9,6.5,7.4,8.4,13.7c1.9,6.3,2.8,14.6,2.8,25
		c0,10.4-0.9,18.7-2.8,25c-1.9,6.3-4.7,10.8-8.4,13.6C1772.6,302.1,1767.9,303.5,1762.5,303.5z M1762.5,293.4c3.1,0,5.6-1,7.5-2.9
		c1.9-1.9,3.2-5.1,4-9.5c0.8-4.4,1.2-10.2,1.2-17.3v-5.9c0-7.3-0.4-13.1-1.2-17.4c-0.8-4.4-2.2-7.5-4-9.5c-1.9-2-4.4-3-7.5-3
		c-2.9,0-5.3,1-7.2,3c-1.9,2-3.3,5.1-4.1,9.5c-0.8,4.4-1.2,10.2-1.2,17.4v5.9c0,7.2,0.4,12.9,1.2,17.3c0.8,4.4,2.2,7.6,4.1,9.5
		C1757.1,292.4,1759.6,293.4,1762.5,293.4z"/>
	<path d="M1792.9,301.6v-81.9h9.3l0.9,11.2h0.8c1-3.1,2.2-5.6,3.6-7.5c1.3-1.9,2.8-3.3,4.4-4.2c1.6-0.9,3.3-1.4,5.2-1.4
		c0.6,0,1.2,0.1,1.8,0.2c0.6,0.1,1.1,0.3,1.6,0.5v12.9h-4.4c-1.5,0-2.9,0.4-4.4,1.2c-1.5,0.8-2.7,2-3.8,3.7
		c-1.1,1.7-1.9,3.9-2.6,6.7c-0.6,2.8-0.9,6.2-0.9,10.1v48.7H1792.9z"/>
	<path d="M1834.6,303.5c-2.8,0-5.3-0.5-7.5-1.4c-2.2-0.9-4.1-2.3-5.7-4.1c-1.6-1.8-2.7-4.1-3.5-6.9c-0.8-2.8-1.2-6-1.2-9.5
		c0-3.8,0.5-7.4,1.6-10.7c1.1-3.3,2.9-6.2,5.5-8.8c2.6-2.5,6.2-4.5,10.8-5.9c4.6-1.4,10.4-2.1,17.3-2.1v-12.9c0-2.9-0.3-5.3-1-7.2
		c-0.7-1.9-1.8-3.4-3.3-4.4c-1.6-1-3.5-1.6-5.9-1.6c-3.2,0-5.6,0.7-7.2,2.1c-1.6,1.4-2.6,3.3-3.1,5.6c-0.5,2.3-0.8,4.9-0.8,7.7v1.1
		h-11c-0.1-0.4-0.2-0.9-0.2-1.4c0-0.5,0-1.1,0-1.7c0-5.9,1-10.5,3.1-13.9c2.1-3.4,4.8-5.8,8.2-7.3c3.4-1.5,7.3-2.3,11.5-2.3
		c4.2,0,8,0.7,11.1,2.1c3.2,1.4,5.6,3.8,7.5,7.2c1.8,3.4,2.7,8.2,2.7,14.5v46.3c0,1.8,0.3,3.1,1,4c0.7,0.9,1.6,1.3,2.7,1.3h4.7v7.8
		c-1.3,0.6-2.9,1.2-4.5,1.6c-1.7,0.5-3.4,0.7-5.1,0.7c-2.2,0-4-0.5-5.4-1.6c-1.4-1-2.4-2.4-3-4.2c-0.6-1.8-1-3.7-1.1-5.8h-0.9
		c-1,2.2-2.4,4.1-4,5.9c-1.6,1.8-3.5,3.2-5.7,4.2C1840.2,303,1837.6,303.5,1834.6,303.5z M1838.3,293.4c1.6,0,3.1-0.4,4.7-1.2
		c1.6-0.8,3.1-2.1,4.4-3.9c1.3-1.8,2.4-4,3.3-6.6c0.8-2.6,1.2-5.8,1.2-9.4v-10c-6.4,0-11.3,0.8-14.6,2.4c-3.3,1.6-5.6,3.7-6.8,6.4
		c-1.2,2.6-1.8,5.6-1.8,8.8c0,3,0.4,5.5,1.1,7.5c0.7,2,1.8,3.5,3.2,4.5C1834.5,292.9,1836.3,293.4,1838.3,293.4z"/>
</g>
<g>
	<path d="M1438.9,463c-12.1,0-20.8-3.1-26.3-9.4c-5.5-6.3-8.2-15.8-8.2-28.6c0-4.6,0.3-9.7,0.9-15.2c0.6-5.5,1.6-11.3,2.8-17.4
		c2.5-13.4,5.9-24.8,10.4-34c4.4-9.2,10-16.2,16.9-20.9c6.8-4.7,15.1-7.1,24.8-7.1c6.7,0,12.4,1.2,17.1,3.5
		c4.7,2.3,8.2,5.8,10.7,10.4c2.5,4.7,3.7,10.6,3.7,17.8c0,2.7-0.2,5.6-0.5,8.7c-0.3,3-0.8,6.3-1.4,9.8H1472c0.5-3,0.9-5.7,1.1-8.2
		c0.2-2.5,0.4-4.9,0.4-7.1c0-4.1-0.5-7.5-1.6-10.3c-1.1-2.7-2.7-4.8-4.9-6.2c-2.2-1.4-5.2-2.1-9-2.1s-7.2,0.9-10.3,2.6
		c-3.1,1.7-6,4.4-8.6,8c-2.6,3.6-4.9,8.2-6.9,13.9c-2,5.7-3.7,12.5-5,20.6c-0.9,4.9-1.6,9-2.1,12.5c-0.6,3.5-1,6.4-1.3,8.9
		c-0.3,2.4-0.5,4.5-0.7,6.3c-0.1,1.7-0.2,3.4-0.2,4.9c0,5.2,0.6,9.5,1.9,12.9c1.2,3.4,3.1,5.8,5.6,7.4c2.5,1.6,5.5,2.3,9.1,2.3
		c4.9,0,9-1.2,12.5-3.6c3.5-2.4,6.4-6.1,8.9-11.1c2.4-5,4.3-11.3,5.7-18.8h17.5c-2,11.7-5,21.2-9,28.5c-4,7.3-9.1,12.7-15.1,16.1
		C1453.9,461.3,1446.9,463,1438.9,463z"/>
	<path d="M1510,463c-5.6,0-10.3-1-14.1-3c-3.8-2-6.6-5.2-8.5-9.5c-1.9-4.4-2.8-9.9-2.8-16.8c0-4.1,0.2-8.5,0.7-13.1
		c0.4-4.6,1.2-9.3,2.3-14.2c2.1-10.7,4.9-19.4,8.2-26.2c3.4-6.8,7.5-11.8,12.4-15.1c4.9-3.3,10.5-4.9,16.9-4.9c5.7,0,10.5,1,14.3,3
		c3.8,2,6.7,5.1,8.6,9.4c1.9,4.3,2.9,10,2.9,17.1c0,4.1-0.3,8.5-0.8,13.2s-1.3,9.4-2.3,14.3c-2,10.6-4.7,19.2-8.2,26
		c-3.5,6.8-7.6,11.8-12.5,15C1522.2,461.4,1516.5,463,1510,463z M1511,449c3.4,0,6.3-1.2,8.8-3.5c2.5-2.4,4.7-6,6.5-10.8
		c1.9-4.9,3.4-10.9,4.7-18.3c0.9-5.5,1.6-9.9,2.1-13.3c0.5-3.4,0.8-6.2,1-8.5s0.3-4.2,0.3-5.8c0-3.5-0.3-6.3-1-8.4
		c-0.7-2.1-1.8-3.7-3.3-4.7c-1.5-1-3.4-1.5-5.8-1.5c-3.1,0-5.9,1.2-8.4,3.5c-2.5,2.3-4.6,5.8-6.3,10.4c-1.7,4.7-3.3,10.6-4.7,17.8
		c-1,5.5-1.8,10-2.4,13.7c-0.6,3.7-1,6.7-1.2,9c-0.2,2.4-0.3,4.5-0.3,6.3c0,3.2,0.4,5.9,1.1,8c0.7,2.1,1.9,3.6,3.4,4.6
		C1506.9,448.5,1508.7,449,1511,449z"/>
	<path d="M1545.9,460.7l23.5-135.1h16.6l-23.7,135.1H1545.9z"/>
	<path d="M1592.9,463c-4.1,0-7.6-1-10.4-3c-2.9-2-5-5-6.3-9c-1.4-4-2.1-9-2.1-15.1c0-4.7,0.3-9.7,0.8-14.8
		c0.6-5.2,1.5-10.4,2.7-15.8c1.7-8.8,4-16.6,6.8-23.3c2.8-6.7,6.2-12,10.3-15.9c4-3.9,8.8-5.8,14.3-5.8c3.6,0,6.6,0.7,8.9,2
		c2.3,1.3,4.1,3,5.5,5.2c1.4,2.2,2.4,4.7,3.2,7.6h0.9l4.5-12.7h12.1l-4.5,24.6c-0.5,3.1-1.2,7-2.1,11.6c-0.9,4.6-1.7,9.5-2.6,14.6
		c-0.9,5.1-1.7,10-2.5,14.6c-0.8,4.6-1.5,8.5-2,11.7c-0.5,3.2-0.7,5.1-0.7,5.9c0,1.4,0.3,2.4,0.8,3.1c0.6,0.7,1.5,1,2.7,1h5.8
		l-2.1,10.8c-1.5,0.7-3.2,1.4-5,2c-1.9,0.6-3.7,0.8-5.4,0.8c-3.1,0-5.8-0.9-8-2.6s-3.4-4.8-3.4-9.1c0-0.5,0-1,0.1-1.6
		c0.1-0.6,0.2-1.1,0.3-1.8l-0.7-0.4c-2,4-4.8,7.6-8.5,10.7C1602.5,461.4,1598.1,463,1592.9,463z M1599.4,447.3c2.1,0,4.1-0.7,6-2.1
		c1.9-1.4,3.6-3.4,5.2-6.1c1.6-2.7,3.1-5.9,4.4-9.8c1.3-3.9,2.5-8.2,3.5-13.1c0.9-5,1.5-9,2-12.2c0.4-3.2,0.7-5.8,0.9-8
		c0.2-2.2,0.3-4.1,0.3-5.9c0-3.4-0.3-6.2-0.9-8.4c-0.6-2.2-1.6-3.9-3-5c-1.4-1.1-3.2-1.7-5.4-1.7c-2.6,0-5,1-7.1,3.1
		c-2.1,2.1-3.9,5.1-5.5,9.2c-1.6,4.1-3,9.3-4.4,15.5c-1.1,5.3-2,9.9-2.6,13.5c-0.6,3.7-1.1,6.8-1.3,9.4c-0.3,2.6-0.4,5-0.4,7.3
		c0,4.9,0.7,8.4,2.1,10.7C1594.4,446.2,1596.5,447.3,1599.4,447.3z"/>
	<path d="M1671,463c-5.6,0-9.8-1.5-12.6-4.4s-4.6-6.4-5.3-10.4h-0.9l-3.4,12.5h-13.1l23.5-135.1h16.4l-8.4,47.8h0.9
		c1.5-2.7,3.2-5.1,5.2-7.1c2-2,4.2-3.5,6.5-4.6c2.4-1.1,4.8-1.6,7.3-1.6c4.1,0,7.5,0.9,10.3,2.7c2.7,1.8,4.8,4.5,6.2,8.2
		c1.4,3.7,2.1,8.4,2.1,14.3c0,3.6-0.2,7.6-0.6,11.9c-0.4,4.4-1,9-1.9,13.8c-1.9,11.7-4.4,21.4-7.5,29c-3.1,7.6-6.7,13.4-10.8,17.2
		C1680.9,461.1,1676.3,463,1671,463z M1667.1,448.2c3,0,5.5-1.1,7.6-3.3c2.1-2.2,4-5.4,5.6-9.7c1.6-4.3,3-9.6,4.3-16
		c1-5.3,1.8-9.8,2.3-13.2c0.6-3.5,0.9-6.5,1.1-9c0.2-2.5,0.3-4.9,0.3-7c0-3.2-0.3-5.9-0.8-8c-0.6-2.1-1.5-3.7-2.7-4.7
		c-1.2-1-2.9-1.5-4.9-1.5c-2,0-3.9,0.7-5.6,2c-1.7,1.3-3.4,3.2-5,5.7c-1.6,2.5-3,5.5-4.3,9.1c-1.2,3.6-2.4,7.8-3.4,12.5
		c-1,5.1-1.8,9.3-2.3,12.7s-0.9,6.2-1.1,8.6c-0.2,2.4-0.3,4.5-0.3,6.5c0,3.2,0.3,6,0.9,8.3c0.6,2.3,1.6,4,3,5.2
		C1663.3,447.7,1665,448.2,1667.1,448.2z"/>
	<path d="M1728.9,463c-5.6,0-10.3-1-14.1-3c-3.8-2-6.6-5.2-8.5-9.5c-1.9-4.4-2.8-9.9-2.8-16.8c0-4.1,0.2-8.5,0.7-13.1
		c0.4-4.6,1.2-9.3,2.3-14.2c2.1-10.7,4.9-19.4,8.2-26.2c3.4-6.8,7.5-11.8,12.4-15.1c4.9-3.3,10.5-4.9,16.9-4.9c5.7,0,10.5,1,14.3,3
		c3.8,2,6.7,5.1,8.6,9.4c1.9,4.3,2.9,10,2.9,17.1c0,4.1-0.3,8.5-0.8,13.2c-0.6,4.7-1.3,9.4-2.3,14.3c-2,10.6-4.7,19.2-8.2,26
		c-3.5,6.8-7.6,11.8-12.5,15C1741,461.4,1735.3,463,1728.9,463z M1729.8,449c3.4,0,6.3-1.2,8.8-3.5c2.5-2.4,4.7-6,6.5-10.8
		c1.9-4.9,3.4-10.9,4.7-18.3c0.9-5.5,1.6-9.9,2.1-13.3c0.5-3.4,0.8-6.2,1-8.5s0.3-4.2,0.3-5.8c0-3.5-0.3-6.3-1-8.4
		c-0.7-2.1-1.8-3.7-3.3-4.7c-1.5-1-3.4-1.5-5.8-1.5c-3.1,0-5.9,1.2-8.4,3.5c-2.5,2.3-4.6,5.8-6.3,10.4c-1.7,4.7-3.3,10.6-4.7,17.8
		c-1,5.5-1.8,10-2.4,13.7c-0.6,3.7-1,6.7-1.2,9c-0.2,2.4-0.3,4.5-0.3,6.3c0,3.2,0.4,5.9,1.1,8c0.7,2.1,1.9,3.6,3.4,4.6
		C1725.7,448.5,1727.6,449,1729.8,449z"/>
	<path d="M1764.5,460.7l17.2-98.3h12.7l-0.4,13.4h0.7c1.7-3.6,3.6-6.5,5.6-8.8c2-2.2,4.1-3.9,6.2-5.1c2.2-1.2,4.4-1.8,6.6-1.8
		c0.9,0,1.7,0.1,2.4,0.2c0.7,0.1,1.5,0.4,2.2,0.7l-3.4,18.3h-5.8c-2,0-3.9,0.5-5.7,1.5c-1.8,1-3.5,2.5-5,4.6c-1.6,2.1-3,4.7-4.2,8
		c-1.2,3.3-2.3,7.2-3.2,11.7l-9.9,55.6H1764.5z"/>
	<path d="M1820.9,463c-4.1,0-7.6-1-10.4-3c-2.9-2-5-5-6.3-9c-1.4-4-2.1-9-2.1-15.1c0-4.7,0.3-9.7,0.8-14.8
		c0.6-5.2,1.5-10.4,2.7-15.8c1.7-8.8,4-16.6,6.8-23.3c2.8-6.7,6.2-12,10.3-15.9c4-3.9,8.8-5.8,14.3-5.8c3.6,0,6.6,0.7,8.9,2
		c2.3,1.3,4.1,3,5.5,5.2c1.4,2.2,2.4,4.7,3.2,7.6h0.9l4.5-12.7h12.1l-4.5,24.6c-0.5,3.1-1.2,7-2.1,11.6c-0.9,4.6-1.7,9.5-2.6,14.6
		c-0.9,5.1-1.7,10-2.5,14.6c-0.8,4.6-1.5,8.5-2,11.7c-0.5,3.2-0.7,5.1-0.7,5.9c0,1.4,0.3,2.4,0.8,3.1c0.6,0.7,1.5,1,2.7,1h5.8
		l-2.1,10.8c-1.5,0.7-3.2,1.4-5,2s-3.7,0.8-5.4,0.8c-3.1,0-5.8-0.9-8-2.6c-2.2-1.7-3.4-4.8-3.4-9.1c0-0.5,0-1,0.1-1.6
		c0.1-0.6,0.2-1.1,0.3-1.8l-0.7-0.4c-2,4-4.8,7.6-8.5,10.7C1830.5,461.4,1826.1,463,1820.9,463z M1827.4,447.3c2.1,0,4.1-0.7,6-2.1
		c1.9-1.4,3.6-3.4,5.2-6.1c1.6-2.7,3.1-5.9,4.4-9.8c1.3-3.9,2.5-8.2,3.5-13.1c0.9-5,1.5-9,2-12.2c0.4-3.2,0.7-5.8,0.9-8
		c0.2-2.2,0.3-4.1,0.3-5.9c0-3.4-0.3-6.2-0.9-8.4c-0.6-2.2-1.6-3.9-3-5c-1.4-1.1-3.2-1.7-5.4-1.7c-2.6,0-5,1-7.1,3.1
		c-2.1,2.1-4,5.1-5.5,9.2c-1.6,4.1-3,9.3-4.4,15.5c-1.1,5.3-2,9.9-2.6,13.5c-0.6,3.7-1.1,6.8-1.3,9.4c-0.2,2.6-0.4,5-0.4,7.3
		c0,4.9,0.7,8.4,2.1,10.7C1822.4,446.2,1824.5,447.3,1827.4,447.3z"/>
</g>
<g>
	<path d="M1346.4,648.3c-11.9,0-21.4-2.8-28.5-8.4c-7.1-5.6-12.2-14.1-15.3-25.6c-3.1-11.5-4.7-26-4.7-43.5
		c0-26.6,4.1-46.1,12.3-58.6c8.2-12.5,21.3-18.7,39.3-18.7c9.7,0,17.8,2,24.4,6.1c6.5,4.1,11.5,10.6,14.8,19.5
		c3.3,8.9,5,20.6,5,34.9h-27.4c0-7.7-0.5-14.3-1.6-19.7s-3-9.5-5.7-12.3c-2.7-2.8-6.4-4.1-11.2-4.1c-4.8,0-8.7,1.5-11.9,4.6
		c-3.1,3-5.4,7.7-6.9,13.9c-1.5,6.2-2.2,14.4-2.2,24.4v20.7c0,9.9,0.7,17.9,2.1,24.2c1.4,6.2,3.6,10.8,6.6,13.7
		c3,2.9,7,4.4,11.8,4.4c4.6,0,8.4-1.3,11.3-3.9c2.9-2.6,5-6.5,6.2-11.8c1.2-5.2,1.8-11.8,1.8-19.8h26.8c0,14.2-1.8,25.8-5.4,34.6
		c-3.6,8.9-8.9,15.3-15.9,19.4C1365.2,646.3,1356.6,648.3,1346.4,648.3z"/>
	<path d="M1433.7,648.3c-8.7,0-15.9-2-21.5-6.1c-5.7-4.1-9.9-10.5-12.7-19.4c-2.8-8.8-4.2-20.3-4.2-34.4c0-14.2,1.4-25.8,4.2-34.6
		c2.8-8.8,7.1-15.3,12.7-19.4c5.7-4.1,12.8-6.1,21.5-6.1c8.6,0,15.7,2,21.4,6.1c5.7,4.1,10,10.5,13,19.4c2.9,8.9,4.4,20.4,4.4,34.6
		c0,14.1-1.5,25.5-4.4,34.4c-2.9,8.9-7.2,15.3-13,19.4C1449.4,646.3,1442.3,648.3,1433.7,648.3z M1433.7,627.4c3.2,0,5.7-1,7.5-2.9
		c1.8-2,3.1-5.2,3.9-9.7c0.8-4.5,1.2-10.6,1.2-18.3v-16.3c0-7.7-0.4-13.8-1.2-18.3c-0.8-4.5-2.1-7.7-3.9-9.7c-1.8-2-4.3-2.9-7.5-2.9
		c-3,0-5.5,1-7.4,2.9c-1.9,2-3.2,5.2-3.9,9.7c-0.7,4.5-1.1,10.6-1.1,18.3v16.3c0,7.7,0.4,13.8,1.1,18.3c0.7,4.5,2,7.7,3.9,9.7
		C1428.2,626.5,1430.7,627.4,1433.7,627.4z"/>
	<path d="M1477,645.7V488.1h25v157.6H1477z"/>
	<path d="M1531.9,648.3c-4.1,0-7.7-0.7-10.9-2c-3.2-1.3-5.9-3.3-8.2-5.9c-2.3-2.6-3.9-5.9-5-9.9c-1.1-4-1.6-8.5-1.6-13.6
		c0-5.8,0.9-11.1,2.6-15.9c1.7-4.8,4.5-9,8.3-12.5c3.8-3.6,8.8-6.3,15.1-8.2c6.3-1.9,13.9-2.8,22.7-2.8v-14.4c0-2.9-0.4-5.4-1.1-7.4
		c-0.7-2-1.9-3.6-3.5-4.8c-1.6-1.2-3.5-1.7-5.7-1.7c-3,0-5.4,0.7-7,2.1c-1.6,1.4-2.6,3.2-3.2,5.4c-0.5,2.3-0.8,4.8-0.8,7.5v2h-23.7
		c-0.1-0.6-0.2-1.2-0.2-1.8c0-0.7,0-1.3,0-2.1c0-7.8,1.5-14.3,4.6-19.3c3-5,7.3-8.7,12.7-11.1s11.7-3.6,18.8-3.6
		c6.5,0,12.3,1,17.4,3c5.1,2,9.1,5.7,12.1,10.9c3,5.2,4.5,12.6,4.5,22.2V620c0,2.3,0.5,4.1,1.4,5.3c0.9,1.2,2.4,1.8,4.5,1.8h4.8
		v17.2c-2.3,1.2-4.9,2.1-7.8,2.7c-2.9,0.7-5.8,1-8.7,1c-3.5,0-6.4-0.6-8.8-1.9c-2.4-1.2-4.2-3-5.6-5.2c-1.3-2.2-2.1-4.8-2.4-7.5
		h-1.1c-1.5,2.8-3.3,5.2-5.4,7.4c-2.2,2.2-4.8,4-7.8,5.3C1539.9,647.7,1536.2,648.3,1531.9,648.3z M1541.9,627.4
		c1.7,0,3.4-0.5,5-1.6c1.6-1.1,3-2.6,4.2-4.6c1.2-2,2.2-4.3,2.8-7.1c0.7-2.8,1-5.9,1-9.6v-11.5c-6.5,0-11.4,0.9-14.7,2.6
		c-3.3,1.7-5.4,4.1-6.5,7.1c-1.1,3-1.6,6.3-1.6,9.9c0,3.2,0.4,5.9,1.1,8.1c0.7,2.2,1.8,3.8,3.3,5
		C1537.9,626.9,1539.7,627.4,1541.9,627.4z"/>
	<path d="M1635.3,648.3c-6.2,0-11.1-1.6-14.7-4.9c-3.6-3.3-6.2-7.1-7.9-11.6h-1.1l-1.7,13.9h-20.5V488.1h25v55.7h1.1
		c1.2-3.2,2.7-5.9,4.6-8.3c1.9-2.3,4.2-4.1,6.9-5.3c2.7-1.2,5.8-1.9,9.5-1.9c6.5,0,11.8,2,15.8,6.1c4,4.1,6.9,10.4,8.8,19
		c1.9,8.6,2.8,19.9,2.8,33.8c0,14.2-1,25.8-2.9,34.7c-2,8.9-5,15.5-9.1,19.8C1647.6,646.2,1642.1,648.3,1635.3,648.3z M1626.4,625.7
		c2.9,0,5.1-1,6.7-3c1.6-2,2.8-5.2,3.5-9.6c0.7-4.4,1.1-10,1.1-17v-13.9c0-7.1-0.4-12.8-1.1-17.2c-0.7-4.4-1.9-7.5-3.6-9.6
		c-1.7-2-3.9-3-6.6-3c-2,0-3.8,0.6-5.4,1.7c-1.6,1.2-2.9,2.9-3.8,5.3c-0.9,2.4-1.6,5.5-2.1,9.3c-0.4,3.8-0.7,8.3-0.7,13.5v13.9
		c0,6.5,0.4,12,1.1,16.4c0.7,4.4,2,7.7,3.7,9.9C1620.9,624.6,1623.3,625.7,1626.4,625.7z"/>
	<path d="M1703.6,648.3c-8.7,0-15.9-2-21.5-6.1c-5.7-4.1-9.9-10.5-12.7-19.4c-2.8-8.8-4.2-20.3-4.2-34.4c0-14.2,1.4-25.8,4.2-34.6
		c2.8-8.8,7.1-15.3,12.7-19.4c5.7-4.1,12.8-6.1,21.5-6.1c8.6,0,15.7,2,21.4,6.1c5.7,4.1,10,10.5,13,19.4c2.9,8.9,4.4,20.4,4.4,34.6
		c0,14.1-1.5,25.5-4.4,34.4c-2.9,8.9-7.2,15.3-13,19.4C1719.3,646.3,1712.2,648.3,1703.6,648.3z M1703.6,627.4c3.2,0,5.7-1,7.5-2.9
		c1.8-2,3.1-5.2,3.9-9.7c0.8-4.5,1.2-10.6,1.2-18.3v-16.3c0-7.7-0.4-13.8-1.2-18.3c-0.8-4.5-2.1-7.7-3.9-9.7c-1.8-2-4.3-2.9-7.5-2.9
		c-3,0-5.5,1-7.4,2.9c-1.9,2-3.2,5.2-3.9,9.7c-0.7,4.5-1.1,10.6-1.1,18.3v16.3c0,7.7,0.4,13.8,1.1,18.3c0.7,4.5,2,7.7,3.9,9.7
		C1698.1,626.5,1700.6,627.4,1703.6,627.4z"/>
	<path d="M1746.9,645.7V531h21.1l1.5,15.5h0.9c1.3-3.9,2.8-7.2,4.6-9.9c1.7-2.7,3.7-4.7,6-6.1c2.2-1.4,4.8-2.1,7.5-2.1
		c1,0,2.1,0.1,3.2,0.2c1.1,0.1,2.1,0.4,3.2,0.9v27h-8.5c-2.5,0-4.6,0.6-6.4,1.7c-1.8,1.2-3.3,2.9-4.5,5.2c-1.2,2.3-2,5.3-2.6,9
		c-0.6,3.7-0.9,8.1-0.9,13.2v60.1H1746.9z"/>
	<path d="M1813.5,648.3c-4.1,0-7.7-0.7-10.9-2c-3.2-1.3-5.9-3.3-8.2-5.9c-2.3-2.6-3.9-5.9-5-9.9c-1.1-4-1.6-8.5-1.6-13.6
		c0-5.8,0.9-11.1,2.6-15.9c1.7-4.8,4.5-9,8.3-12.5c3.8-3.6,8.8-6.3,15.1-8.2c6.3-1.9,13.9-2.8,22.7-2.8v-14.4c0-2.9-0.4-5.4-1.1-7.4
		c-0.7-2-1.9-3.6-3.5-4.8c-1.6-1.2-3.5-1.7-5.7-1.7c-3,0-5.4,0.7-7,2.1c-1.6,1.4-2.6,3.2-3.2,5.4c-0.5,2.3-0.8,4.8-0.8,7.5v2h-23.7
		c-0.1-0.6-0.2-1.2-0.2-1.8c0-0.7,0-1.3,0-2.1c0-7.8,1.5-14.3,4.6-19.3c3-5,7.3-8.7,12.7-11.1c5.4-2.4,11.7-3.6,18.8-3.6
		c6.5,0,12.3,1,17.4,3c5.1,2,9.1,5.7,12.1,10.9c3,5.2,4.5,12.6,4.5,22.2V620c0,2.3,0.5,4.1,1.4,5.3c0.9,1.2,2.4,1.8,4.5,1.8h4.8
		v17.2c-2.3,1.2-4.9,2.1-7.8,2.7c-2.9,0.7-5.8,1-8.7,1c-3.5,0-6.4-0.6-8.8-1.9c-2.4-1.2-4.2-3-5.6-5.2c-1.3-2.2-2.1-4.8-2.4-7.5
		h-1.1c-1.5,2.8-3.3,5.2-5.4,7.4c-2.2,2.2-4.8,4-7.8,5.3C1821.6,647.7,1817.9,648.3,1813.5,648.3z M1823.6,627.4
		c1.7,0,3.4-0.5,5-1.6c1.6-1.1,3-2.6,4.2-4.6c1.2-2,2.2-4.3,2.8-7.1c0.7-2.8,1-5.9,1-9.6v-11.5c-6.5,0-11.4,0.9-14.7,2.6
		c-3.3,1.7-5.4,4.1-6.5,7.1c-1.1,3-1.6,6.3-1.6,9.9c0,3.2,0.4,5.9,1.1,8.1c0.7,2.2,1.8,3.8,3.3,5
		C1819.6,626.9,1821.4,627.4,1823.6,627.4z"/>
</g>
<rect x="231.9" y="0.4" width="35.8" height="721.9"/>
<rect x="942.1" y="-219.8" transform="matrix(-1.358827e-06 -1 1 -1.358827e-06 219.8248 1700.1752)" width="35.8" height="1920"/>
<rect x="942.1" y="-172.7" transform="matrix(-1.358827e-06 -1 1 -1.358827e-06 172.6912 1747.309)" class="st0" width="35.8" height="1920"/>
<rect x="942.1" y="-125.6" transform="matrix(-1.358827e-06 -1 1 -1.358827e-06 125.5576 1794.4427)" class="st1" width="35.8" height="1920"/>
<rect x="942.1" y="-78.4" transform="matrix(-2.832551e-06 -1 1 -2.832551e-06 78.4276 1841.58)" width="35.8" height="1920"/>
<rect x="137.6" y="0.4" class="st1" width="35.8" height="824"/>
<rect x="184.8" y="0.4" class="st0" width="35.8" height="773.8"/>
<rect x="89" y="0.4" width="37.3" height="724.9"/>
</svg>
