<?xml version="1.0" encoding="utf-8"?>
<!-- Generator: Adobe Illustrator 26.0.1, SVG Export Plug-In . SVG Version: 6.00 Build 0)  -->
<svg version="1.1" id="Capa_1" xmlns="http://www.w3.org/2000/svg" xmlns:xlink="http://www.w3.org/1999/xlink" x="0px" y="0px"
	 viewBox="0 0 1440 1024" style="enable-background:new 0 0 1440 1024;" xml:space="preserve">
<g>
	<path d="M644.98,356.45c-9.6,0-18.2-0.94-25.8-2.8c-7.6-1.87-14.07-4.86-19.4-9c-5.34-4.13-9.47-9.46-12.4-16
		c-2.94-6.53-4.4-14.46-4.4-23.8c0-4.26,0.4-9.93,1.2-17c0.8-7.06,1.73-13.26,2.8-18.6h19.6c-0.27,1.87-1.07,6.07-2.4,12.6
		c-1.34,6.54-2,13.27-2,20.2c0,8.54,1.46,15.54,4.4,21c2.93,5.47,7.46,9.47,13.6,12c6.13,2.54,14.13,3.8,24,3.8
		c9.6,0,18.33-1.53,26.2-4.6c7.86-3.06,14.53-7.66,20-13.8c5.46-6.13,9.66-13.6,12.6-22.4c2.93-8.8,4.4-18.8,4.4-30
		c0-7.46-1.2-13.86-3.6-19.2c-2.4-5.33-5.8-10-10.2-14s-9.2-7.53-14.4-10.6c-5.2-3.06-10.6-6.06-16.2-9
		c-6.14-3.2-12.2-6.6-18.2-10.2s-11.4-7.73-16.2-12.4c-4.8-4.66-8.67-10.26-11.6-16.8c-2.94-6.53-4.4-14.46-4.4-23.8
		c0-14.13,2.2-26.26,6.6-36.4c4.4-10.13,10.33-18.4,17.8-24.8c7.46-6.4,15.66-11.06,24.6-14c8.93-2.93,18.06-4.4,27.4-4.4
		c9.33,0,17.53,1,24.6,3c7.06,2,13.2,5.07,18.4,9.2c5.2,4.14,9.06,9.34,11.6,15.6c2.53,6.27,3.8,13.8,3.8,22.6
		c0,3.47-0.2,7.34-0.6,11.6c-0.4,4.27-1.27,9.87-2.6,16.8h-19.6c1.33-6.93,2.2-12.2,2.6-15.8c0.4-3.6,0.6-6.73,0.6-9.4
		c0-11.46-3.07-20.33-9.2-26.6c-6.14-6.26-15.87-9.4-29.2-9.4c-8,0-16.4,1.8-25.2,5.4c-8.8,3.6-16.2,9.67-22.2,18.2
		c-6,8.54-9,20.54-9,36c0,6.94,1.13,12.87,3.4,17.8c2.26,4.94,5.33,9.2,9.2,12.8c3.86,3.6,8.2,6.87,13,9.8
		c4.8,2.94,9.86,5.74,15.2,8.4c6.66,3.2,13.13,6.6,19.4,10.2c6.26,3.6,12.13,7.87,17.6,12.8c5.46,4.94,9.73,11,12.8,18.2
		c3.06,7.2,4.6,16,4.6,26.4c0,14.67-2.07,27.67-6.2,39c-4.14,11.34-9.94,20.8-17.4,28.4c-7.47,7.6-16.34,13.34-26.6,17.2
		C667.71,354.51,656.71,356.45,644.98,356.45z"/>
	<path d="M781.78,356.45c-10.14,0-18.8-1.94-26-5.8c-7.2-3.86-12.6-10.06-16.2-18.6c-3.6-8.53-5.4-19.86-5.4-34
		c0-14.93,1.06-29.93,3.2-45c2.13-15.06,5.33-29.26,9.6-42.6c4.53-14.13,10-26.8,16.4-38c6.4-11.2,13.93-20,22.6-26.4
		c8.66-6.4,18.06-9.6,28.2-9.6c10.13,0,18.8,1.94,26,5.8c7.2,3.87,12.6,10.07,16.2,18.6c3.6,8.54,5.4,20.14,5.4,34.8
		c0,15.2-1.07,30.47-3.2,45.8c-2.14,15.34-5.47,29.67-10,43c-4.27,13.87-9.67,26.2-16.2,37c-6.54,10.8-14,19.34-22.4,25.6
		C801.57,353.31,792.18,356.45,781.78,356.45z M781.38,340.85c9.6,0,18.26-4.4,26-13.2c7.73-8.8,14.26-20.2,19.6-34.2
		c5.33-14,9.33-29,12-45c1.06-6.13,1.93-12.26,2.6-18.4c0.66-6.13,1.2-12.2,1.6-18.2c0.4-6,0.6-11.66,0.6-17
		c0-10.13-1.07-18.33-3.2-24.6c-2.14-6.26-5.34-10.86-9.6-13.8c-4.27-2.93-9.74-4.4-16.4-4.4c-8.8,0-16.87,3.8-24.2,11.4
		c-7.34,7.6-13.6,17.67-18.8,30.2c-5.2,12.54-9.4,26.14-12.6,40.8c-1.6,6.94-2.94,14.07-4,21.4c-1.07,7.34-1.87,14.6-2.4,21.8
		c-0.54,7.2-0.8,14-0.8,20.4c0,10.14,1.06,18.34,3.2,24.6c2.13,6.27,5.46,10.87,10,13.8C769.51,339.39,774.97,340.85,781.38,340.85z
		"/>
	<path d="M857.37,351.65l50.4-289.2h17.2l-50.8,289.2H857.37z"/>
	<path d="M899.77,351.65l37.2-210.4h17.2l-37.2,210.4H899.77z M944.17,92.85l4.8-30.4h17.6l-5.2,30.4H944.17z"/>
	<path d="M987.77,356.45c-8,0-14.94-1.94-20.8-5.8c-5.87-3.86-10.34-10.06-13.4-18.6c-3.07-8.53-4.6-19.86-4.6-34
		c0-9.06,0.4-18.46,1.2-28.2c0.8-9.73,2.13-19.26,4-28.6c2.4-14.13,5.66-27.46,9.8-40c4.13-12.53,9.13-23.66,15-33.4
		c5.86-9.73,12.4-17.4,19.6-23c7.2-5.6,14.93-8.4,23.2-8.4c6.13,0,11.66,1,16.6,3c4.93,2,9,5.07,12.2,9.2
		c3.2,4.14,5.46,9.54,6.8,16.2h2l18-102.4h17.2l-50.8,289.2h-12.4l3.2-28.8h-2c-4.27,8.8-10.2,16.6-17.8,23.4
		C1007.17,353.05,998.17,356.45,987.77,356.45z M990.97,340.85c7.46,0,14.26-2.93,20.4-8.8c6.13-5.86,11.53-13.73,16.2-23.6
		c4.66-9.86,8.6-20.8,11.8-32.8c2.4-8.53,4.4-17.2,6-26c1.6-8.8,2.8-17.66,3.6-26.6c0.8-8.93,1.2-17.26,1.2-25c0-10.66-1-19.33-3-26
		c-2-6.66-5.07-11.66-9.2-15c-4.14-3.33-9.14-5-15-5c-6.14,0-12,2.87-17.6,8.6c-5.6,5.74-10.6,13.4-15,23
		c-4.4,9.6-8.34,20.4-11.8,32.4c-2.4,9.07-4.54,18.34-6.4,27.8c-1.87,9.47-3.27,18.8-4.2,28c-0.94,9.2-1.4,17.8-1.4,25.8
		c0,14.67,2,25.54,6,32.6C976.57,337.32,982.7,340.85,990.97,340.85z"/>
	<path d="M1114.17,356.45c-8.54,0-15.74-2-21.6-6c-5.87-4-10.2-10.26-13-18.8c-2.8-8.53-4.2-19.6-4.2-33.2
		c0-15.73,1.26-31.93,3.8-48.6c2.53-16.66,6.2-32.33,11-47c4.26-12.53,9.26-23.86,15-34c5.73-10.13,12.4-18.06,20-23.8
		c7.6-5.73,15.8-8.6,24.6-8.6c7.73,0,13.93,1.54,18.6,4.6c4.66,3.07,8.46,7.14,11.4,12.2c2.93,5.07,4.93,10.67,6,16.8h2l7.2-28.8
		h12.4l-8,46.4c-1.07,6.94-2.6,15.94-4.6,27c-2,11.07-4.14,22.94-6.4,35.6c-2.27,12.67-4.4,24.8-6.4,36.4s-3.67,21.47-5,29.6
		c-1.34,8.14-2,13.27-2,15.4c0,2.94,0.4,5.07,1.2,6.4c0.8,1.34,2.93,2,6.4,2h13.6l-2,10.8c-2.4,1.33-5.14,2.46-8.2,3.4
		c-3.07,0.93-6.07,1.4-9,1.4c-4.54,0-8.67-1.2-12.4-3.6c-3.74-2.4-5.87-7.06-6.4-14c0-2.13,0.2-4.46,0.6-7
		c0.4-2.53,0.86-5.26,1.4-8.2l-1.6-0.8c-4,8.8-9.87,16.74-17.6,23.8C1133.23,352.91,1124.3,356.45,1114.17,356.45z M1116.17,340.85
		c5.86,0,11.46-2.06,16.8-6.2c5.33-4.13,10.26-9.73,14.8-16.8c4.53-7.06,8.6-15.26,12.2-24.6c3.6-9.33,6.6-19.2,9-29.6
		c1.6-6.93,3-14,4.2-21.2c1.2-7.2,2.06-14.33,2.6-21.4c0.53-7.06,0.8-13.93,0.8-20.6c0-10.4-0.87-19.2-2.6-26.4
		c-1.74-7.2-4.54-12.66-8.4-16.4c-3.87-3.73-8.87-5.6-15-5.6c-5.87,0-11.54,2.4-17,7.2c-5.47,4.8-10.34,11.47-14.6,20
		c-4.27,8.54-8.14,18-11.6,28.4c-2.94,9.34-5.54,19.27-7.8,29.8c-2.27,10.54-3.94,20.87-5,31c-1.07,10.14-1.6,20-1.6,29.6
		c0,14.67,1.93,25.47,5.8,32.4C1102.63,337.39,1108.43,340.85,1116.17,340.85z"/>
	<path d="M1196.96,351.65l37.2-210.4h12.4l-3.2,28.8h2c3.73-8.53,7.86-15.2,12.4-20c4.53-4.8,9.2-8.26,14-10.4
		c4.8-2.13,9.6-3.2,14.4-3.2c1.33,0,2.53,0,3.6,0c1.06,0,2.13,0.27,3.2,0.8l-3.6,20h-7.2c-4,0-8.27,1.14-12.8,3.4
		c-4.54,2.27-8.8,5.74-12.8,10.4c-4,4.67-7.6,10.6-10.8,17.8c-3.2,7.2-5.74,15.87-7.6,26l-24,136.8H1196.96z"/>
	<path d="M1257.76,351.65l37.2-210.4h17.2l-37.2,210.4H1257.76z M1302.16,92.85l4.8-30.4h17.6l-5.2,30.4H1302.16z"/>
	<path d="M1042.51,586.45c-8,0-14.94-1.94-20.8-5.8c-5.87-3.86-10.34-10.06-13.4-18.6c-3.07-8.53-4.6-19.86-4.6-34
		c0-9.06,0.4-18.46,1.2-28.2c0.8-9.73,2.13-19.26,4-28.6c2.4-14.13,5.66-27.46,9.8-40c4.13-12.53,9.13-23.66,15-33.4
		c5.86-9.73,12.4-17.4,19.6-23c7.2-5.6,14.93-8.4,23.2-8.4c6.13,0,11.66,1,16.6,3c4.93,2,9,5.07,12.2,9.2
		c3.2,4.14,5.46,9.54,6.8,16.2h2l18-102.4h17.2l-50.8,289.2h-12.4l3.2-28.8h-2c-4.27,8.8-10.2,16.6-17.8,23.4
		S1052.91,586.45,1042.51,586.45z M1045.71,570.85c7.46,0,14.26-2.93,20.4-8.8c6.13-5.86,11.53-13.73,16.2-23.6
		c4.66-9.86,8.6-20.8,11.8-32.8c2.4-8.53,4.4-17.2,6-26c1.6-8.8,2.8-17.66,3.6-26.6c0.8-8.93,1.2-17.26,1.2-25c0-10.66-1-19.33-3-26
		c-2-6.66-5.07-11.66-9.2-15c-4.14-3.33-9.14-5-15-5c-6.14,0-12,2.87-17.6,8.6c-5.6,5.74-10.6,13.4-15,23
		c-4.4,9.6-8.34,20.4-11.8,32.4c-2.4,9.07-4.54,18.34-6.4,27.8c-1.87,9.47-3.27,18.8-4.2,28c-0.94,9.2-1.4,17.8-1.4,25.8
		c0,14.67,2,25.54,6,32.6C1031.31,567.32,1037.45,570.85,1045.71,570.85z"/>
	<path d="M1168.91,586.45c-8.54,0-15.74-2-21.6-6c-5.87-4-10.2-10.26-13-18.8c-2.8-8.53-4.2-19.6-4.2-33.2
		c0-15.73,1.26-31.93,3.8-48.6c2.53-16.66,6.2-32.33,11-47c4.26-12.53,9.26-23.86,15-34c5.73-10.13,12.4-18.06,20-23.8
		c7.6-5.73,15.8-8.6,24.6-8.6c7.73,0,13.93,1.54,18.6,4.6c4.66,3.07,8.46,7.14,11.4,12.2c2.93,5.07,4.93,10.67,6,16.8h2l7.2-28.8
		h12.4l-8,46.4c-1.07,6.94-2.6,15.94-4.6,27c-2,11.07-4.14,22.94-6.4,35.6c-2.27,12.67-4.4,24.8-6.4,36.4c-2,11.6-3.67,21.47-5,29.6
		c-1.34,8.14-2,13.27-2,15.4c0,2.94,0.4,5.07,1.2,6.4c0.8,1.34,2.93,2,6.4,2h13.6l-2,10.8c-2.4,1.33-5.14,2.46-8.2,3.4
		c-3.07,0.93-6.07,1.4-9,1.4c-4.54,0-8.67-1.2-12.4-3.6c-3.74-2.4-5.87-7.06-6.4-14c0-2.13,0.2-4.46,0.6-7
		c0.4-2.53,0.86-5.26,1.4-8.2l-1.6-0.8c-4,8.8-9.87,16.74-17.6,23.8C1187.97,582.91,1179.04,586.45,1168.91,586.45z M1170.91,570.85
		c5.86,0,11.46-2.06,16.8-6.2c5.33-4.13,10.26-9.73,14.8-16.8c4.53-7.06,8.6-15.26,12.2-24.6c3.6-9.33,6.6-19.2,9-29.6
		c1.6-6.93,3-14,4.2-21.2c1.2-7.2,2.06-14.33,2.6-21.4c0.53-7.06,0.8-13.93,0.8-20.6c0-10.4-0.87-19.2-2.6-26.4
		c-1.74-7.2-4.54-12.66-8.4-16.4c-3.87-3.73-8.87-5.6-15-5.6c-5.87,0-11.54,2.4-17,7.2c-5.47,4.8-10.34,11.47-14.6,20
		c-4.27,8.54-8.14,18-11.6,28.4c-2.94,9.34-5.54,19.27-7.8,29.8c-2.27,10.54-3.94,20.87-5,31c-1.07,10.14-1.6,20-1.6,29.6
		c0,14.67,1.93,25.47,5.8,32.4C1157.38,567.39,1163.18,570.85,1170.91,570.85z"/>
	<path d="M1296.51,586.45c-8,0-14.94-1.94-20.8-5.8c-5.87-3.86-10.34-10.06-13.4-18.6c-3.07-8.53-4.6-19.86-4.6-34
		c0-9.06,0.4-18.46,1.2-28.2c0.8-9.73,2.13-19.26,4-28.6c2.4-14.13,5.66-27.46,9.8-40c4.13-12.53,9.13-23.66,15-33.4
		c5.86-9.73,12.4-17.4,19.6-23c7.2-5.6,14.93-8.4,23.2-8.4c6.13,0,11.66,1,16.6,3c4.93,2,9,5.07,12.2,9.2
		c3.2,4.14,5.46,9.54,6.8,16.2h2l18-102.4h17.2l-50.8,289.2h-12.4l3.2-28.8h-2c-4.27,8.8-10.2,16.6-17.8,23.4
		S1306.91,586.45,1296.51,586.45z M1299.71,570.85c7.46,0,14.26-2.93,20.4-8.8c6.13-5.86,11.53-13.73,16.2-23.6
		c4.66-9.86,8.6-20.8,11.8-32.8c2.4-8.53,4.4-17.2,6-26c1.6-8.8,2.8-17.66,3.6-26.6c0.8-8.93,1.2-17.26,1.2-25c0-10.66-1-19.33-3-26
		c-2-6.66-5.07-11.66-9.2-15c-4.14-3.33-9.14-5-15-5c-6.14,0-12,2.87-17.6,8.6c-5.6,5.74-10.6,13.4-15,23
		c-4.4,9.6-8.34,20.4-11.8,32.4c-2.4,9.07-4.54,18.34-6.4,27.8c-1.87,9.47-3.27,18.8-4.2,28c-0.94,9.2-1.4,17.8-1.4,25.8
		c0,14.67,2,25.54,6,32.6C1285.31,567.32,1291.44,570.85,1299.71,570.85z"/>
</g>
<g>
	<path d="M72.35,627.25v-274.8h145.6v40h-98.8v74.8h85.2v40.4h-85.2v79.6h100.4v40H72.35z"/>
	<path d="M227.15,627.25v-210.8h34.8l3.2,26.4h1.6c3.2-7.46,6.93-13.46,11.2-18c4.26-4.53,9.06-7.86,14.4-10
		c5.33-2.13,11.2-3.2,17.6-3.2c10.66,0,19.2,2.47,25.6,7.4c6.4,4.94,10.66,12.87,12.8,23.8h2c3.2-7.46,6.8-13.46,10.8-18
		c4-4.53,8.66-7.86,14-10c5.33-2.13,11.2-3.2,17.6-3.2c9.86,0,17.8,1.87,23.8,5.6c6,3.74,10.46,9.54,13.4,17.4
		c2.93,7.87,4.4,18.2,4.4,31v161.6h-40.8v-150c0-4-0.2-7.6-0.6-10.8c-0.4-3.2-1.2-6-2.4-8.4c-1.2-2.4-3-4.26-5.4-5.6
		c-2.4-1.33-5.34-2-8.8-2c-5.34,0-9.87,1.94-13.6,5.8c-3.74,3.87-6.6,9.74-8.6,17.6c-2,7.87-3,17.94-3,30.2v123.2h-40.4v-150
		c0-4-0.27-7.6-0.8-10.8c-0.54-3.2-1.4-6-2.6-8.4s-2.94-4.26-5.2-5.6c-2.27-1.33-5.14-2-8.6-2c-5.34,0-9.87,1.94-13.6,5.8
		c-3.74,3.87-6.6,9.74-8.6,17.6c-2,7.87-3,17.94-3,30.2v123.2H227.15z"/>
	<path d="M448.74,701.25v-284.8h33.6l2.8,26h2c2.93-8.53,7.66-15.8,14.2-21.8c6.53-6,15.53-9,27-9c12.26,0,22.2,3.8,29.8,11.4
		c7.6,7.6,13.2,19.54,16.8,35.8c3.6,16.27,5.4,37.74,5.4,64.4c0,25.6-1.74,46.4-5.2,62.4c-3.47,16-8.87,27.74-16.2,35.2
		c-7.34,7.46-17,11.2-29,11.2c-6.4,0-12.07-1.14-17-3.4c-4.94-2.26-9.14-5.53-12.6-9.8c-3.47-4.26-6.27-9.33-8.4-15.2h-2v97.6
		H448.74z M514.74,592.85c5.6,0,10.06-2.06,13.4-6.2c3.33-4.13,5.8-10.66,7.4-19.6c1.6-8.93,2.4-20.73,2.4-35.4v-22
		c0-14.13-0.74-25.73-2.2-34.8c-1.47-9.06-3.87-15.73-7.2-20c-3.34-4.26-8.07-6.4-14.2-6.4c-6.14,0-11,2.34-14.6,7
		c-3.6,4.67-6.14,11.54-7.6,20.6c-1.47,9.07-2.2,20.27-2.2,33.6v22c0,10.67,0.46,19.87,1.4,27.6c0.93,7.74,2.4,14.07,4.4,19
		c2,4.94,4.6,8.6,7.8,11C506.74,591.65,510.47,592.85,514.74,592.85z"/>
	<path d="M630.74,632.05c-7.47,0-14.14-1.2-20-3.6c-5.87-2.4-10.87-6-15-10.8c-4.14-4.8-7.2-10.8-9.2-18c-2-7.2-3-15.46-3-24.8
		c0-10.4,1.53-19.93,4.6-28.6c3.06-8.66,8.06-16.26,15-22.8c6.93-6.53,16.2-11.6,27.8-15.2c11.6-3.6,25.8-5.4,42.6-5.4v-28.4
		c0-5.86-0.8-10.86-2.4-15c-1.6-4.13-4-7.4-7.2-9.8c-3.2-2.4-7.07-3.6-11.6-3.6c-6.4,0-11.2,1.47-14.4,4.4
		c-3.2,2.94-5.4,6.74-6.6,11.4c-1.2,4.67-1.8,9.94-1.8,15.8v3.2h-38.4c-0.27-1.06-0.4-2.2-0.4-3.4c0-1.2,0-2.46,0-3.8
		c0-14.93,2.73-26.93,8.2-36c5.46-9.06,13.06-15.66,22.8-19.8c9.73-4.13,20.73-6.2,33-6.2c11.73,0,22.13,1.94,31.2,5.8
		c9.06,3.87,16.13,10.6,21.2,20.2c5.06,9.6,7.6,23.2,7.6,40.8v105.6c0,4.27,0.86,7.54,2.6,9.8c1.73,2.27,4.33,3.4,7.8,3.4h9.6v28
		c-4,1.87-8.47,3.4-13.4,4.6c-4.94,1.2-9.94,1.8-15,1.8c-6.14,0-11.27-1.2-15.4-3.6c-4.14-2.4-7.27-5.73-9.4-10
		c-2.14-4.26-3.47-8.93-4-14h-2.4c-2.67,5.07-6,9.74-10,14c-4,4.27-8.8,7.67-14.4,10.2S638.47,632.05,630.74,632.05z M646.34,597.65
		c3.46,0,6.8-1.06,10-3.2c3.2-2.13,6.13-5.2,8.8-9.2c2.66-4,4.73-8.86,6.2-14.6c1.46-5.73,2.2-12.33,2.2-19.8v-22
		c-13.34,0-23.4,1.8-30.2,5.4c-6.8,3.6-11.4,8.34-13.8,14.2c-2.4,5.87-3.6,12.4-3.6,19.6c0,6.4,0.73,11.8,2.2,16.2
		c1.46,4.4,3.73,7.74,6.8,10C638,596.52,641.8,597.65,646.34,597.65z"/>
	<path d="M772.34,632.05c-9.34,0-16.6-1.94-21.8-5.8c-5.2-3.86-8.74-9.33-10.6-16.4c-1.87-7.06-2.8-15.13-2.8-24.2v-134.8h-15.6
		v-34.4h16.4l7.2-61.2h33.2v61.2h23.2v34.4h-23.2v129.6c0,5.87,0.66,10.14,2,12.8c1.33,2.67,4,4,8,4h13.2v28.8
		c-3.47,1.07-6.94,2.06-10.4,3c-3.47,0.93-6.74,1.66-9.8,2.2C778.27,631.79,775.27,632.05,772.34,632.05z"/>
	<path d="M805.93,380.05v-42.4h41.2v42.4H805.93z M805.93,627.25v-210.8h41.2v210.8H805.93z"/>
	<path d="M903.53,632.05c-7.47,0-14.14-1.2-20-3.6c-5.87-2.4-10.87-6-15-10.8c-4.14-4.8-7.2-10.8-9.2-18c-2-7.2-3-15.46-3-24.8
		c0-10.4,1.53-19.93,4.6-28.6c3.06-8.66,8.06-16.26,15-22.8c6.93-6.53,16.2-11.6,27.8-15.2c11.6-3.6,25.8-5.4,42.6-5.4v-28.4
		c0-5.86-0.8-10.86-2.4-15c-1.6-4.13-4-7.4-7.2-9.8c-3.2-2.4-7.07-3.6-11.6-3.6c-6.4,0-11.2,1.47-14.4,4.4
		c-3.2,2.94-5.4,6.74-6.6,11.4c-1.2,4.67-1.8,9.94-1.8,15.8v3.2h-38.4c-0.27-1.06-0.4-2.2-0.4-3.4c0-1.2,0-2.46,0-3.8
		c0-14.93,2.73-26.93,8.2-36c5.46-9.06,13.06-15.66,22.8-19.8c9.73-4.13,20.73-6.2,33-6.2c11.73,0,22.13,1.94,31.2,5.8
		c9.06,3.87,16.13,10.6,21.2,20.2c5.06,9.6,7.6,23.2,7.6,40.8v105.6c0,4.27,0.86,7.54,2.6,9.8c1.73,2.27,4.33,3.4,7.8,3.4h9.6v28
		c-4,1.87-8.47,3.4-13.4,4.6c-4.94,1.2-9.94,1.8-15,1.8c-6.14,0-11.27-1.2-15.4-3.6c-4.14-2.4-7.27-5.73-9.4-10
		c-2.14-4.26-3.47-8.93-4-14h-2.4c-2.67,5.07-6,9.74-10,14c-4,4.27-8.8,7.67-14.4,10.2S911.26,632.05,903.53,632.05z M919.13,597.65
		c3.46,0,6.8-1.06,10-3.2c3.2-2.13,6.13-5.2,8.8-9.2c2.66-4,4.73-8.86,6.2-14.6c1.46-5.73,2.2-12.33,2.2-19.8v-22
		c-13.34,0-23.4,1.8-30.2,5.4c-6.8,3.6-11.4,8.34-13.8,14.2c-2.4,5.87-3.6,12.4-3.6,19.6c0,6.4,0.73,11.8,2.2,16.2
		c1.46,4.4,3.73,7.74,6.8,10C910.79,596.52,914.59,597.65,919.13,597.65z"/>
</g>
<g>
	<path d="M206.83,933.13l145.5-343h40l24,343h-35l-6.5-99.5h-91l-41,99.5H206.83z M295.83,803.13h78l-6.5-114.5
		c-0.34-3.66-0.59-7.66-0.75-12c-0.17-4.33-0.34-8.91-0.5-13.75c-0.17-4.83-0.25-9.58-0.25-14.25c0-4.66,0-8.83,0-12.5h-3
		c-1.34,4.67-3.17,10.17-5.5,16.5c-2.34,6.34-4.67,12.75-7,19.25c-2.34,6.5-4.67,12.09-7,16.75L295.83,803.13z"/>
	<path d="M418.83,933.13l46.5-263h24l-2.5,35h2c5.66-10,11.58-18,17.75-24c6.16-6,12.58-10.33,19.25-13c6.66-2.66,13.5-4,20.5-4
		c13.66,0,24.33,3.25,32,9.75c7.66,6.5,11.33,16.92,11,31.25h3c5.66-10,11.5-18,17.5-24s12.25-10.33,18.75-13
		c6.5-2.66,13.25-4,20.25-4c14,0,24.91,3.34,32.75,10c7.83,6.67,11.75,17.17,11.75,31.5c0,3.34-0.25,7-0.75,11s-1.09,8.34-1.75,13
		l-35.5,203.5h-31.5l35-196.5c0.66-3.66,1.16-7.16,1.5-10.5c0.33-3.33,0.5-6.5,0.5-9.5c0-4.66-0.67-8.83-2-12.5
		c-1.34-3.66-3.59-6.41-6.75-8.25c-3.17-1.83-7.59-2.75-13.25-2.75c-8.34,0-16.42,3.09-24.25,9.25c-7.84,6.17-14.75,15.5-20.75,28
		s-10.67,28.09-14,46.75l-27,156h-31.5l35-196.5c0.66-3.66,1.16-7.16,1.5-10.5c0.33-3.33,0.5-6.5,0.5-9.5c0-4.66-0.67-8.83-2-12.5
		c-1.34-3.66-3.67-6.41-7-8.25c-3.34-1.83-7.84-2.75-13.5-2.75c-8,0-15.92,3.09-23.75,9.25c-7.84,6.17-14.75,15.5-20.75,28
		s-10.67,28.09-14,46.75l-27,156H418.83z"/>
	<path d="M680.82,933.13l46.5-263h31.5l-46.5,263H680.82z M735.82,614.13l7-42.5h31.5l-7,42.5H735.82z"/>
	<path d="M795.82,939.13c-11.67,0-21.5-1.25-29.5-3.75s-14.42-6.16-19.25-11c-4.84-4.83-8.34-10.58-10.5-17.25
		c-2.16-6.66-3.25-14.16-3.25-22.5c0-5,0.42-10.41,1.25-16.25c0.84-5.83,2.09-11.41,3.75-16.75h29.5c-1.67,4.67-2.84,9.67-3.5,15
		c-0.67,5.34-1,10-1,14c0,6.67,1.08,12.5,3.25,17.5c2.16,5,5.58,8.75,10.25,11.25c4.66,2.5,10.66,3.75,18,3.75
		c7,0,13.33-1.41,19-4.25c5.66-2.83,10.5-6.83,14.5-12c4-5.16,7-11.25,9-18.25s3-14.66,3-23c0-7.66-1.25-14.08-3.75-19.25
		c-2.5-5.16-5.75-9.75-9.75-13.75s-8.5-7.66-13.5-11c-5-3.33-10.17-6.83-15.5-10.5c-4.34-3.33-8.67-6.75-13-10.25
		c-4.34-3.5-8.17-7.58-11.5-12.25c-3.34-4.66-6-9.91-8-15.75c-2-5.83-3-12.75-3-20.75c0-11.66,1.66-22.33,5-32
		c3.33-9.66,8.16-17.91,14.5-24.75c6.33-6.83,13.83-12.08,22.5-15.75c8.66-3.66,18.5-5.5,29.5-5.5c10,0,18.66,1.09,26,3.25
		c7.33,2.17,13.5,5.34,18.5,9.5c5,4.17,8.75,9.34,11.25,15.5c2.5,6.17,3.75,13.42,3.75,21.75c0,4.34-0.5,9.17-1.5,14.5
		c-1,5.34-2.34,10.67-4,16h-29c2-9.66,3.08-16.25,3.25-19.75c0.16-3.5,0.25-6.08,0.25-7.75c0-6.66-1.17-12-3.5-16
		c-2.34-4-5.67-6.83-10-8.5c-4.34-1.66-9.34-2.5-15-2.5c-7.34,0-13.5,1.42-18.5,4.25c-5,2.84-9.09,6.5-12.25,11
		c-3.17,4.5-5.42,9.34-6.75,14.5c-1.34,5.17-2,10.25-2,15.25c0,6.67,1.16,12.5,3.5,17.5c2.33,5,5.5,9.34,9.5,13
		c4,3.67,8.33,7.17,13,10.5c5.66,4,11.66,8.09,18,12.25c6.33,4.17,12.16,8.92,17.5,14.25c5.33,5.34,9.66,11.84,13,19.5
		c3.33,7.67,5,17.17,5,28.5c0,14.67-2.17,27.59-6.5,38.75c-4.34,11.17-10.17,20.42-17.5,27.75c-7.34,7.34-15.67,12.84-25,16.5
		C815.48,937.29,805.82,939.13,795.82,939.13z"/>
	<path d="M907.31,938.63c-6.67,0-12.09-1.17-16.25-3.5c-4.17-2.33-7.09-5.66-8.75-10c-1.67-4.33-2.5-9.5-2.5-15.5
		c0-4,0.33-8.33,1-13c0.66-4.66,1.5-9.66,2.5-15l33-184.5h-18l4.5-27h18l18.5-74.5h25.5l-13,74.5h29.5l-4.5,27h-29.5l-33,189
		c-0.34,2-0.75,4.59-1.25,7.75c-0.5,3.17-0.75,5.42-0.75,6.75c0,4,0.75,6.84,2.25,8.5c1.5,1.67,3.91,2.5,7.25,2.5h17l-3.5,21
		c-3,1-6.17,2-9.5,3c-3.34,1-6.59,1.75-9.75,2.25C912.89,938.38,909.97,938.63,907.31,938.63z"/>
	<path d="M1000.81,939.13c-11,0-20.17-2.59-27.5-7.75c-7.34-5.16-12.75-13.08-16.25-23.75c-3.5-10.66-5.25-24.33-5.25-41
		c0-16.66,1.16-33.91,3.5-51.75c2.33-17.83,5.83-35.08,10.5-51.75c5.33-19,11.66-36,19-51c7.33-15,16-26.75,26-35.25
		s21.33-12.75,34-12.75c9.66,0,17.5,1.84,23.5,5.5c6,3.67,10.83,8.59,14.5,14.75c3.66,6.17,6.16,13.09,7.5,20.75h2.5l10.5-35h23
		l-11,61c-1.34,8.67-3.17,19.59-5.5,32.75c-2.34,13.17-4.84,27.17-7.5,42c-2.67,14.84-5.17,29.09-7.5,42.75
		c-2.34,13.67-4.25,25.25-5.75,34.75s-2.25,15.42-2.25,17.75c0,3.67,0.58,6.34,1.75,8c1.16,1.67,3.75,2.5,7.75,2.5h16l-3.5,20.5
		c-3.34,1.66-7.25,3.16-11.75,4.5c-4.5,1.33-8.75,2-12.75,2c-6.67,0-12.67-1.92-18-5.75c-5.34-3.83-8.17-10.58-8.5-20.25
		c0-2.33,0.16-4.66,0.5-7c0.33-2.33,0.83-5,1.5-8l-2.5-1c-5,11-12.34,20.84-22,29.5C1025.63,934.79,1014.13,939.13,1000.81,939.13z
		 M1009.81,910.13c6.66,0,13-2.33,19-7c6-4.66,11.5-11,16.5-19s9.58-17.58,13.75-28.75c4.16-11.16,7.58-23.25,10.25-36.25
		c2.33-10.66,4.16-20.41,5.5-29.25c1.33-8.83,2.25-17,2.75-24.5s0.75-14.58,0.75-21.25c0-11.33-1-20.83-3-28.5
		c-2-7.66-5.09-13.5-9.25-17.5c-4.17-4-9.75-6-16.75-6c-7.34,0-14.17,2.92-20.5,8.75c-6.34,5.84-11.92,14.17-16.75,25
		c-4.84,10.84-9.25,23.59-13.25,38.25c-3.34,12.67-6.17,24.84-8.5,36.5c-2.34,11.67-4,22.67-5,33c-1,10.34-1.5,20.17-1.5,29.5
		c0,16,2.16,27.84,6.5,35.5C994.63,906.3,1001.13,910.13,1009.81,910.13z"/>
	<path d="M1166.8,939.13c-10.34,0-19.25-2.42-26.75-7.25s-13.17-12.5-17-23c-3.84-10.5-5.75-24.25-5.75-41.25
		c0-10,0.41-20.33,1.25-31c0.83-10.66,2.25-21.33,4.25-32c3-19,6.91-36.83,11.75-53.5c4.83-16.66,10.75-31.58,17.75-44.75
		c7-13.16,15.16-23.5,24.5-31c9.33-7.5,19.66-11.25,31-11.25c8.33,0,15.58,1.25,21.75,3.75c6.16,2.5,11.16,6.34,15,11.5
		c3.83,5.17,6.58,11.92,8.25,20.25h2.5l22.5-128h31.5l-63.5,361.5h-23.5l2.5-35h-2.5c-5.34,11-12.59,20.59-21.75,28.75
		C1191.38,935.04,1180.13,939.13,1166.8,939.13z M1176.8,911.13c8.66,0,16.41-3.41,23.25-10.25c6.83-6.83,12.91-16.33,18.25-28.5
		c5.33-12.16,9.83-25.91,13.5-41.25c3-12,5.41-23.08,7.25-33.25c1.83-10.16,3.08-19.75,3.75-28.75c0.66-9,1-17.5,1-25.5
		c0-11.66-1.09-21.16-3.25-28.5c-2.17-7.33-5.5-12.83-10-16.5c-4.5-3.66-10.09-5.5-16.75-5.5c-7.67,0-14.59,3.25-20.75,9.75
		c-6.17,6.5-11.75,15.67-16.75,27.5c-5,11.84-9.5,25.59-13.5,41.25c-3,12.67-5.5,24.5-7.5,35.5s-3.5,21.25-4.5,30.75
		s-1.5,18.25-1.5,26.25c0,16,2.25,27.84,6.75,35.5C1160.55,907.3,1167.46,911.13,1176.8,911.13z"/>
</g>
</svg>
