<?xml version="1.0" encoding="utf-8"?>
<!-- Generator: Adobe Illustrator 26.0.1, SVG Export Plug-In . SVG Version: 6.00 Build 0)  -->
<svg version="1.1" id="Capa_1" xmlns="http://www.w3.org/2000/svg" xmlns:xlink="http://www.w3.org/1999/xlink" x="0px" y="0px"
	 viewBox="0 0 1444.31 1096.18" style="enable-background:new 0 0 1444.31 1096.18;" xml:space="preserve">
<style type="text/css">
	.st0{fill:#AFEEEE;}
	.st1{fill:#FFFFFF;}
	.st2{fill:#739BC6;}
</style>
<g>
	<path class="st0" d="M304.29,272.75L405.33,19.39h64.17l9.22,253.36h-49.42V218.9h-55.32l-20.28,53.84H304.29z M387.63,178.34
		h42.41l0.74-77.08c0-1.97,0-4.36,0-7.19c0-2.82,0-5.96,0-9.4c0-3.44,0.06-6.82,0.19-10.14c0.12-3.32,0.18-6.45,0.18-9.4h-2.95
		c-0.99,3.69-2.28,7.81-3.87,12.35c-1.6,4.55-3.13,8.98-4.61,13.28c-1.47,4.3-2.71,7.69-3.69,10.14L387.63,178.34z"/>
	<path class="st0" d="M504.54,272.75l17.7-100.68L486.1,19.39h49.79l18.44,101.05h1.84l54.95-101.05h48.31l-88.88,152.68
		l-18.07,100.68H504.54z"/>
	<path class="st0" d="M692.25,277.17c-20.16,0-36.02-4.3-47.57-12.91c-11.56-8.6-17.33-23.84-17.33-45.73
		c0-4.18,0.18-8.67,0.55-13.46c0.37-4.8,1.04-9.89,2.03-15.31l30.24-170.38h47.94l-30.98,175.54c-0.74,3.93-1.29,7.44-1.66,10.51
		c-0.37,3.08-0.55,5.96-0.55,8.67c0,7.38,1.66,12.85,4.98,16.41c3.32,3.57,8.54,5.35,15.67,5.35c9.83,0,17.39-3.38,22.68-10.14
		c5.28-6.76,9.04-17.02,11.25-30.79l30.98-175.54h47.94l-30.24,171.86c-3.69,21.88-9.53,39.09-17.52,51.63
		c-7.99,12.54-17.64,21.39-28.95,26.55C720.4,274.59,707.24,277.17,692.25,277.17z"/>
	<path class="st0" d="M780.76,272.75l44.25-253.36h69.7c23.84,0,41.18,5.72,52,17.15c10.82,11.43,16.23,29.57,16.23,54.4
		c0,8.11-0.43,16.96-1.29,26.55c-0.86,9.59-2.28,19.91-4.24,30.98c-4.92,28.52-11.56,51.94-19.91,70.25
		c-8.36,18.32-19.12,31.9-32.27,40.75c-13.16,8.85-29.45,13.28-48.86,13.28H780.76z M836.08,231.07h19.55
		c6.14,0,11.74-1.04,16.78-3.14c5.04-2.09,9.59-5.65,13.65-10.69c4.06-5.04,7.68-11.92,10.88-20.65c3.19-8.72,6.02-19.85,8.48-33.38
		c2.46-14.75,4.36-26.37,5.72-34.85c1.35-8.48,2.27-15.06,2.77-19.73c0.49-4.67,0.74-8.6,0.74-11.8c0-8.85-1.11-15.92-3.32-21.21
		c-2.21-5.28-5.41-9.04-9.59-11.25c-4.18-2.21-9.59-3.32-16.23-3.32h-19.92L836.08,231.07z"/>
	<path class="st0" d="M928.28,272.75l101.05-253.36h64.17l9.22,253.36h-49.42V218.9h-55.32l-20.28,53.84H928.28z M1011.62,178.34
		h42.41l0.74-77.08c0-1.97,0-4.36,0-7.19c0-2.82,0-5.96,0-9.4c0-3.44,0.06-6.82,0.19-10.14c0.12-3.32,0.18-6.45,0.18-9.4h-2.95
		c-0.99,3.69-2.28,7.81-3.87,12.35c-1.6,4.55-3.13,8.98-4.61,13.28c-1.47,4.3-2.71,7.69-3.69,10.14L1011.62,178.34z"/>
</g>
<g>
	<path class="st1" d="M142.95,539.11c-20.41,0-36.88-4.67-49.42-14.01c-12.54-9.34-21.64-23.72-27.29-43.15
		c-5.66-19.42-8.48-44.25-8.48-74.5c0-44.74,7.25-77.75,21.76-99.02c14.5-21.26,36.88-31.9,67.12-31.9
		c16.72,0,30.73,3.5,42.04,10.51c11.31,7.01,19.91,18.2,25.82,33.56c5.9,15.37,8.85,35.84,8.85,61.4h-54.58
		c0-12.29-0.62-22.68-1.84-31.16c-1.23-8.48-3.69-14.87-7.38-19.18c-3.69-4.3-9.1-6.45-16.23-6.45c-6.89,0-12.48,2.15-16.78,6.45
		c-4.3,4.3-7.32,11.01-9.03,20.1c-1.72,9.1-2.58,20.9-2.58,35.4v42.04c0,14.26,0.86,25.94,2.58,35.03c1.72,9.1,4.67,15.8,8.85,20.1
		c4.18,4.31,9.83,6.45,16.96,6.45c6.64,0,11.92-2.09,15.86-6.27c3.93-4.18,6.76-10.38,8.48-18.62c1.72-8.23,2.58-18.5,2.58-30.79
		h52.74c0,24.59-3.08,44.57-9.22,59.93c-6.15,15.37-15.12,26.55-26.92,33.56C175.04,535.6,160.41,539.11,142.95,539.11z"/>
	<path class="st1" d="M315.54,539.11c-19.67,0-36.08-4.48-49.23-13.46c-13.16-8.97-23.05-23.11-29.69-42.41
		c-6.64-19.3-9.96-44.44-9.96-75.42c0-30.73,3.32-55.74,9.96-75.05c6.64-19.3,16.53-33.5,29.69-42.59
		c13.15-9.09,29.56-13.65,49.23-13.65c20.16,0,36.82,4.55,49.97,13.65c13.15,9.1,22.99,23.3,29.5,42.59
		c6.51,19.3,9.77,44.32,9.77,75.05c0,30.98-3.26,56.12-9.77,75.42c-6.52,19.3-16.35,33.44-29.5,42.41
		C352.36,534.62,335.7,539.11,315.54,539.11z M315.54,490.79c6.39,0,11.55-1.35,15.49-4.06c3.93-2.7,7.13-6.7,9.59-11.99
		c2.46-5.28,4.18-11.74,5.16-19.36c0.98-7.62,1.48-16.47,1.48-26.55V386.8c0-10.08-0.5-18.93-1.48-26.55
		c-0.99-7.62-2.71-14.01-5.16-19.18c-2.46-5.16-5.66-9.09-9.59-11.8c-3.94-2.7-9.1-4.06-15.49-4.06c-6.15,0-11.25,1.35-15.3,4.06
		c-4.06,2.71-7.26,6.64-9.59,11.8c-2.34,5.16-4.06,11.56-5.16,19.18c-1.11,7.62-1.66,16.47-1.66,26.55v42.04
		c0,10.08,0.55,18.94,1.66,26.55c1.11,7.62,2.82,14.08,5.16,19.36c2.33,5.29,5.53,9.28,9.59,11.99
		C304.29,489.45,309.39,490.79,315.54,490.79z"/>
	<path class="st1" d="M415.11,534.68V280.95h56.43V486h75.23v48.68H415.11z"/>
	<path class="st1" d="M532.39,534.68l54.21-253.73h76.71l54.58,253.73h-59.37l-8.48-46.84H598.4l-8.48,46.84H532.39z M605.4,440.64
		h37.62l-11.43-67.49c-0.25-1.97-0.62-4.55-1.11-7.75c-0.49-3.19-0.98-6.82-1.47-10.88c-0.5-4.06-1.05-8.05-1.66-11.99
		c-0.62-3.93-1.17-7.62-1.66-11.06h-2.95c-0.5,4.18-1.05,8.85-1.66,14.01c-0.62,5.16-1.29,10.2-2.03,15.12
		c-0.74,4.92-1.35,9.1-1.84,12.54L605.4,440.64z"/>
	<path class="st1" d="M716.41,534.68V280.95h86.3c13.77,0,25.63,2.4,35.59,7.19c9.96,4.79,17.52,11.68,22.68,20.65
		c5.16,8.98,7.75,19.98,7.75,33.01c0,10.57-1.6,19.86-4.8,27.84c-3.2,7.99-7.44,14.63-12.72,19.92c-5.29,5.29-11.5,9.53-18.62,12.72
		v1.48c7.62,2.46,14.44,5.96,20.47,10.51c6.02,4.55,10.88,10.7,14.57,18.44c3.69,7.75,5.53,17.77,5.53,30.06
		c0,16.23-3.32,29.63-9.96,40.2c-6.64,10.57-15.99,18.5-28.03,23.79c-12.05,5.29-26.18,7.93-42.41,7.93H716.41z M771.73,383.84
		h20.65c4.92,0,8.97-1.23,12.17-3.69c3.19-2.45,5.53-5.9,7.01-10.33c1.47-4.43,2.21-9.71,2.21-15.86c0-7.62-1.84-13.83-5.53-18.62
		c-3.69-4.79-8.98-7.19-15.86-7.19h-20.65V383.84z M771.73,485.63h22.5c7.62,0,13.28-2.46,16.96-7.38
		c3.69-4.92,5.53-12.41,5.53-22.5c0-5.4-0.8-10.14-2.4-14.2c-1.6-4.06-4-7.25-7.19-9.59c-3.2-2.33-7.38-3.5-12.54-3.5h-22.87V485.63
		z"/>
	<path class="st1" d="M960.91,539.11c-19.67,0-36.08-4.48-49.23-13.46c-13.16-8.97-23.05-23.11-29.69-42.41
		c-6.64-19.3-9.96-44.44-9.96-75.42c0-30.73,3.32-55.74,9.96-75.05c6.64-19.3,16.53-33.5,29.69-42.59
		c13.15-9.09,29.56-13.65,49.23-13.65c20.16,0,36.82,4.55,49.97,13.65c13.15,9.1,22.99,23.3,29.5,42.59
		c6.51,19.3,9.77,44.32,9.77,75.05c0,30.98-3.26,56.12-9.77,75.42c-6.52,19.3-16.35,33.44-29.5,42.41
		C997.73,534.62,981.07,539.11,960.91,539.11z M960.91,490.79c6.39,0,11.55-1.35,15.49-4.06c3.93-2.7,7.13-6.7,9.59-11.99
		c2.46-5.28,4.18-11.74,5.16-19.36c0.98-7.62,1.48-16.47,1.48-26.55V386.8c0-10.08-0.5-18.93-1.48-26.55
		c-0.99-7.62-2.71-14.01-5.16-19.18c-2.46-5.16-5.66-9.09-9.59-11.8c-3.94-2.7-9.1-4.06-15.49-4.06c-6.15,0-11.25,1.35-15.3,4.06
		c-4.06,2.71-7.26,6.64-9.59,11.8c-2.34,5.16-4.06,11.56-5.16,19.18c-1.11,7.62-1.66,16.47-1.66,26.55v42.04
		c0,10.08,0.55,18.94,1.66,26.55c1.11,7.62,2.82,14.08,5.16,19.36c2.33,5.29,5.53,9.28,9.59,11.99
		C949.66,489.45,954.76,490.79,960.91,490.79z"/>
	<path class="st1" d="M1060.48,534.68V280.95h85.56c18.68,0,33.25,3.38,43.7,10.14c10.45,6.76,17.76,15.86,21.94,27.29
		c4.18,11.43,6.27,24.16,6.27,38.17c0,14.75-1.79,28.15-5.35,40.2c-3.57,12.05-9.9,21.76-18.99,29.13l32.82,108.79h-58.27
		l-24.71-89.98h-26.55v89.98H1060.48z M1116.91,398.97h21.39c8.85,0,14.94-3.5,18.26-10.51c3.32-7.01,4.98-15.79,4.98-26.37
		c0-7.13-0.74-13.21-2.21-18.26c-1.48-5.04-3.87-8.91-7.19-11.62c-3.32-2.7-8.18-4.06-14.57-4.06h-20.65V398.97z"/>
	<path class="st1" d="M1209.84,534.68l54.21-253.73h76.71l54.58,253.73h-59.37l-8.48-46.84h-51.63l-8.48,46.84H1209.84z
		 M1282.86,440.64h37.62l-11.43-67.49c-0.25-1.97-0.62-4.55-1.11-7.75c-0.49-3.19-0.98-6.82-1.47-10.88
		c-0.5-4.06-1.05-8.05-1.66-11.99c-0.62-3.93-1.17-7.62-1.66-11.06h-2.95c-0.5,4.18-1.05,8.85-1.66,14.01
		c-0.62,5.16-1.29,10.2-2.03,15.12c-0.74,4.92-1.35,9.1-1.84,12.54L1282.86,440.64z"/>
</g>
<g>
	<path class="st0" d="M104.04,808.83l44.25-253.73h140.88l-8.85,48.68h-84.45l-9.22,52h71.91l-8.48,48.68h-71.91l-9.59,55.69h86.3
		l-8.85,48.68H104.04z"/>
	<path class="st0" d="M254.14,808.83l44.25-253.73h78.18l1.11,123.91c0,1.72-0.06,4.92-0.18,9.59c-0.13,4.67-0.19,9.84-0.19,15.49
		c0,5.66,0,10.94,0,15.86h2.21c1.23-4.18,2.58-8.67,4.06-13.46c1.48-4.79,2.95-9.59,4.43-14.38c1.48-4.79,2.95-9.28,4.43-13.46
		l43.52-123.54h78.92l-44.99,253.73H416.4l19.91-111.37c1.48-8.6,3.07-16.78,4.8-24.52c1.72-7.75,3.32-14.69,4.79-20.84
		c1.47-6.14,2.45-10.82,2.95-14.01h-2.95c-0.99,2.71-2.09,6.03-3.32,9.96c-1.23,3.93-2.52,7.81-3.87,11.62
		c-1.35,3.81-2.64,7.19-3.87,10.14l-50.52,139.03h-44.99l-1.84-139.03c0-3.44-0.06-8.42-0.18-14.94
		c-0.13-6.51-0.18-12.11-0.18-16.78h-2.58c-0.5,4.67-1.17,10.45-2.03,17.33c-0.86,6.89-1.79,14.01-2.77,21.39
		c-0.99,7.38-2.09,14.26-3.32,20.65l-19.55,111.37H254.14z"/>
	<path class="st0" d="M486.1,808.83l44.25-253.73h84.45c14.26,0,25.63,2.4,34.11,7.19c8.48,4.79,14.69,11.56,18.62,20.28
		c3.93,8.73,5.9,19.12,5.9,31.16c0,15.74-1.84,30.3-5.53,43.7c-3.69,13.4-9.1,25.08-16.23,35.03c-7.13,9.96-15.67,17.7-25.63,23.23
		c-9.96,5.53-21.08,8.3-33.38,8.3h-35.77l-14.75,84.82H486.1z M565.02,677.17h20.28c6.14,0,11.49-2.52,16.04-7.56
		c4.55-5.04,8.05-11.8,10.51-20.28c2.45-8.48,3.69-17.64,3.69-27.47c0-6.64-1.42-11.55-4.24-14.75c-2.83-3.19-7.56-4.79-14.2-4.79
		H578.3L565.02,677.17z"/>
	<path class="st0" d="M616.28,808.83l98.47-253.73h77.45l5.53,253.73h-57.53L741.3,762h-50.89l-16.6,46.84H616.28z M705.9,714.79
		h37.25l1.84-71.91c0.24-2.21,0.43-4.85,0.55-7.93c0.12-3.07,0.18-6.39,0.18-9.96c0-3.56,0.06-7.01,0.18-10.33
		c0.12-3.32,0.31-6.45,0.55-9.4h-3.32c-0.98,3.69-2.21,7.87-3.69,12.54c-1.47,4.67-3.01,9.22-4.61,13.65
		c-1.6,4.42-2.89,8.11-3.87,11.06L705.9,714.79z"/>
	<path class="st0" d="M815.43,808.83l36.14-204.68h-52l8.48-49.05h159.32l-8.48,49.05h-51.26l-36.14,204.68H815.43z"/>
	<path class="st0" d="M927.17,808.83l44.25-253.73h56.43l-44.62,253.73H927.17z"/>
	<path class="st0" d="M988.02,808.83l4.06-22.87l113.96-182.18h-76.34l8.48-48.68h150.83l-4.06,23.23l-114.32,181.81h84.45
		l-8.11,48.68H988.02z"/>
	<path class="st0" d="M1137.01,808.83l98.47-253.73h77.45l5.53,253.73h-57.53l1.11-46.84h-50.89l-16.6,46.84H1137.01z
		 M1226.62,714.79h37.25l1.84-71.91c0.24-2.21,0.43-4.85,0.55-7.93c0.12-3.07,0.18-6.39,0.18-9.96c0-3.56,0.06-7.01,0.18-10.33
		c0.12-3.32,0.31-6.45,0.55-9.4h-3.32c-0.98,3.69-2.21,7.87-3.69,12.54c-1.47,4.67-3.01,9.22-4.61,13.65
		c-1.6,4.42-2.89,8.11-3.87,11.06L1226.62,714.79z"/>
</g>
<g>
	<path class="st2" d="M107.18,1081.52c-21.15,0-38.3-4.67-51.45-14.01c-13.16-9.34-22.87-23.72-29.13-43.15
		c-6.27-19.42-9.4-44.25-9.4-74.5c0-44.99,7.68-78.12,23.05-99.39c15.36-21.26,38.17-31.9,68.41-31.9c16.96,0,31.28,3.5,42.96,10.51
		c11.67,7.01,20.53,18.5,26.55,34.48c6.02,15.99,9.03,37.37,9.03,64.17H122.3c0-11.06-0.37-20.4-1.11-28.03
		c-0.74-7.62-2.34-13.33-4.79-17.15c-2.46-3.81-6.27-5.72-11.43-5.72c-5.66,0-9.84,1.72-12.54,5.16c-2.71,3.45-4.43,8.61-5.16,15.49
		c-0.74,6.89-1.11,15.74-1.11,26.55v52.37c0,11.06,0.43,20.04,1.29,26.92c0.86,6.89,2.64,11.99,5.35,15.31
		c2.7,3.32,6.88,4.98,12.54,4.98c5.16,0,9.09-1.84,11.8-5.53c2.7-3.69,4.48-9.22,5.35-16.6c0.86-7.38,1.29-16.47,1.29-27.29h63.43
		c0,25.82-3.01,46.59-9.03,62.33c-6.03,15.74-15,27.17-26.92,34.3C139.32,1077.95,124.63,1081.52,107.18,1081.52z"/>
	<path class="st2" d="M280.87,1081.52c-20.9,0-38.05-4.43-51.45-13.28c-13.4-8.85-23.48-22.92-30.24-42.23
		c-6.76-19.3-10.14-44.56-10.14-75.79c0-31.22,3.38-56.48,10.14-75.79c6.76-19.3,16.84-33.38,30.24-42.23
		c13.4-8.85,30.55-13.28,51.45-13.28c20.65,0,37.8,4.43,51.45,13.28c13.65,8.85,23.72,22.93,30.24,42.23
		c6.51,19.3,9.77,44.57,9.77,75.79c0,31.23-3.26,56.49-9.77,75.79c-6.52,19.3-16.6,33.38-30.24,42.23
		C318.67,1077.09,301.52,1081.52,280.87,1081.52z M280.87,1023.62c5.16,0,9.22-1.11,12.17-3.32c2.95-2.21,5.22-5.35,6.82-9.4
		c1.6-4.06,2.64-8.97,3.14-14.75c0.49-5.77,0.74-12.35,0.74-19.73v-52.37c0-7.38-0.25-13.89-0.74-19.55
		c-0.5-5.65-1.54-10.57-3.14-14.75c-1.6-4.18-3.87-7.38-6.82-9.59c-2.95-2.21-7.01-3.32-12.17-3.32c-5.16,0-9.28,1.11-12.36,3.32
		c-3.08,2.21-5.35,5.41-6.82,9.59c-1.48,4.18-2.46,9.1-2.95,14.75c-0.5,5.66-0.74,12.17-0.74,19.55v52.37
		c0,7.38,0.24,13.96,0.74,19.73c0.49,5.78,1.47,10.7,2.95,14.75c1.47,4.06,3.75,7.19,6.82,9.4
		C271.59,1022.51,275.71,1023.62,280.87,1023.62z"/>
	<path class="st2" d="M380.08,1077.09V823.36h93.3l14.01,89.62c0.74,4.92,1.6,10.94,2.58,18.07c0.98,7.13,2.03,14.32,3.14,21.57
		c1.11,7.25,2.03,13.71,2.77,19.36h3.69c0.74-4.67,1.6-10.45,2.58-17.33c0.98-6.88,1.97-13.95,2.95-21.21
		c0.98-7.25,1.84-13.95,2.58-20.1l12.91-89.98h91.09v253.73h-63.8v-73.39c0-13.03,0.24-25.08,0.74-36.14
		c0.49-11.06,0.92-20.65,1.29-28.77c0.37-8.11,0.55-13.89,0.55-17.33h-2.95c-0.74,2.95-1.48,6.52-2.21,10.7
		c-0.74,4.18-1.42,8.11-2.03,11.8c-0.62,3.69-1.17,6.76-1.66,9.22l-19.91,123.91h-51.63l-19.92-123.91
		c-0.25-2.46-0.74-5.53-1.48-9.22c-0.74-3.69-1.42-7.62-2.03-11.8c-0.62-4.18-1.17-7.75-1.66-10.7h-3.32
		c0.49,6.15,0.92,13.83,1.29,23.05c0.37,9.22,0.67,18.99,0.92,29.32c0.24,10.33,0.37,20.28,0.37,29.87v73.39H380.08z"/>
	<path class="st2" d="M623.11,1077.09V823.36h96.99c15.98,0,28.89,3.5,38.72,10.51c9.83,7.01,16.9,16.91,21.21,29.69
		c4.3,12.79,6.45,27.79,6.45,44.99c0,17.7-2.34,33.25-7.01,46.65c-4.67,13.4-11.99,23.91-21.94,31.53
		c-9.96,7.62-22.81,11.43-38.54,11.43h-28.03v78.92H623.11z M690.96,943.22h14.01c5.41,0,8.97-3.14,10.69-9.4
		c1.72-6.27,2.58-13.95,2.58-23.05c0-6.14-0.31-11.62-0.92-16.41c-0.62-4.79-1.91-8.54-3.87-11.25c-1.97-2.7-4.79-4.06-8.48-4.06
		h-14.01V943.22z"/>
	<path class="st2" d="M758.82,1077.09l51.26-253.73h94.41l50.89,253.73h-71.18l-5.53-37.25h-45.36l-4.79,37.25H758.82z
		 M841.06,983.79h30.24l-7.74-56.42c-0.25-2.21-0.55-5.16-0.92-8.85c-0.37-3.69-0.8-7.8-1.29-12.35c-0.49-4.55-1.05-9.09-1.66-13.65
		c-0.62-4.55-1.17-8.67-1.66-12.36h-3.32c-0.5,4.67-1.05,9.84-1.66,15.49c-0.62,5.66-1.29,11.31-2.03,16.96
		c-0.74,5.66-1.48,10.57-2.21,14.75L841.06,983.79z"/>
	<path class="st2" d="M951.69,1077.09V823.36h92.94c18.93,0,33.68,3.45,44.25,10.33c10.57,6.89,18.01,16.23,22.31,28.03
		c4.3,11.8,6.45,24.96,6.45,39.46c0,13.28-1.35,25.76-4.06,37.43c-2.71,11.68-8.24,21.82-16.6,30.43l28.03,108.05h-69.7l-17.7-85.19
		h-18.07v85.19H951.69z M1019.55,938.43h15.86c5.9,0,9.83-3.14,11.8-9.4c1.96-6.27,2.95-13.33,2.95-21.21
		c0-5.4-0.43-10.26-1.29-14.57c-0.86-4.3-2.34-7.8-4.42-10.51c-2.09-2.7-5.11-4.06-9.04-4.06h-15.86V938.43z"/>
	<path class="st2" d="M1160.42,1077.09V881.63h-49.05v-58.27h165.22v58.27h-48.31v195.46H1160.42z"/>
	<path class="st2" d="M1278.43,1077.09V823.36h146.78v58.27h-78.92v37.62h65.64v58.27h-65.64v41.3h80.76v58.27H1278.43z"/>
</g>
</svg>
