<?xml version="1.0" encoding="utf-8"?>
<!-- Generator: Adobe Illustrator 26.0.1, SVG Export Plug-In . SVG Version: 6.00 Build 0)  -->
<svg version="1.1" id="Capa_1" xmlns="http://www.w3.org/2000/svg" xmlns:xlink="http://www.w3.org/1999/xlink" x="0px" y="0px"
	 viewBox="0 0 400 400" style="enable-background:new 0 0 400 400;" xml:space="preserve">
<g>
	<g>
		<path d="M173.31,210.21c-9.27,0-17.16,0-25.99,0c0-14.84,0-28.68,0-43.97c7.93,0,16.13,0,25.98,0c0-12.48-0.1-23.57,0.02-34.66
			c0.35-31.35,15.34-47.71,46.68-49.72c14.39-0.92,28.89-0.16,44.44-0.16c0,14.72,0,29.25,0,45.34c-8.8,0-17.52,0.16-26.23-0.05
			c-8.62-0.21-12.57,3.88-12.5,12.34c0.07,8.34,0.02,16.67,0.02,26.19c13.49,0,25.77,0,39.7,0c-1.24,15.03-2.38,28.75-3.61,43.57
			c-11.8,0-22.88,0-36.24,0c0,22.53,0,44,0,65.47c0,21.22,0,42.45,0,64.42c-17.51,0-33.79,0-52.28,0c0-21.28,0-42.76,0-64.24
			C173.31,253.57,173.31,232.39,173.31,210.21z"/>
	</g>
</g>
</svg>
