<?xml version="1.0" encoding="utf-8"?>
<!-- Generator: Adobe Illustrator 26.0.1, SVG Export Plug-In . SVG Version: 6.00 Build 0)  -->
<svg version="1.1" id="Capa_1" xmlns="http://www.w3.org/2000/svg" xmlns:xlink="http://www.w3.org/1999/xlink" x="0px" y="0px"
	 viewBox="0 0 400 400" style="enable-background:new 0 0 400 400;" xml:space="preserve">
<style type="text/css">
	.st0{fill:#FFFFFF;}
</style>
<g>
	<path class="st0" d="M399.7,399.7H1.3V1.3h398.4V399.7z M28.32,372.68h344.36V28.32H28.32V372.68z"/>
	<path class="st0" d="M200.5,400C90.5,400,1,310.51,1,200.5S90.5,1,200.5,1S400,90.5,400,200.5S310.5,400,200.5,400z M200.5,28.02
		c-95.1,0-172.48,77.37-172.48,172.48S105.4,372.98,200.5,372.98S372.98,295.6,372.98,200.5S295.6,28.02,200.5,28.02z"/>
	<path class="st0" d="M200.5,399.7c-58.64,0-106.36-47.71-106.36-106.36s47.71-106.36,106.36-106.36s106.36,47.71,106.36,106.36
		S259.14,399.7,200.5,399.7z M200.5,214.01c-43.75,0-79.33,35.59-79.33,79.33c0,43.75,35.59,79.33,79.33,79.33
		s79.33-35.59,79.33-79.33C279.83,249.6,244.25,214.01,200.5,214.01z"/>
</g>
</svg>
