<?xml version="1.0" encoding="utf-8"?>
<!-- Generator: Adobe Illustrator 26.0.1, SVG Export Plug-In . SVG Version: 6.00 Build 0)  -->
<svg version="1.1" id="Capa_1" xmlns="http://www.w3.org/2000/svg" xmlns:xlink="http://www.w3.org/1999/xlink" x="0px" y="0px"
	 viewBox="0 0 400 400" style="enable-background:new 0 0 400 400;" xml:space="preserve">
<g>
	<g>
		<path d="M-916.19,210.21c-9.27,0-17.16,0-25.99,0c0-14.84,0-28.68,0-43.97c7.93,0,16.13,0,25.98,0c0-12.48-0.1-23.57,0.02-34.66
			c0.35-31.35,15.34-47.71,46.68-49.72c14.39-0.92,28.89-0.16,44.44-0.16c0,14.72,0,29.25,0,45.34c-8.8,0-17.52,0.16-26.23-0.05
			c-8.62-0.21-12.57,3.88-12.5,12.34c0.07,8.34,0.02,16.67,0.02,26.19c13.49,0,25.77,0,39.7,0c-1.24,15.03-2.38,28.75-3.61,43.57
			c-11.8,0-22.88,0-36.24,0c0,22.53,0,44,0,65.47c0,21.22,0,42.45,0,64.42c-17.51,0-33.79,0-52.28,0c0-21.28,0-42.76,0-64.24
			C-916.19,253.57-916.19,232.39-916.19,210.21z"/>
	</g>
	<g>
		<path d="M88.12,118.56c45.61,39.61,69.64,51.38,104.9,51.58c0.62-7.23,0.5-14.69,2.01-21.8c7.16-33.6,46.49-52.09,74.88-33.08
			c13.72,9.18,23.9,7.53,36.25,1.38c2.21-1.1,4.6-1.87,8.83-0.73c-5.17,7.26-10.35,14.53-16.87,23.68
			c7.7-1.95,14.09-3.57,20.51-5.21c0.28,1.22,0.8,2.43,0.56,2.6c-19.52,14.3-21.81,35.31-25.75,57.38
			C276.3,290.42,169.51,341.4,83.25,295.97c-2.23-1.18-4.29-2.68-7.65-4.81c13.01-1.94,24.84-2.49,35.91-5.68
			c11.26-3.24,21.77-9.06,32.52-15.23c-19.94-6.32-36.08-15.58-43.79-36.6c5.83-0.67,10.75-1.23,19.23-2.2
			c-23.97-10.5-36.37-25.84-38.14-50.27c6.9,1.74,12.3,3.1,21.18,5.34C81.73,165.35,76.34,143.84,88.12,118.56z"/>
	</g>
	<g>
		<path d="M764.67,126.15c28.85,0,57.71-0.15,86.56,0.05c25.47,0.17,40.33,15.06,40.5,40.73c0.22,31.96,0.24,63.93-0.05,95.89
			c-0.24,26.46-14.95,41.06-41.54,41.15c-56.82,0.18-113.64,0.15-170.46-0.04c-27.14-0.09-41.79-14.96-41.93-42.16
			c-0.16-31.07-0.18-62.15-0.04-93.23c0.13-27.78,14.85-42.2,43.06-42.3c27.97-0.1,55.93-0.02,83.9-0.02
			C764.67,126.18,764.67,126.16,764.67,126.15z M740.16,257.22c24.27-16.03,47.09-31.1,71.37-47.14
			c-24.52-16.12-47.17-31-71.37-46.91C740.16,195.3,740.16,225.03,740.16,257.22z"/>
	</g>
	<g>
		<g>
			<path d="M-242.67,211.67c-1.17,23.01-0.89,46.22-3.86,69c-4.36,33.5-27.27,56.67-60.95,58.42c-43.31,2.25-86.91,2.45-130.22,0.2
				c-35.44-1.84-60-26-62.05-61.64c-2.51-43.72-2.48-87.8,0.13-131.51c2.05-34.42,25.67-57.88,60.35-60.25
				c41.93-2.87,84.32-3.63,126.23-0.92c44.18,2.85,66.46,29.4,68.65,74.73c0.83,17.27,0.14,34.61,0.14,51.91
				C-243.72,211.64-243.2,211.66-242.67,211.67z M-478.04,211.44c0,18.21-0.66,36.44,0.14,54.61c1.44,32.44,17.55,49.87,49.57,51.01
				c36.81,1.31,73.74,1.36,110.54-0.01c31.64-1.18,48.48-18.39,49.41-49.69c1.09-36.82,1.18-73.74-0.07-110.55
				c-1.06-31.15-18.74-48.2-50.03-49.03c-36.38-0.97-72.84-1.02-109.22-0.03c-31.8,0.87-48.88,18.63-50.18,50.41
				C-478.61,175.9-478.01,193.68-478.04,211.44z"/>
		</g>
		<g>
			<path d="M-306.82,213.52c-0.91,37.61-30.68,66.11-68.01,65.1c-37.23-1.01-65.57-31.14-64.54-68.63
				c0.99-36.06,31.8-65.04,68.08-64.03C-334.78,146.98-305.94,177.2-306.82,213.52z M-373.24,169.49
				c-23.81,0.27-43.33,20.26-42.76,43.78c0.56,23.16,19.83,41.95,43.11,42.04c23.05,0.09,42.82-19.5,42.75-42.36
				C-330.22,188.9-349.73,169.22-373.24,169.49z"/>
		</g>
		<g>
			<path d="M-286.4,146.38c-5.71,4.11-10.97,10.59-17.23,11.79c-9.87,1.89-15.75-5.08-15.63-15.08c0.12-9.43,6.15-15.92,15.19-14.33
				c6.33,1.11,11.77,7.27,17.6,11.17C-286.44,142.08-286.42,144.23-286.4,146.38z"/>
		</g>
	</g>
</g>
</svg>
